<svg width="296pt" height="294.573" viewBox="0 0 296 220.93" class="displayed_equation" xmlns="http://www.w3.org/2000/svg">
  <path d="M 1722.65625 1029.885938 L 1722.65625 1722.659375 L 123.984375 1722.659375 L 123.984375 123.9875 L 1722.65625 123.9875 L 1722.65625 816.760938" transform="matrix(.1 0 0 -.1 0 220.93)" fill="none" stroke-width="7.97" stroke-linejoin="round" stroke="#000" stroke-miterlimit="10" />
  <path d="M 140.300781 26.230469 C 140.226563 26.230469 140.1875 26.191406 140.1875 26.117188 L 140.1875 25.320313 C 140.160156 25.21875 140.226563 25.210938 140.300781 25.210938 C 140.703125 25.183594 141.121094 25.164063 141.546875 25.074219 C 141.960938 24.972656 142.351563 24.867188 142.667969 24.71875 C 142.53125 24.273438 142.394531 23.8125 142.183594 23.246094 C 141.984375 22.777344 141.929688 22.484375 141.929688 22.351563 C 141.921875 22.148438 142.007813 21.953125 142.167969 21.75 C 142.304688 21.535156 142.539063 21.367188 142.804688 21.21875 C 142.84375 21.441406 142.949219 21.984375 143.121094 22.753906 C 143.238281 23.335938 143.308594 23.804688 143.308594 24.128906 C 143.304688 24.261719 143.269531 24.449219 143.183594 24.695313 C 143.074219 24.921875 142.988281 25.207031 142.839844 25.492188 C 142 25.964844 141.167969 26.230469 140.300781 26.230469 Z M 142.15625 20.566406 Z M 142.003906 26.621094 Z M 142.003906 26.925781 Z M 141.964844 19.671875 C 141.78125 19.914063 141.539063 20.234375 141.171875 20.585938 C 140.746094 20.246094 140.472656 19.992188 140.28125 19.769531 C 140.488281 19.539063 140.804688 19.25 141.144531 18.867188 C 141.234375 18.964844 141.523438 19.242188 141.964844 19.671875 Z M 143.984375 19.480469 C 143.789063 19.730469 143.550781 20.054688 143.179688 20.398438 C 142.773438 20.074219 142.507813 19.820313 142.296875 19.570313 C 142.359375 19.472656 142.679688 19.183594 143.160156 18.671875 C 143.246094 18.769531 143.539063 19.054688 143.984375 19.480469 Z M 142.179688 20.71875 Z M 142.113281 18.34375 Z M 142.179688 20.585938 L 142.179688 20.585938" />
  <path d="M 131.398438 26.230469 C 131.324219 26.230469 131.289063 26.191406 131.289063 26.117188 L 131.289063 25.320313 C 131.257813 25.21875 131.324219 25.210938 131.398438 25.210938 C 132.238281 25.183594 132.964844 25.164063 133.578125 25.070313 C 134.167969 24.960938 134.746094 24.816406 135.242188 24.59375 C 135.804688 24.320313 136.261719 24.183594 136.582031 24.117188 C 136.207031 23.925781 135.890625 23.75 135.554688 23.503906 C 135.1875 23.222656 134.914063 23.0625 134.679688 22.957031 C 134.421875 22.839844 134.214844 22.796875 133.984375 22.796875 C 133.527344 22.773438 133.171875 22.90625 132.832031 23.121094 L 132.519531 23.320313 C 132.382813 23.15625 132.320313 23.015625 132.320313 22.796875 C 132.3125 22.4375 132.46875 22.1875 132.765625 21.984375 C 133.039063 21.761719 133.453125 21.675781 133.9375 21.675781 C 134.214844 21.660156 134.511719 21.730469 134.796875 21.84375 C 135.050781 21.949219 135.421875 22.140625 135.808594 22.40625 C 136.269531 22.699219 136.664063 22.96875 136.992188 23.132813 C 137.289063 23.296875 137.648438 23.414063 137.980469 23.488281 C 138.285156 23.542969 138.804688 23.601563 139.460938 23.601563 L 138.949219 24.59375 C 138.503906 24.550781 138.140625 24.53125 137.804688 24.476563 L 137.71875 24.484375 L 137.773438 24.566406 C 137.902344 24.816406 138.164063 25.003906 138.476563 25.085938 C 138.765625 25.148438 139.441406 25.210938 140.429688 25.210938 C 140.496094 25.183594 140.546875 25.246094 140.546875 25.320313 L 140.546875 26.117188 C 140.53125 26.164063 140.507813 26.230469 140.429688 26.230469 C 139.753906 26.226563 139.230469 26.175781 138.824219 26.078125 C 138.410156 25.96875 138.085938 25.832031 137.828125 25.625 C 137.5625 25.386719 137.335938 25.085938 137.121094 24.632813 L 136.777344 24.789063 L 135.679688 25.367188 C 134.984375 25.699219 134.410156 25.941406 133.871094 26.058594 C 133.308594 26.164063 132.507813 26.230469 131.398438 26.230469 Z M 135.730469 21.023438 Z M 135.664063 26.621094 Z M 135.664063 26.925781 Z M 136.523438 27.945313 C 136.304688 28.242188 136.027344 28.574219 135.660156 28.925781 C 135.257813 28.59375 134.953125 28.335938 134.699219 28.050781 C 135.066406 27.652344 135.410156 27.328125 135.632813 27.070313 C 135.933594 27.390625 136.238281 27.699219 136.523438 27.945313 Z M 135.628906 28.050781 Z M 135.632813 26.9375 Z M 135.660156 29.058594 Z M 135.632813 26.742188 L 135.632813 26.742188" />
  <path d="M127.683594 28.953125C127.367188 28.945313 127.03125 28.859375 126.585938 28.679688 126.109375 28.480469 125.796875 28.304688 125.558594 28.09375L125.746094 27.65625C126.210938 27.8125 126.769531 27.90625 127.378906 27.90625 127.90625 27.878906 128.421875 27.769531 128.851563 27.496094 129.265625 27.203125 129.644531 26.796875 129.9375 26.210938 129.050781 26.152344 128.410156 26.105469 127.976563 25.988281 127.515625 25.851563 127.222656 25.683594 127.015625 25.429688 126.804688 25.140625 126.710938 24.828125 126.710938 24.390625 126.707031 23.917969 126.800781 23.488281 126.984375 23.042969 127.140625 22.59375 127.40625 22.242188 127.703125 21.972656 128 21.6875 128.300781 21.5625 128.601563 21.5625 128.964844 21.554688 129.308594 21.730469 129.628906 22.0625 129.9375 22.382813 130.203125 22.847656 130.398438 23.425781 130.5625 23.972656 130.691406 24.578125 130.691406 25.148438L130.691406 25.210938 131.492188 25.210938C131.535156 25.183594 131.601563 25.246094 131.601563 25.320313L131.601563 26.117188C131.601563 26.164063 131.5625 26.230469 131.492188 26.230469L130.546875 26.230469C130.402344 26.738281 130.207031 27.207031 129.917969 27.632813 129.621094 28.058594 129.289063 28.386719 128.902344 28.609375 128.511719 28.8125 128.105469 28.953125 127.683594 28.953125zM128.390625 22.703125C128.175781 22.679688 128.023438 22.773438 127.839844 22.914063 127.640625 23.027344 127.503906 23.234375 127.390625 23.441406 127.246094 23.648438 127.21875 23.84375 127.21875 24.011719 127.214844 24.300781 127.34375 24.5625 127.59375 24.726563 127.808594 24.855469 128.203125 25.011719 128.679688 25.097656 128.714844 25.089844 128.808594 25.121094 128.882813 25.132813 128.933594 25.140625 129.382813 25.160156 130.152344 25.195313 130.023438 24.476563 129.816406 23.90625 129.476563 23.425781 129.109375 22.910156 128.773438 22.703125 128.390625 22.703125zM128.339844 20.914063zM128.011719 29.605469zM128.46875 19.101563L128.46875 19.101563M120.5 26.230469C120.425781 26.230469 120.390625 26.191406 120.390625 26.117188L120.390625 25.320313C120.359375 25.21875 120.425781 25.210938 120.5 25.210938 121.15625 25.183594 121.789063 25.164063 122.398438 25.074219 122.972656 24.972656 123.464844 24.867188 123.777344 24.71875 123.660156 24.332031 123.523438 23.871094 123.292969 23.246094 123.09375 22.777344 123.039063 22.484375 123.039063 22.351563 123.027344 22.148438 123.117188 21.953125 123.277344 21.75 123.410156 21.535156 123.648438 21.367188 123.914063 21.21875 123.949219 21.449219 124.003906 21.738281 124.0625 21.996094 124.101563 22.230469 124.175781 22.507813 124.230469 22.757813 124.273438 22.996094 124.324219 23.242188 124.363281 23.476563 124.378906 23.691406 124.417969 23.925781 124.417969 24.128906 124.414063 24.4375 124.265625 24.894531 123.953125 25.492188 123.570313 25.691406 123.078125 25.890625 122.433594 26.027344 121.773438 26.128906 121.140625 26.230469 120.5 26.230469zM123.078125 20.566406zM122.855469 26.621094zM122.855469 26.925781zM122.734375 27.910156C122.5625 28.140625 122.308594 28.472656 121.941406 28.828125 121.527344 28.472656 121.246094 28.230469 121.054688 28.011719 121.269531 27.765625 121.574219 27.492188 121.914063 27.105469 121.988281 27.164063 122.269531 27.457031 122.734375 27.910156zM124.757813 27.722656C124.574219 27.945313 124.328125 28.277344 123.953125 28.632813 123.546875 28.320313 123.269531 28.050781 123.066406 27.8125 123.246094 27.601563 123.554688 27.328125 123.929688 26.910156 124 26.972656 124.285156 27.269531 124.757813 27.722656zM122.910156 27.949219zM122.882813 26.910156zM122.921875 28.957031L122.921875 28.957031" />
  <path d="M120.570313 26.230469C119.441406 26.230469 118.546875 26.050781 117.8125 25.695313 117.367188 25.835938 116.804688 25.984375 116.101563 26.082031 115.402344 26.164063 114.632813 26.230469 113.792969 26.230469 111.507813 26.230469 110.410156 25.46875 110.410156 23.945313 110.40625 23.386719 110.46875 22.902344 110.59375 22.472656L111.078125 22.472656C111.015625 22.683594 111.023438 22.917969 111.023438 23.136719 111.015625 23.679688 111.125 24.089844 111.328125 24.367188 111.523438 24.628906 111.855469 24.851563 112.304688 24.992188 112.75 25.117188 113.34375 25.210938 114.078125 25.210938 114.90625 25.183594 115.734375 25.132813 116.480469 24.980469 116.289063 24.792969 116.183594 24.617188 116.089844 24.40625 115.964844 24.164063 115.945313 23.984375 115.945313 23.78125 115.929688 23.570313 115.96875 23.328125 116.023438 23.007813 116.066406 22.660156 116.128906 22.480469 116.1875 22.382813 116.394531 21.9375 116.722656 21.617188 117.09375 21.367188 117.433594 21.105469 117.867188 20.992188 118.304688 20.992188 118.535156 20.972656 118.761719 21.109375 118.976563 21.339844 119.171875 21.570313 119.371094 21.878906 119.507813 22.253906 119.636719 22.625 119.707031 23.011719 119.707031 23.398438 119.703125 24.027344 119.449219 24.609375 118.933594 25.066406 119.441406 25.148438 119.996094 25.210938 120.570313 25.210938 120.621094 25.183594 120.679688 25.246094 120.679688 25.320313L120.679688 26.117188C120.652344 26.164063 120.644531 26.230469 120.570313 26.230469zM119.183594 23.800781C119.132813 23.554688 119.09375 23.34375 118.980469 23.089844 118.839844 22.816406 118.730469 22.613281 118.566406 22.421875 118.382813 22.199219 118.277344 22.136719 118.179688 22.136719 117.902344 22.132813 117.628906 22.285156 117.28125 22.589844 116.90625 22.871094 116.65625 23.25 116.445313 23.65625 116.792969 24.066406 117.222656 24.402344 117.691406 24.640625 118.289063 24.398438 118.816406 24.121094 119.183594 23.800781zM117.800781 20.335938zM117.789063 26.621094zM117.789063 26.925781zM118.652344 19.226563C118.425781 19.496094 118.152344 19.851563 117.789063 20.207031 117.359375 19.867188 117.070313 19.601563 116.828125 19.335938 117.273438 18.875 117.59375 18.550781 117.761719 18.355469 118.023438 18.65625 118.34375 18.953125 118.652344 19.226563zM117.789063 20.339844zM117.761719 18.027344L117.761719 18.027344M104.90625 21.765625L104.90625 22.605469C104.902344 23.445313 104.875 24.640625 104.816406 26.117188L104.199219 26.230469C104.144531 23.097656 104.023438 20.496094 103.835938 18.433594L103.828125 18.261719C103.816406 17.96875 103.898438 17.753906 104.039063 17.585938 104.167969 17.398438 104.40625 17.304688 104.710938 17.242188 104.71875 17.296875 104.734375 17.351563 104.746094 17.398438 104.746094 17.425781 104.90625 17.925781 105.1875 18.832031L104.828125 19.140625 104.835938 19.203125C104.871094 20.140625 104.90625 21.019531 104.90625 21.765625zM104.4375 16.589844zM104.558594 26.925781L104.558594 26.925781M99.886719 26.230469C99.78125 26.230469 99.769531 26.191406 99.769531 26.117188L99.769531 25.320313C99.746094 25.21875 99.808594 25.210938 99.886719 25.210938 100.398438 25.183594 100.921875 25.09375 101.371094 24.855469 101.164063 22.476563 100.964844 20.195313 100.699219 17.988281 100.921875 17.707031 101.253906 17.476563 101.59375 17.242188 101.605469 18.199219 101.710938 19.464844 101.8125 21.03125 101.890625 22.335938 101.941406 23.46875 101.953125 24.425781 101.9375 24.546875 101.910156 24.777344 101.820313 25.03125 101.722656 25.28125 101.617188 25.523438 101.484375 25.765625 101.292969 26.0625 100.789063 26.230469 99.886719 26.230469zM100.960938 16.589844zM101.507813 26.621094zM101.507813 26.925781L101.507813 26.925781" />
  <path d="M 91 26.230469 C 90.925781 26.230469 90.890625 26.191406 90.890625 26.117188 L 90.890625 25.320313 C 90.859375 25.21875 90.925781 25.210938 91 25.210938 C 91.835938 25.183594 92.5625 25.164063 93.179688 25.070313 C 93.769531 24.960938 94.347656 24.816406 94.839844 24.59375 C 95.402344 24.320313 95.863281 24.183594 96.179688 24.117188 C 95.804688 23.925781 95.492188 23.75 95.15625 23.503906 C 94.789063 23.222656 94.515625 23.0625 94.28125 22.957031 C 94.019531 22.839844 93.816406 22.796875 93.585938 22.796875 C 93.128906 22.773438 92.773438 22.90625 92.433594 23.121094 L 92.117188 23.320313 C 91.980469 23.15625 91.921875 23.015625 91.921875 22.796875 C 91.914063 22.4375 92.070313 22.1875 92.367188 21.984375 C 92.640625 21.761719 93.054688 21.675781 93.539063 21.675781 C 93.8125 21.660156 94.113281 21.730469 94.398438 21.84375 C 94.652344 21.949219 95.023438 22.140625 95.410156 22.40625 C 95.867188 22.699219 96.265625 22.96875 96.59375 23.132813 C 96.886719 23.296875 97.25 23.414063 97.578125 23.488281 C 97.886719 23.542969 98.40625 23.601563 99.058594 23.601563 L 98.546875 24.59375 C 98.105469 24.550781 97.738281 24.53125 97.40625 24.476563 L 97.320313 24.484375 L 97.371094 24.566406 C 97.503906 24.816406 97.761719 25.003906 98.078125 25.085938 C 98.367188 25.148438 99.042969 25.210938 100.027344 25.210938 C 100.097656 25.183594 100.144531 25.246094 100.144531 25.320313 L 100.144531 26.117188 C 100.128906 26.164063 100.105469 26.230469 100.027344 26.230469 C 99.355469 26.226563 98.828125 26.175781 98.421875 26.078125 C 98.011719 25.96875 97.6875 25.832031 97.429688 25.625 C 97.164063 25.386719 96.9375 25.085938 96.722656 24.632813 L 96.375 24.789063 L 95.28125 25.367188 C 94.585938 25.699219 94.007813 25.941406 93.46875 26.058594 C 92.90625 26.164063 92.109375 26.230469 91 26.230469 Z M 95.332031 21.023438 Z M 95.265625 26.621094 Z M 95.265625 26.925781 Z M 96.121094 27.945313 C 95.90625 28.242188 95.625 28.574219 95.261719 28.925781 C 94.855469 28.59375 94.554688 28.335938 94.296875 28.050781 C 94.667969 27.652344 95.011719 27.328125 95.234375 27.070313 C 95.53125 27.390625 95.839844 27.699219 96.121094 27.945313 Z M 95.226563 28.050781 Z M 95.234375 26.9375 Z M 95.261719 29.058594 Z M 95.234375 26.742188 L 95.234375 26.742188" />
  <path d="M 91.09375 26.230469 C 90.714844 26.230469 90.402344 26.164063 90.058594 26.03125 C 89.695313 25.898438 89.425781 25.722656 89.191406 25.503906 L 89 25.871094 C 88.929688 25.960938 88.777344 26.0625 88.539063 26.128906 C 88.289063 26.164063 88.0625 26.230469 87.816406 26.230469 C 87.414063 26.230469 87.0625 26.117188 86.746094 25.890625 C 86.65625 25.960938 86.496094 26.058594 86.214844 26.121094 C 85.929688 26.15625 85.574219 26.222656 85.128906 26.230469 C 84.863281 26.230469 84.578125 26.1875 84.25 26.105469 C 83.902344 25.996094 83.664063 25.925781 83.488281 25.816406 C 83.332031 25.914063 83.171875 26.046875 82.921875 26.117188 C 82.667969 26.164063 82.402344 26.230469 82.101563 26.230469 C 82.027344 26.230469 81.988281 26.191406 81.988281 26.117188 L 81.988281 25.320313 C 81.960938 25.21875 82.027344 25.210938 82.101563 25.210938 C 82.347656 25.183594 82.554688 25.1875 82.71875 25.140625 C 82.875 25.09375 83.039063 25.015625 83.1875 24.902344 C 83.269531 24.785156 83.382813 24.730469 83.4375 24.664063 C 83.480469 24.585938 83.648438 24.351563 83.898438 23.933594 C 83.976563 23.789063 84.113281 23.71875 84.3125 23.71875 C 84.425781 23.6875 84.539063 23.75 84.640625 23.816406 C 84.347656 24.46875 84.175781 24.902344 84.082031 25.039063 C 84.121094 25.066406 84.292969 25.105469 84.515625 25.148438 C 84.730469 25.183594 84.988281 25.210938 85.273438 25.210938 C 85.667969 25.183594 86.042969 25.164063 86.328125 25.070313 C 86.371094 24.976563 86.429688 24.863281 86.484375 24.691406 C 86.683594 23.910156 86.867188 23.460938 86.957031 23.28125 C 87.027344 23.078125 87.132813 22.980469 87.21875 22.929688 C 87.296875 22.878906 87.398438 22.851563 87.503906 22.851563 C 87.621094 22.847656 87.726563 22.886719 87.816406 22.953125 C 87.691406 23.203125 87.515625 23.730469 87.273438 24.515625 L 87.125 25.007813 C 87.25 25.046875 87.375 25.117188 87.476563 25.140625 C 87.550781 25.160156 87.695313 25.175781 87.835938 25.175781 C 88.042969 25.160156 88.300781 25.128906 88.578125 25.03125 C 88.621094 24.921875 88.773438 24.601563 88.960938 24.070313 C 89.015625 23.835938 89.113281 23.640625 89.191406 23.445313 C 89.238281 23.242188 89.347656 23.082031 89.421875 22.945313 C 89.492188 22.804688 89.636719 22.742188 89.839844 22.742188 C 89.953125 22.738281 90.070313 22.773438 90.160156 22.839844 C 90.019531 23.132813 89.816406 23.769531 89.492188 24.738281 L 89.703125 24.863281 C 90.105469 25.082031 90.570313 25.210938 91.09375 25.210938 C 91.136719 25.183594 91.207031 25.246094 91.207031 25.320313 L 91.207031 26.117188 C 91.203125 26.164063 91.167969 26.230469 91.09375 26.230469 Z M 86.789063 21.808594 Z M 86.554688 26.621094 Z M 86.554688 26.925781 L 86.554688 26.925781" />
  <path d="M76.476563 24.542969C76.519531 25.285156 76.6875 26.351563 76.910156 27.734375L77.21875 29.816406C76.949219 29.984375 76.65625 30.179688 76.320313 30.320313 76.257813 29.269531 76.175781 28.25 76.058594 27.171875 75.941406 26.289063 75.910156 25.574219 75.910156 24.984375 75.90625 24.863281 75.933594 24.746094 75.984375 24.585938 76.007813 24.402344 76.167969 24.109375 76.382813 23.652344 76.378906 23.582031 76.601563 23.425781 76.964844 23.15625 77.308594 22.875 77.703125 22.632813 78.085938 22.402344 78.441406 22.148438 78.816406 21.992188 79.117188 21.867188 79.414063 21.726563 79.664063 21.675781 79.847656 21.675781 80.003906 21.660156 80.1875 21.8125 80.351563 22.089844 80.5 22.347656 80.714844 22.820313 80.945313 23.441406 81.152344 24.050781 81.375 24.5 81.570313 24.785156 81.742188 25.050781 81.96875 25.210938 82.183594 25.210938 82.253906 25.183594 82.332031 25.257813 82.332031 25.347656L82.332031 26.085938C82.320313 26.164063 82.28125 26.230469 82.183594 26.230469 81.710938 26.230469 81.332031 26.035156 80.964844 25.648438L80.796875 26.230469C79.84375 26.230469 79.074219 26.085938 78.382813 25.792969 77.664063 25.480469 77.347656 25.121094 77.347656 24.660156 77.332031 24.367188 77.429688 24.070313 77.597656 23.738281 77.152344 24.015625 76.808594 24.285156 76.476563 24.542969zM79.875 22.695313C79.476563 22.863281 79.136719 23.140625 78.785156 23.46875 78.40625 23.78125 78.1875 24.101563 78.046875 24.386719 78.617188 24.859375 79.519531 25.183594 80.703125 25.300781 80.503906 24.96875 80.328125 24.601563 80.175781 24.128906 79.996094 23.621094 79.921875 23.175781 79.875 22.695313zM78.695313 21.023438zM79.71875 26.621094zM79.523438 27.539063L79.523438 27.539063M70.40625 21.765625L70.40625 22.605469C70.402344 23.445313 70.375 24.640625 70.316406 26.117188L69.699219 26.230469C69.644531 23.097656 69.523438 20.496094 69.335938 18.433594L69.328125 18.261719C69.316406 17.96875 69.398438 17.753906 69.539063 17.585938 69.667969 17.398438 69.90625 17.304688 70.210938 17.242188 70.21875 17.296875 70.234375 17.351563 70.25 17.398438 70.246094 17.425781 70.40625 17.925781 70.6875 18.832031L70.328125 19.140625 70.335938 19.203125C70.371094 20.140625 70.40625 21.019531 70.40625 21.765625zM69.9375 16.589844zM70.058594 26.925781L70.058594 26.925781M63.132813 26.230469C63.101563 26.230469 63.101563 26.183594 63.101563 26.085938 63.101563 25.945313 63.125 25.789063 63.175781 25.558594 63.199219 25.316406 63.265625 25.210938 63.300781 25.210938L63.582031 25.210938C64.148438 24.722656 64.617188 24.378906 64.90625 24.105469 65.191406 23.808594 65.46875 23.523438 65.734375 23.183594 65.320313 22.703125 64.878906 22.277344 64.382813 21.859375 63.855469 21.429688 63.394531 21.09375 62.910156 20.8125L62.417969 20.847656C62.179688 20.628906 62.019531 20.4375 61.917969 20.261719 61.808594 20.074219 61.765625 19.894531 61.765625 19.695313 61.742188 19.539063 61.792969 19.429688 61.847656 19.300781 61.890625 19.148438 62.03125 19.054688 62.222656 18.953125 62.585938 19.203125 63.019531 19.542969 63.5 19.945313 63.984375 20.34375 64.429688 20.75 64.84375 21.148438 65.242188 21.535156 65.679688 22.003906 66.121094 22.527344L66.140625 22.472656C66.285156 22.121094 66.378906 21.769531 66.378906 21.382813 66.351563 20.992188 66.28125 20.183594 66.082031 18.902344 65.960938 18.269531 65.9375 17.941406 65.9375 17.851563 65.925781 17.394531 66.238281 17.121094 66.835938 17.011719L67.070313 17.855469 67.3125 18.601563 66.953125 18.910156 66.972656 19.191406 67.050781 21.109375C67.03125 21.765625 66.878906 22.460938 66.53125 23.109375 66.800781 23.527344 67.050781 23.96875 67.25 24.355469 67.429688 24.734375 67.546875 24.988281 67.546875 25.097656 67.53125 25.21875 67.492188 25.425781 67.386719 25.652344 67.25 25.867188 67.195313 25.996094 67.132813 26.007813 66.289063 26.128906 64.96875 26.230469 63.132813 26.230469zM67.015625 24.945313C66.820313 24.585938 66.542969 24.171875 66.167969 23.691406 65.761719 24.203125 65.269531 24.722656 64.628906 25.183594 65.40625 25.140625 66.210938 25.078125 67.015625 24.945313zM66.324219 16.359375zM62.15625 18.300781zM66.511719 26.925781zM64.007813 26.925781zM62.417969 16.882813L62.425781 16.828125C62.417969 16.792969 62.40625 16.753906 62.375 16.714844 62.316406 16.648438 62.300781 16.660156 62.253906 16.660156 62.097656 16.648438 61.988281 16.710938 61.875 16.8125 61.738281 16.882813 61.679688 17.027344 61.625 17.164063 61.757813 17.332031 61.976563 17.433594 62.261719 17.433594 62.402344 17.429688 62.644531 17.402344 62.921875 17.347656L62.898438 17.859375C62.492188 17.945313 62.222656 18.050781 61.984375 18.148438 61.71875 18.242188 61.496094 18.367188 61.242188 18.503906L61.207031 17.988281 61.738281 17.6875C61.398438 17.609375 61.246094 17.449219 61.246094 17.148438 61.230469 16.890625 61.351563 16.660156 61.5625 16.433594 61.753906 16.207031 62 16.097656 62.234375 16.097656 62.574219 16.074219 62.757813 16.261719 62.757813 16.59375 62.738281 16.691406 62.726563 16.832031 62.667969 16.953125zM62.191406 18.316406zM62.058594 15.769531L62.058594 15.769531M55.53125 26.230469C55.261719 26.230469 54.976563 26.1875 54.648438 26.105469 54.304688 25.996094 54.066406 25.925781 53.886719 25.816406 53.730469 25.914063 53.574219 26.046875 53.324219 26.117188 53.066406 26.164063 52.800781 26.230469 52.5 26.230469 52.425781 26.230469 52.390625 26.191406 52.390625 26.117188L52.390625 25.320313C52.359375 25.21875 52.425781 25.210938 52.5 25.210938 52.75 25.183594 52.957031 25.1875 53.117188 25.140625 53.277344 25.09375 53.4375 25.015625 53.585938 24.902344 53.671875 24.785156 53.78125 24.730469 53.835938 24.664063 53.878906 24.585938 54.046875 24.351563 54.300781 23.933594 54.378906 23.789063 54.515625 23.71875 54.710938 23.71875 54.824219 23.6875 54.9375 23.75 55.039063 23.816406 54.746094 24.46875 54.574219 24.902344 54.484375 25.039063 54.519531 25.066406 54.691406 25.105469 54.914063 25.148438 55.132813 25.183594 55.390625 25.210938 55.671875 25.210938 56.066406 25.183594 56.441406 25.164063 56.726563 25.070313 56.769531 24.976563 56.832031 24.863281 56.882813 24.691406 57.082031 23.910156 57.269531 23.460938 57.359375 23.28125 57.429688 23.078125 57.535156 22.980469 57.617188 22.929688 57.695313 22.878906 57.796875 22.851563 57.902344 22.851563 58.019531 22.847656 58.125 22.886719 58.21875 22.953125 58.082031 23.222656 57.890625 23.796875 57.632813 24.652344L57.976563 24.796875C58.554688 25.027344 59.253906 25.175781 59.996094 25.175781 59.855469 24.753906 59.71875 24.28125 59.492188 23.703125 59.28125 23.222656 59.226563 22.945313 59.226563 22.800781 59.214844 22.582031 59.304688 22.40625 59.460938 22.210938 59.597656 21.984375 59.832031 21.832031 60.109375 21.675781 60.144531 21.929688 60.253906 22.457031 60.429688 23.207031 60.554688 23.769531 60.632813 24.253906 60.632813 24.582031 60.621094 24.722656 60.578125 24.992188 60.46875 25.339844 60.335938 25.683594 60.242188 25.984375 60.113281 26.230469 59.535156 26.230469 59.042969 26.191406 58.625 26.109375 58.195313 26.003906 57.753906 25.875 57.277344 25.652344L57.160156 25.871094C57.082031 25.953125 56.933594 26.046875 56.652344 26.117188 56.351563 26.15625 55.996094 26.222656 55.53125 26.230469zM57.046875 21.808594zM57.007813 26.621094zM57.007813 26.925781L57.007813 26.925781" />
  <path d="M48.785156 28.953125C48.46875 28.945313 48.128906 28.859375 47.683594 28.679688 47.210938 28.480469 46.898438 28.304688 46.65625 28.09375L46.847656 27.65625C47.3125 27.8125 47.871094 27.90625 48.476563 27.90625 49.003906 27.878906 49.523438 27.769531 49.953125 27.496094 50.363281 27.203125 50.742188 26.796875 51.035156 26.210938 50.152344 26.152344 49.507813 26.105469 49.074219 25.988281 48.617188 25.851563 48.324219 25.683594 48.117188 25.429688 47.90625 25.140625 47.808594 24.828125 47.808594 24.390625 47.804688 23.917969 47.902344 23.488281 48.085938 23.042969 48.238281 22.59375 48.507813 22.242188 48.804688 21.972656 49.097656 21.6875 49.398438 21.5625 49.699219 21.5625 50.066406 21.554688 50.410156 21.730469 50.726563 22.0625 51.035156 22.382813 51.300781 22.847656 51.5 23.425781 51.660156 23.972656 51.792969 24.578125 51.792969 25.148438L51.792969 25.210938 52.589844 25.210938C52.632813 25.183594 52.703125 25.246094 52.703125 25.320313L52.703125 26.117188C52.699219 26.164063 52.664063 26.230469 52.589844 26.230469L51.648438 26.230469C51.503906 26.738281 51.308594 27.207031 51.019531 27.632813 50.722656 28.058594 50.390625 28.386719 50 28.609375 49.613281 28.8125 49.207031 28.953125 48.785156 28.953125zM49.492188 22.703125C49.277344 22.679688 49.121094 22.773438 48.9375 22.914063 48.742188 23.027344 48.605469 23.234375 48.492188 23.441406 48.347656 23.648438 48.320313 23.84375 48.320313 24.011719 48.3125 24.300781 48.445313 24.5625 48.691406 24.726563 48.910156 24.855469 49.304688 25.011719 49.78125 25.097656 49.8125 25.089844 49.90625 25.121094 49.984375 25.132813 50.03125 25.140625 50.484375 25.160156 51.25 25.195313 51.125 24.476563 50.917969 23.90625 50.578125 23.425781 50.210938 22.910156 49.875 22.703125 49.492188 22.703125zM49.4375 20.914063zM49.109375 29.605469zM49.570313 19.101563L49.570313 19.101563M42.695313 26.230469C42.117188 26.230469 41.738281 26.15625 41.46875 26.007813 41.171875 25.832031 41.058594 25.648438 41.058594 25.378906 41.039063 25.074219 41.136719 24.855469 41.292969 24.671875 41.484375 24.84375 41.769531 24.992188 42.054688 25.078125 42.324219 25.148438 42.695313 25.210938 43.117188 25.210938 43.707031 25.183594 44.320313 25.117188 44.9375 24.933594 44.785156 24.535156 44.613281 24.128906 44.382813 23.703125L43.921875 22.867188C43.78125 22.617188 43.691406 22.433594 43.640625 22.273438 43.570313 22.097656 43.558594 21.945313 43.558594 21.78125 43.539063 21.328125 43.792969 21.050781 44.265625 20.890625 44.378906 21.238281 44.542969 21.605469 44.695313 21.933594 44.816406 22.261719 44.988281 22.574219 45.121094 22.859375 45.246094 23.140625 45.359375 23.417969 45.449219 23.664063 45.519531 23.902344 45.578125 24.140625 45.578125 24.347656 45.554688 24.472656 45.539063 24.664063 45.453125 24.914063 45.355469 25.132813 45.257813 25.421875 45.109375 25.707031 44.457031 26.03125 43.652344 26.230469 42.695313 26.230469zM43.53125 20.238281zM43.472656 26.621094zM43.472656 26.925781L43.472656 26.925781" />
  <path d="M 828.671875 156.253125 L 2525.117188 1579.76875" transform="matrix(.1 0 0 -.1 0 220.93)" fill="none" stroke-width="7.97" stroke-linejoin="round" stroke="#e14b3b" stroke-miterlimit="10" />
  <path d="M 79.894531 207.796875 L 85.433594 205.855469 L 82.710938 205.433594 L 82.769531 202.679688" fill="#e14b3b" />
  <path d="M 798.945313 131.33125 L 854.335938 150.745313 L 827.109375 154.964063 L 827.695313 182.503125 Z M 798.945313 131.33125" transform="matrix(.1 0 0 -.1 0 220.93)" fill="none" stroke-width="8.006" stroke="#e14b3b" stroke-miterlimit="10" />
  <path d="M279.359375 52.300781L279.359375 53C279.339844 53.699219 279.335938 54.699219 279.285156 55.9375L278.769531 56.03125C278.699219 53.410156 278.621094 51.238281 278.464844 49.511719L278.460938 49.367188C278.4375 49.117188 278.519531 48.941406 278.636719 48.804688 278.742188 48.640625 278.941406 48.566406 279.195313 48.515625 279.175781 48.535156 279.21875 48.605469 279.230469 48.648438 279.230469 48.679688 279.363281 49.085938 279.597656 49.84375L279.296875 50.101563 279.300781 50.15625C279.339844 50.949219 279.359375 51.671875 279.359375 52.300781zM278.96875 47.96875zM279.070313 56.609375L279.070313 56.609375M275.1875 56.03125C275.09375 56.03125 275.089844 56 275.089844 55.9375L275.089844 55.269531C275.0625 55.195313 275.121094 55.175781 275.1875 55.175781 275.609375 55.160156 276.054688 55.078125 276.429688 54.882813 276.269531 52.882813 276.089844 50.984375 275.867188 49.140625 276.058594 48.917969 276.332031 48.714844 276.617188 48.515625 276.648438 49.289063 276.714844 50.371094 276.796875 51.683594 276.835938 52.757813 276.90625 53.722656 276.917969 54.519531 276.910156 54.617188 276.878906 54.816406 276.804688 55.027344 276.730469 55.203125 276.636719 55.441406 276.523438 55.640625 276.382813 55.898438 275.945313 56.03125 275.1875 56.03125zM276.085938 47.96875zM276.546875 56.359375zM276.546875 56.609375L276.546875 56.609375" />
  <path d="M 275.304688 56.03125 C 274.984375 56.03125 274.671875 55.96875 274.359375 55.839844 C 274.027344 55.707031 273.789063 55.542969 273.589844 55.335938 C 273.226563 55.550781 272.851563 55.71875 272.371094 55.84375 C 271.867188 55.964844 271.414063 56.03125 270.9375 56.03125 C 270.382813 56.03125 269.84375 55.972656 269.273438 55.855469 C 268.679688 55.730469 268.253906 55.585938 267.917969 55.398438 L 267.726563 55.617188 C 267.46875 55.863281 267.070313 56.03125 266.5 56.03125 C 266.4375 56.03125 266.40625 56 266.40625 55.9375 L 266.40625 55.269531 C 266.402344 55.195313 266.4375 55.175781 266.5 55.175781 C 266.835938 55.160156 267.101563 55.117188 267.296875 54.992188 C 267.464844 54.851563 267.695313 54.636719 267.894531 54.285156 L 268.070313 53.972656 C 268.121094 53.828125 268.265625 53.777344 268.425781 53.777344 C 268.523438 53.761719 268.617188 53.8125 268.6875 53.878906 C 268.503906 54.242188 268.421875 54.519531 268.355469 54.65625 C 268.519531 54.734375 268.722656 54.816406 268.914063 54.875 C 270.339844 52.964844 271.558594 52.03125 272.566406 52.03125 C 272.753906 52.03125 273.039063 52.117188 273.347656 52.289063 C 273.640625 52.441406 273.933594 52.679688 274.179688 52.949219 C 274.398438 53.214844 274.546875 53.457031 274.546875 53.660156 C 274.53125 54.101563 274.402344 54.515625 274.113281 54.871094 C 274.449219 55.0625 274.847656 55.175781 275.304688 55.175781 C 275.367188 55.160156 275.402344 55.207031 275.402344 55.269531 L 275.402344 55.9375 C 275.402344 55.996094 275.371094 56.03125 275.304688 56.03125 Z M 271.050781 55.175781 C 272.007813 55.160156 273.019531 54.859375 274.042969 54.21875 C 273.800781 53.796875 273.542969 53.519531 273.226563 53.300781 C 272.902344 53.054688 272.597656 52.96875 272.285156 52.96875 C 271.902344 52.953125 271.511719 53.140625 271.023438 53.484375 C 270.527344 53.808594 270.003906 54.339844 269.429688 55.011719 C 270.003906 55.09375 270.554688 55.175781 271.050781 55.175781 Z M 271.046875 51.484375 Z M 271.945313 56.359375 Z M 271.945313 56.609375 Z M 271.769531 50.59375 C 271.570313 50.824219 271.355469 51.121094 271.046875 51.414063 C 270.699219 51.125 270.449219 50.910156 270.242188 50.6875 C 270.613281 50.285156 270.886719 50.03125 271.027344 49.867188 C 271.253906 50.113281 271.511719 50.367188 271.769531 50.59375 Z M 271.046875 51.523438 Z M 271.027344 49.59375 L 271.027344 49.59375" />
  <path d="M263.460938 58.304688C263.199219 58.28125 262.914063 58.230469 262.542969 58.078125 262.15625 57.910156 261.882813 57.765625 261.683594 57.589844L261.84375 57.222656C262.230469 57.328125 262.695313 57.429688 263.203125 57.429688 263.664063 57.429688 264.078125 57.316406 264.4375 57.089844 264.78125 56.839844 265.097656 56.503906 265.34375 56.011719 264.597656 55.960938 264.066406 55.925781 263.703125 55.828125 263.339844 55.695313 263.074219 55.574219 262.902344 55.359375 262.730469 55.136719 262.644531 54.855469 262.644531 54.492188 262.628906 54.09375 262.722656 53.738281 262.875 53.367188 263.003906 52.980469 263.230469 52.695313 263.476563 52.46875 263.699219 52.230469 263.972656 52.128906 264.226563 52.128906 264.523438 52.128906 264.820313 52.269531 265.085938 52.546875 265.324219 52.816406 265.566406 53.203125 265.730469 53.6875 265.882813 54.152344 265.976563 54.648438 265.976563 55.128906L265.976563 55.175781 266.644531 55.175781C266.691406 55.160156 266.734375 55.207031 266.734375 55.269531L266.734375 55.9375C266.722656 55.996094 266.703125 56.03125 266.644531 56.03125L265.855469 56.03125C265.726563 56.457031 265.570313 56.847656 265.328125 57.203125 265.074219 57.535156 264.800781 57.832031 264.476563 58.019531 264.128906 58.179688 263.8125 58.304688 263.460938 58.304688zM264.050781 53.082031C263.882813 53.0625 263.742188 53.140625 263.589844 53.261719 263.402344 53.367188 263.308594 53.523438 263.214844 53.699219 263.113281 53.851563 263.070313 54.035156 263.070313 54.175781 263.046875 54.421875 263.175781 54.636719 263.382813 54.773438 263.5625 54.890625 263.894531 55.011719 264.292969 55.082031 264.3125 55.078125 264.398438 55.105469 264.464844 55.109375 264.507813 55.09375 264.878906 55.136719 265.523438 55.164063 265.425781 54.570313 265.242188 54.089844 264.960938 53.6875 264.65625 53.265625 264.371094 53.082031 264.050781 53.082031zM264.007813 51.582031zM263.734375 58.851563zM264.117188 50.070313L264.117188 50.070313M257.007813 55.976563C257.261719 55.851563 257.558594 55.757813 257.882813 55.648438L258.03125 55.597656C258.007813 55.566406 258.007813 55.582031 257.996094 55.570313 257.859375 55.484375 257.800781 55.417969 257.722656 55.328125 257.640625 55.203125 257.589844 55.140625 257.546875 55.042969 257.492188 54.9375 257.488281 54.839844 257.488281 54.734375 257.460938 54.542969 257.53125 54.34375 257.617188 54.132813 257.695313 53.921875 257.820313 53.726563 257.96875 53.546875 258.097656 53.363281 258.292969 53.21875 258.492188 53.101563 258.660156 52.960938 258.902344 52.929688 259.128906 52.929688 259.246094 52.894531 259.375 52.945313 259.480469 52.976563 259.5625 52.996094 259.683594 53.0625 259.765625 53.132813 259.824219 53.199219 259.90625 53.285156 259.949219 53.390625 259.976563 53.476563 260.015625 53.617188 260.015625 53.761719 260.011719 53.835938 260.003906 53.933594 259.980469 54.023438 259.929688 54.082031 259.921875 54.195313 259.878906 54.261719 259.78125 54.230469 259.753906 54.21875 259.707031 54.199219 259.65625 54.15625 259.605469 54.152344 259.546875 54.121094 259.578125 54.023438 259.621094 53.972656 259.636719 53.867188L259.636719 53.84375C259.597656 53.8125 259.554688 53.789063 259.472656 53.761719 259.347656 53.722656 259.269531 53.714844 259.171875 53.714844 259.035156 53.6875 258.949219 53.734375 258.84375 53.765625 258.722656 53.785156 258.625 53.847656 258.515625 53.90625 258.398438 53.945313 258.296875 54.042969 258.195313 54.132813 258.058594 54.21875 258 54.320313 257.914063 54.433594 257.96875 54.566406 258.046875 54.6875 258.132813 54.789063 258.210938 54.871094 258.328125 54.976563 258.457031 55.050781 258.566406 55.117188 258.730469 55.183594 258.898438 55.234375 258.96875 55.257813 259.039063 55.277344 259.113281 55.296875 259.199219 55.25 259.300781 55.246094 259.40625 55.222656 259.589844 55.140625 259.773438 55.132813 259.964844 55.097656 260.128906 55.039063 260.328125 55.03125 260.503906 55.003906 260.671875 54.949219 260.816406 54.953125 260.929688 54.945313 261.027344 55.066406 261.09375 55.199219 261.09375 55.328125 261.0625 55.496094 261.039063 55.628906 260.9375 55.71875 260.820313 55.78125 260.710938 55.863281 260.566406 55.878906 260.316406 55.878906 260.132813 55.910156 259.953125 55.929688 259.757813 55.910156 259.609375 55.964844 259.453125 55.980469 259.277344 55.980469 259.140625 56.019531 258.992188 56.046875 258.8125 56.066406 258.679688 56.101563 258.507813 56.140625 258.328125 56.171875 258.136719 56.21875 257.917969 56.269531 257.695313 56.308594 257.449219 56.378906 257.160156 56.445313zM259.054688 56.992188zM258.703125 52.382813L258.703125 52.382813M252.5625 52.300781L252.5625 53C252.539063 53.699219 252.535156 54.699219 252.484375 55.9375L251.96875 56.03125C251.898438 53.410156 251.820313 51.238281 251.664063 49.511719L251.660156 49.367188C251.640625 49.117188 251.71875 48.941406 251.835938 48.804688 251.941406 48.640625 252.140625 48.566406 252.398438 48.515625 252.375 48.535156 252.417969 48.605469 252.429688 48.648438 252.429688 48.679688 252.5625 49.085938 252.796875 49.84375L252.496094 50.101563 252.503906 50.15625C252.539063 50.949219 252.5625 51.671875 252.5625 52.300781zM252.167969 47.96875zM252.273438 56.609375L252.273438 56.609375M248.390625 56.03125C248.292969 56.03125 248.289063 56 248.289063 55.9375L248.289063 55.269531C248.261719 55.195313 248.324219 55.175781 248.390625 55.175781 248.8125 55.160156 249.253906 55.078125 249.632813 54.882813 249.46875 52.882813 249.289063 50.984375 249.066406 49.140625 249.261719 48.917969 249.53125 48.714844 249.816406 48.515625 249.847656 49.289063 249.914063 50.371094 249.996094 51.683594 250.035156 52.757813 250.105469 53.722656 250.117188 54.519531 250.109375 54.617188 250.078125 54.816406 250.003906 55.027344 249.929688 55.203125 249.835938 55.441406 249.722656 55.640625 249.582031 55.898438 249.144531 56.03125 248.390625 56.03125zM249.285156 47.96875zM249.746094 56.359375zM249.746094 56.609375L249.746094 56.609375" />
  <path d="M 248.519531 56.03125 C 248.222656 56.03125 247.9375 55.976563 247.652344 55.863281 C 247.347656 55.742188 247.125 55.605469 246.929688 55.421875 L 246.769531 55.726563 C 246.6875 55.78125 246.582031 55.890625 246.382813 55.945313 C 246.15625 55.996094 245.984375 56.03125 245.78125 56.03125 C 245.421875 56.03125 245.148438 55.933594 244.882813 55.746094 C 244.792969 55.816406 244.675781 55.886719 244.441406 55.9375 C 244.195313 55.988281 243.90625 56.023438 243.53125 56.03125 C 243.304688 56.03125 243.070313 55.996094 242.796875 55.925781 C 242.488281 55.824219 242.308594 55.777344 242.160156 55.683594 C 242.035156 55.773438 241.898438 55.875 241.6875 55.9375 C 241.453125 55.996094 241.253906 56.03125 241 56.03125 C 240.9375 56.03125 240.90625 56 240.90625 55.9375 L 240.90625 55.269531 C 240.902344 55.195313 240.9375 55.175781 241 55.175781 C 241.207031 55.160156 241.378906 55.15625 241.515625 55.117188 C 241.648438 55.050781 241.785156 55.015625 241.90625 54.917969 C 242 54.8125 242.074219 54.777344 242.117188 54.722656 C 242.15625 54.632813 242.292969 54.460938 242.503906 54.109375 C 242.570313 53.964844 242.683594 53.929688 242.847656 53.929688 C 242.929688 53.929688 243.039063 53.957031 243.121094 54.011719 C 242.882813 54.554688 242.734375 54.921875 242.65625 55.035156 C 242.691406 55.058594 242.832031 55.089844 243.015625 55.125 C 243.199219 55.128906 243.414063 55.175781 243.652344 55.175781 C 243.984375 55.160156 244.296875 55.140625 244.53125 55.0625 C 244.566406 54.980469 244.621094 54.886719 244.664063 54.742188 C 244.832031 54.105469 244.984375 53.714844 245.0625 53.5625 C 245.117188 53.398438 245.210938 53.3125 245.28125 53.269531 C 245.324219 53.214844 245.429688 53.207031 245.515625 53.207031 C 245.609375 53.183594 245.703125 53.234375 245.78125 53.289063 C 245.652344 53.484375 245.527344 53.941406 245.328125 54.597656 L 245.199219 55.007813 C 245.3125 55.035156 245.410156 55.101563 245.496094 55.117188 C 245.546875 55.109375 245.679688 55.148438 245.796875 55.148438 C 245.945313 55.140625 246.183594 55.109375 246.414063 55.027344 C 246.46875 54.90625 246.578125 54.671875 246.738281 54.226563 C 246.785156 54.007813 246.863281 53.863281 246.929688 53.699219 C 246.984375 53.511719 247.058594 53.398438 247.121094 53.285156 C 247.179688 53.152344 247.300781 53.113281 247.46875 53.113281 C 247.550781 53.085938 247.664063 53.140625 247.738281 53.195313 C 247.621094 53.421875 247.449219 53.972656 247.179688 54.78125 L 247.355469 54.886719 C 247.675781 55.0625 248.082031 55.175781 248.519531 55.175781 C 248.574219 55.160156 248.613281 55.207031 248.613281 55.269531 L 248.613281 55.9375 C 248.609375 55.996094 248.582031 56.03125 248.519531 56.03125 Z M 244.921875 52.332031 Z M 244.726563 56.359375 Z M 244.726563 56.609375 L 244.726563 56.609375" />
  <path d="M241.125 55.269531L241.125 55.9375C241.117188 55.996094 241.09375 56.03125 241.03125 56.03125 240.578125 56.03125 240.226563 55.945313 239.933594 55.769531 239.632813 55.582031 239.480469 55.359375 239.445313 55.058594 239.308594 54.09375 239.199219 52.625 239.0625 50.632813L238.953125 49.140625C239.144531 48.925781 239.414063 48.71875 239.707031 48.515625 239.757813 49.625 239.800781 51.261719 239.828125 53.34375L239.867188 54.886719C240.195313 55.0625 240.605469 55.175781 241.03125 55.175781 241.082031 55.160156 241.125 55.207031 241.125 55.269531zM239.367188 47.96875zM240.042969 56.609375L240.042969 56.609375M236.996094 54.574219C236.929688 54.253906 236.910156 53.976563 236.84375 53.695313 236.605469 53.867188 236.367188 54.039063 236.089844 54.148438 235.78125 54.253906 235.53125 54.3125 235.253906 54.3125 234.90625 54.285156 234.660156 54.1875 234.453125 53.941406 234.230469 53.6875 234.144531 53.382813 234.144531 53.003906 234.128906 52.40625 234.28125 51.929688 234.554688 51.492188 234.8125 51.03125 235.15625 50.835938 235.53125 50.835938 235.90625 50.832031 236.261719 50.972656 236.5625 51.25 236.839844 51.519531 237.097656 51.921875 237.273438 52.433594 237.421875 52.941406 237.535156 53.492188 237.535156 54.082031 237.523438 54.320313 237.402344 54.71875 237.140625 55.222656 236.675781 55.472656 236.183594 55.707031 235.621094 55.835938 235.050781 55.964844 234.320313 56.03125 233.410156 56.03125 233.339844 56.03125 233.304688 55.996094 233.304688 55.925781L233.304688 55.28125C233.304688 55.195313 233.339844 55.175781 233.410156 55.175781 234.214844 55.160156 234.898438 55.128906 235.457031 55.03125 235.996094 54.933594 236.527344 54.78125 236.996094 54.574219zM235.363281 51.785156C235.117188 51.765625 234.949219 51.890625 234.796875 52.097656 234.613281 52.277344 234.570313 52.53125 234.570313 52.785156 234.546875 53 234.644531 53.191406 234.796875 53.300781 234.914063 53.386719 235.191406 53.464844 235.523438 53.464844 235.878906 53.453125 236.28125 53.371094 236.703125 53.179688 236.554688 52.710938 236.371094 52.382813 236.140625 52.144531 235.902344 51.902344 235.65625 51.785156 235.363281 51.785156zM235.597656 50.289063zM235.9375 56.359375zM235.9375 56.609375zM235.425781 49.53125C235.28125 49.746094 235.070313 50.003906 234.765625 50.300781 234.40625 50.007813 234.179688 49.800781 234.019531 49.613281 234.210938 49.402344 234.457031 49.179688 234.742188 48.859375 234.816406 48.941406 235.058594 49.175781 235.425781 49.53125zM237.117188 49.375C236.972656 49.582031 236.753906 49.851563 236.445313 50.140625 236.109375 49.886719 235.878906 49.660156 235.703125 49.449219 235.78125 49.371094 236.023438 49.125 236.425781 48.695313 236.503906 48.769531 236.742188 49.015625 237.117188 49.375zM235.605469 50.40625zM235.550781 48.421875zM235.605469 50.300781L235.605469 50.300781" />
  <path d="M 233.476563 56.03125 C 233.132813 56.03125 232.84375 55.964844 232.53125 55.835938 C 232.207031 55.703125 231.964844 55.542969 231.773438 55.347656 C 231.414063 55.550781 231.039063 55.726563 230.570313 55.847656 C 230.078125 55.964844 229.625 56.03125 229.136719 56.03125 C 228.667969 56.03125 228.234375 56.015625 227.796875 55.988281 C 227.324219 55.941406 227.042969 55.929688 226.847656 55.890625 C 226.640625 55.835938 226.382813 55.746094 226.03125 55.566406 C 225.671875 55.375 225.394531 55.21875 225.175781 55.0625 L 225.289063 54.675781 L 226.601563 54.957031 L 226.984375 55.023438 C 227.175781 54.707031 227.421875 54.46875 227.636719 54.214844 L 227.308594 52.292969 C 227.214844 51.808594 227.128906 51.296875 227.042969 50.691406 C 226.945313 50.066406 226.914063 49.664063 226.914063 49.425781 C 226.910156 49.136719 226.972656 48.96875 227.082031 48.820313 C 227.164063 48.644531 227.382813 48.574219 227.652344 48.515625 C 227.726563 48.847656 227.839844 49.203125 227.945313 49.5 L 228.054688 49.84375 L 227.753906 50.101563 L 227.757813 50.148438 C 227.871094 51.425781 227.964844 52.148438 227.988281 52.300781 C 228.019531 52.738281 228.082031 53.230469 228.089844 53.703125 C 229.109375 52.5625 230.03125 52.03125 230.765625 52.03125 C 230.953125 52.03125 231.238281 52.117188 231.546875 52.289063 C 231.839844 52.441406 232.132813 52.679688 232.378906 52.949219 C 232.597656 53.214844 232.746094 53.457031 232.746094 53.660156 C 232.730469 54.113281 232.597656 54.53125 232.300781 54.882813 L 232.3125 54.886719 C 232.648438 55.0625 233.039063 55.175781 233.476563 55.175781 C 233.519531 55.160156 233.578125 55.207031 233.578125 55.269531 L 233.578125 55.9375 C 233.550781 55.996094 233.542969 56.03125 233.476563 56.03125 Z M 229.25 55.175781 C 230.207031 55.160156 231.222656 54.859375 232.242188 54.21875 C 232.003906 53.796875 231.742188 53.519531 231.425781 53.300781 C 231.101563 53.054688 230.796875 52.96875 230.484375 52.96875 C 230.089844 52.953125 229.675781 53.15625 229.164063 53.527344 C 228.628906 53.867188 228.113281 54.425781 227.5625 55.101563 C 228.101563 55.128906 228.683594 55.175781 229.25 55.175781 Z M 230.640625 51.15625 Z M 229.742188 56.359375 Z M 229.742188 56.71875 L 229.742188 56.71875" />
  <path d="M 790.195313 123.9875 L 123.984375 790.120313 L 923.320313 1722.659375 L 1722.65625 710.159375 L 1585.234375 435.315625" transform="matrix(.1 0 0 -.1 0 220.93)" fill="none" stroke-width="7.97" stroke-linejoin="round" stroke="#e14b3b" stroke-dasharray="29.8883,29.8883" stroke-miterlimit="10" />
  <path d="M 156.789063 180.867188 L 161.097656 176.882813 L 158.433594 177.578125 L 157.390625 175.03125" fill="#e14b3b" />
  <path d="M 1567.890625 400.628125 L 1610.976563 440.471875 L 1584.335938 433.51875 L 1573.90625 458.9875 Z M 1567.890625 400.628125" transform="matrix(.1 0 0 -.1 0 220.93)" fill="none" stroke-width="8.002" stroke="#e14b3b" stroke-miterlimit="10" />
</svg>