<svg width="268.76" height="309.627" viewBox="0 0 201.57 232.22" class="displayed_equation" xmlns="http://www.w3.org/2000/svg">
  <path d="M 173.125 609.348437 L 1815.390625 609.348437" transform="matrix(.1 0 0 -.1 0 232.22)" fill="none" stroke-width="9.646" stroke-linejoin="round" stroke="#000" stroke-dasharray="38.5859,38.5859" stroke-miterlimit="10" />
  <path d="M 185.234375 599.075 C 339.023438 739.504687 650.703125 835.6375 1010.195313 835.6375 C 1362.226563 835.6375 1668.398438 743.489062 1825.351563 607.825" transform="matrix(.1 0 0 -.1 0 232.22)" fill="none" stroke-width="9.646" stroke-linejoin="round" stroke="#7c24e7" stroke-miterlimit="10" />
  <path d="M 185.234375 606.379687 C 185.234375 606.379687 568.28125 1138.645312 1007.773438 606.379687 C 1007.773438 606.379687 1380.390625 78.684375 1827.460938 606.379687" transform="matrix(.1 0 0 -.1 0 232.22)" fill="none" stroke-width="9.646" stroke-linejoin="round" stroke="#59a3d9" stroke-miterlimit="10" />
  <path d="M 185.234375 609.426562 C 185.234375 609.426562 438.984375 1132.5125 734.0625 609.426562 C 734.0625 609.426562 974.335938 83.215625 1283.085938 609.426562 C 1283.085938 609.426562 1538.515625 1123.371875 1827.460938 609.426562" transform="matrix(.1 0 0 -.1 0 232.22)" fill="none" stroke-width="9.646" stroke-linejoin="round" stroke="#f2a21f" stroke-miterlimit="10" />
  <path d="M 1827.460938 1116.575 L 1827.460938 1828.215625 L 185.234375 1828.215625 L 185.234375 185.95 L 1827.460938 185.95 L 1827.460938 897.629687" transform="matrix(.1 0 0 -.1 0 232.22)" fill="none" stroke-width="9.646" stroke-linejoin="round" stroke="#000" stroke-miterlimit="10" />
  <path d="M165.507813 23.558594L165.507813 24.394531C165.503906 25.234375 165.476563 26.429688 165.414063 27.910156L164.800781 28.019531C164.742188 24.886719 164.621094 22.289063 164.433594 20.222656L164.425781 20.054688C164.417969 19.757813 164.496094 19.542969 164.640625 19.375 164.769531 19.1875 165.003906 19.09375 165.3125 19.03125 165.320313 19.085938 165.335938 19.140625 165.347656 19.1875 165.347656 19.214844 165.507813 19.714844 165.789063 20.621094L165.429688 20.929688 165.433594 20.996094C165.472656 21.929688 165.507813 22.808594 165.507813 23.558594zM165.035156 18.378906zM165.160156 28.714844zM165.21875 16.972656L165.226563 16.921875C165.214844 16.882813 165.207031 16.84375 165.175781 16.804688 165.117188 16.738281 165.101563 16.75 165.054688 16.75 164.898438 16.738281 164.789063 16.800781 164.675781 16.902344 164.539063 16.972656 164.480469 17.117188 164.425781 17.253906 164.558594 17.421875 164.777344 17.523438 165.0625 17.523438 165.203125 17.519531 165.445313 17.492188 165.722656 17.4375L165.695313 17.949219C165.292969 18.035156 165.019531 18.140625 164.78125 18.238281 164.519531 18.332031 164.296875 18.457031 164.039063 18.59375L164.007813 18.078125 164.539063 17.777344C164.199219 17.699219 164.046875 17.539063 164.046875 17.238281 164.03125 16.980469 164.152344 16.75 164.363281 16.523438 164.554688 16.296875 164.800781 16.1875 165.035156 16.1875 165.371094 16.164063 165.558594 16.351563 165.558594 16.683594 165.539063 16.78125 165.527344 16.921875 165.46875 17.046875zM164.992188 18.40625zM164.859375 15.859375L164.859375 15.859375M159.699219 28.019531C159.625 28.019531 159.589844 27.984375 159.589844 27.910156L159.589844 27.109375C159.558594 27.007813 159.625 27 159.699219 27 160.105469 26.972656 160.519531 26.953125 160.949219 26.863281 161.359375 26.761719 161.75 26.65625 162.070313 26.507813 161.933594 26.066406 161.792969 25.605469 161.585938 25.035156 161.386719 24.570313 161.328125 24.277344 161.328125 24.140625 161.320313 23.9375 161.410156 23.742188 161.566406 23.539063 161.703125 23.328125 161.9375 23.15625 162.207031 23.007813 162.242188 23.230469 162.351563 23.773438 162.519531 24.546875 162.640625 25.125 162.710938 25.59375 162.710938 25.921875 162.707031 26.050781 162.667969 26.238281 162.585938 26.484375 162.472656 26.710938 162.386719 26.996094 162.238281 27.28125 161.402344 27.753906 160.566406 28.019531 159.699219 28.019531zM161.558594 22.355469zM161.402344 28.410156zM161.402344 28.714844zM162.453125 21.214844C162.226563 21.484375 161.953125 21.84375 161.589844 22.195313 161.164063 21.855469 160.871094 21.59375 160.628906 21.324219 161.074219 20.867188 161.398438 20.539063 161.5625 20.34375 161.824219 20.644531 162.144531 20.945313 162.453125 21.214844zM161.589844 22.328125zM161.5625 20.019531L161.5625 20.019531" />
  <path d="M 154.101563 28.019531 C 154.027344 28.019531 153.988281 27.984375 153.988281 27.910156 L 153.988281 27.109375 C 153.960938 27.007813 154.027344 27 154.101563 27 C 154.398438 26.972656 154.6875 26.953125 154.976563 26.863281 C 154.882813 26.722656 154.871094 26.597656 154.871094 26.449219 C 154.847656 26.070313 155.007813 25.644531 155.28125 25.148438 C 155.527344 24.640625 155.882813 24.246094 156.269531 23.933594 C 156.632813 23.617188 157.023438 23.464844 157.378906 23.464844 C 157.5 23.449219 157.660156 23.554688 157.78125 23.726563 C 157.878906 23.898438 158.023438 24.121094 158.136719 24.382813 C 158.238281 24.621094 158.363281 24.925781 158.46875 25.230469 C 158.554688 25.535156 158.695313 25.820313 158.820313 26.085938 C 158.9375 26.324219 159.078125 26.5625 159.222656 26.738281 C 159.359375 26.90625 159.527344 27 159.714844 27 C 159.808594 26.972656 159.863281 27.046875 159.863281 27.136719 L 159.863281 27.875 C 159.839844 27.953125 159.8125 28.019531 159.714844 28.019531 C 159.253906 28.019531 158.851563 27.824219 158.492188 27.429688 L 158.328125 28.019531 C 157.464844 28.019531 156.703125 27.890625 156.023438 27.628906 L 155.992188 27.621094 C 155.53125 27.777344 155.214844 27.882813 154.9375 27.9375 C 154.648438 27.988281 154.382813 28.019531 154.101563 28.019531 Z M 157.40625 24.492188 C 157.066406 24.617188 156.714844 24.886719 156.339844 25.230469 C 155.953125 25.570313 155.714844 25.890625 155.578125 26.179688 C 156.132813 26.648438 157.042969 26.972656 158.234375 27.089844 C 158.03125 26.785156 157.871094 26.433594 157.71875 25.96875 C 157.558594 25.488281 157.460938 25.011719 157.40625 24.492188 Z M 156.710938 22.8125 Z M 157.601563 28.410156 Z M 157.339844 28.84375 L 157.339844 28.84375" />
  <path d="M154.320313 27.109375L154.320313 27.910156C154.3125 27.953125 154.28125 28.019531 154.207031 28.019531 153.675781 28.019531 153.242188 27.914063 152.894531 27.710938 152.515625 27.472656 152.351563 27.21875 152.308594 26.855469 152.164063 25.699219 152.011719 23.949219 151.851563 21.5625L151.71875 19.777344C151.964844 19.507813 152.269531 19.277344 152.621094 19.03125 152.675781 20.390625 152.734375 22.316406 152.765625 24.808594L152.8125 26.652344C153.226563 26.871094 153.695313 27 154.207031 27 154.277344 26.972656 154.320313 27.035156 154.320313 27.109375zM152.21875 18.378906zM153.023438 28.714844L153.023438 28.714844M145.703125 28.019531C145.160156 28.019531 144.628906 28.003906 144.101563 27.972656 143.578125 27.921875 143.203125 27.898438 142.972656 27.855469 142.714844 27.800781 142.414063 27.683594 141.992188 27.46875 141.539063 27.234375 141.230469 27.050781 140.96875 26.863281L141.105469 26.398438 142.675781 26.738281 143.132813 26.816406C143.386719 26.445313 143.65625 26.152344 143.914063 25.847656 143.328125 22.699219 143.042969 20.789063 143.042969 20.085938 143.027344 19.761719 143.113281 19.550781 143.257813 19.378906 143.378906 19.1875 143.621094 19.09375 143.933594 19.03125 144.03125 19.460938 144.15625 19.855469 144.28125 20.210938L144.410156 20.621094 144.050781 20.929688 144.292969 23.191406C144.347656 23.917969 144.429688 24.625 144.445313 25.246094L144.445313 25.253906C145.695313 23.898438 146.78125 23.238281 147.65625 23.238281 147.890625 23.230469 148.21875 23.339844 148.589844 23.546875 148.929688 23.742188 149.292969 24.015625 149.585938 24.335938 149.847656 24.652344 150.023438 24.941406 150.023438 25.1875 150.015625 25.714844 149.847656 26.222656 149.496094 26.644531 149.113281 27.058594 148.617188 27.398438 147.914063 27.648438 147.207031 27.886719 146.476563 28.019531 145.703125 28.019531zM145.84375 27C146.992188 26.972656 148.199219 26.617188 149.421875 25.855469 149.144531 25.371094 148.824219 25.015625 148.445313 24.753906 148.050781 24.476563 147.691406 24.355469 147.320313 24.355469 146.871094 24.34375 146.351563 24.578125 145.738281 25.027344 145.109375 25.472656 144.484375 26.101563 143.820313 26.90625 144.484375 26.941406 145.167969 27 145.84375 27zM147.511719 22.191406zM145.644531 28.410156zM145.644531 28.714844L145.644531 28.714844M135.804688 23.558594L135.804688 24.394531C135.804688 25.234375 135.777344 26.429688 135.714844 27.910156L135.101563 28.019531C135.042969 24.886719 134.921875 22.289063 134.734375 20.222656L134.726563 20.054688C134.71875 19.757813 134.796875 19.542969 134.9375 19.375 135.070313 19.1875 135.304688 19.09375 135.609375 19.03125 135.621094 19.085938 135.636719 19.140625 135.648438 19.1875 135.644531 19.214844 135.808594 19.714844 136.089844 20.621094L135.726563 20.929688 135.734375 20.996094C135.769531 21.929688 135.804688 22.808594 135.804688 23.558594zM135.335938 18.378906zM135.460938 28.714844L135.460938 28.714844M130.789063 28.019531C130.679688 28.019531 130.667969 27.984375 130.667969 27.910156L130.667969 27.109375C130.644531 27.007813 130.710938 27 130.789063 27 131.300781 26.972656 131.824219 26.882813 132.273438 26.648438 132.0625 24.265625 131.863281 21.984375 131.597656 19.777344 131.824219 19.496094 132.15625 19.265625 132.496094 19.03125 132.507813 19.988281 132.609375 21.253906 132.710938 22.820313 132.789063 24.128906 132.839844 25.257813 132.855469 26.214844 132.835938 26.335938 132.808594 26.570313 132.71875 26.820313 132.625 27.070313 132.519531 27.316406 132.382813 27.554688 132.195313 27.855469 131.6875 28.019531 130.789063 28.019531zM131.859375 18.378906zM132.410156 28.410156zM132.410156 28.714844L132.410156 28.714844" />
  <path d="M 129.578125 24.972656 C 129.675781 24.953125 129.808594 25.007813 129.90625 25.074219 C 129.742188 25.445313 129.601563 25.789063 129.480469 26.050781 C 129.332031 26.300781 129.285156 26.460938 129.257813 26.488281 C 129.539063 26.65625 129.839844 26.8125 130.097656 26.890625 C 130.324219 26.941406 130.640625 27 130.945313 27 C 131.003906 26.972656 131.058594 27.035156 131.058594 27.109375 L 131.058594 27.910156 C 131.039063 27.953125 131.019531 28.019531 130.945313 28.019531 C 130.105469 28.019531 129.414063 27.761719 128.828125 27.242188 L 128.609375 27.527344 C 128.515625 27.625 128.195313 27.734375 127.640625 27.851563 C 127.070313 27.953125 126.535156 28.019531 126 28.019531 C 125.925781 28.019531 125.890625 27.984375 125.890625 27.910156 L 125.890625 27.109375 C 125.859375 27.007813 125.925781 27 126 27 C 126.554688 26.972656 127.023438 26.976563 127.410156 26.929688 C 127.792969 26.878906 128.070313 26.800781 128.226563 26.6875 C 128.378906 26.550781 128.621094 26.214844 128.929688 25.617188 L 129.167969 25.1875 C 129.222656 25.019531 129.382813 24.972656 129.578125 24.972656 Z M 128.898438 24.316406 Z M 128.53125 28.410156 Z M 128.53125 28.714844 Z M 128.664063 23.359375 C 128.480469 23.605469 128.238281 23.921875 127.871094 24.273438 C 127.445313 23.933594 127.171875 23.679688 126.980469 23.457031 C 127.1875 23.226563 127.503906 22.941406 127.84375 22.554688 C 127.933594 22.652344 128.222656 22.933594 128.664063 23.359375 Z M 130.683594 23.171875 C 130.492188 23.417969 130.25 23.742188 129.878906 24.085938 C 129.472656 23.761719 129.207031 23.511719 128.996094 23.261719 C 129.058594 23.160156 129.378906 22.875 129.859375 22.359375 C 129.945313 22.460938 130.238281 22.742188 130.683594 23.171875 Z M 128.878906 24.40625 Z M 128.8125 22.03125 Z M 128.878906 24.273438 L 128.878906 24.273438" />
  <path d="M 117 28.019531 C 116.925781 28.019531 116.890625 27.984375 116.890625 27.910156 L 116.890625 27.109375 C 116.859375 27.007813 116.925781 27 117 27 C 117.839844 26.972656 118.5625 26.953125 119.179688 26.859375 C 119.769531 26.753906 120.347656 26.605469 120.839844 26.382813 C 121.402344 26.109375 121.863281 25.972656 122.179688 25.90625 C 121.804688 25.714844 121.492188 25.539063 121.15625 25.292969 C 120.789063 25.011719 120.515625 24.851563 120.28125 24.746094 C 120.019531 24.632813 119.816406 24.585938 119.585938 24.585938 C 119.128906 24.5625 118.773438 24.695313 118.433594 24.910156 L 118.117188 25.109375 C 117.980469 24.949219 117.921875 24.804688 117.921875 24.585938 C 117.914063 24.226563 118.070313 23.980469 118.367188 23.773438 C 118.640625 23.550781 119.054688 23.464844 119.539063 23.464844 C 119.8125 23.449219 120.113281 23.519531 120.398438 23.632813 C 120.652344 23.738281 121.023438 23.933594 121.410156 24.199219 C 121.867188 24.492188 122.265625 24.757813 122.59375 24.921875 C 122.886719 25.085938 123.246094 25.203125 123.578125 25.277344 C 123.886719 25.335938 124.40625 25.390625 125.058594 25.390625 L 124.546875 26.382813 C 124.105469 26.339844 123.738281 26.324219 123.40625 26.265625 L 123.320313 26.273438 L 123.371094 26.355469 C 123.503906 26.605469 123.761719 26.792969 124.078125 26.875 C 124.367188 26.941406 125.039063 27 126.027344 27 C 126.097656 26.972656 126.144531 27.035156 126.144531 27.109375 L 126.144531 27.910156 C 126.128906 27.953125 126.105469 28.019531 126.027344 28.019531 C 125.355469 28.015625 124.828125 27.964844 124.421875 27.871094 C 124.011719 27.757813 123.6875 27.621094 123.429688 27.414063 C 123.164063 27.175781 122.9375 26.878906 122.722656 26.421875 L 122.378906 26.582031 L 121.28125 27.15625 C 120.585938 27.488281 120.007813 27.730469 119.46875 27.847656 C 118.90625 27.953125 118.109375 28.019531 117 28.019531 Z M 121.332031 22.8125 Z M 121.265625 28.410156 Z M 121.265625 28.714844 Z M 122.121094 29.734375 C 121.90625 30.03125 121.628906 30.363281 121.261719 30.71875 C 120.855469 30.382813 120.554688 30.125 120.296875 29.839844 C 120.664063 29.441406 121.011719 29.121094 121.234375 28.859375 C 121.53125 29.183594 121.839844 29.488281 122.121094 29.734375 Z M 121.226563 29.839844 Z M 121.234375 28.726563 Z M 121.261719 30.847656 Z M 121.234375 28.53125 L 121.234375 28.53125" />
  <path d="M113.285156 30.742188C112.96875 30.734375 112.628906 30.652344 112.183594 30.46875 111.710938 30.273438 111.398438 30.09375 111.15625 29.882813L111.347656 29.445313C111.8125 29.601563 112.371094 29.695313 112.976563 29.695313 113.503906 29.671875 114.023438 29.558594 114.453125 29.285156 114.863281 28.992188 115.242188 28.585938 115.535156 28 114.652344 27.941406 114.007813 27.894531 113.574219 27.777344 113.117188 27.640625 112.820313 27.472656 112.617188 27.21875 112.40625 26.929688 112.308594 26.617188 112.308594 26.179688 112.304688 25.707031 112.402344 25.277344 112.585938 24.835938 112.738281 24.386719 113.007813 24.03125 113.304688 23.761719 113.597656 23.476563 113.898438 23.355469 114.199219 23.355469 114.566406 23.34375 114.910156 23.519531 115.226563 23.851563 115.535156 24.171875 115.800781 24.640625 115.996094 25.21875 116.160156 25.761719 116.292969 26.367188 116.292969 26.941406L116.292969 27 117.089844 27C117.132813 26.972656 117.203125 27.035156 117.203125 27.109375L117.203125 27.910156C117.199219 27.953125 117.164063 28.019531 117.089844 28.019531L116.148438 28.019531C116.003906 28.53125 115.808594 28.996094 115.519531 29.421875 115.222656 29.847656 114.890625 30.175781 114.503906 30.402344 114.113281 30.601563 113.707031 30.742188 113.285156 30.742188zM113.992188 24.492188C113.777344 24.46875 113.621094 24.566406 113.4375 24.707031 113.242188 24.820313 113.105469 25.023438 112.992188 25.230469 112.847656 25.4375 112.820313 25.632813 112.820313 25.800781 112.8125 26.089844 112.945313 26.355469 113.191406 26.515625 113.410156 26.644531 113.804688 26.800781 114.28125 26.890625 114.3125 26.878906 114.40625 26.910156 114.484375 26.921875 114.53125 26.929688 114.984375 26.949219 115.753906 26.984375 115.625 26.265625 115.417969 25.699219 115.078125 25.21875 114.710938 24.703125 114.375 24.492188 113.992188 24.492188zM113.9375 22.703125zM113.609375 31.398438zM114.070313 20.890625L114.070313 20.890625M106.101563 28.019531C106.027344 28.019531 105.988281 27.984375 105.988281 27.910156L105.988281 27.109375C105.960938 27.007813 106.027344 27 106.101563 27 106.757813 26.972656 107.390625 26.953125 107.996094 26.863281 108.570313 26.761719 109.0625 26.65625 109.378906 26.507813 109.261719 26.121094 109.125 25.660156 108.894531 25.035156 108.691406 24.570313 108.640625 24.277344 108.640625 24.140625 108.625 23.9375 108.71875 23.742188 108.878906 23.539063 109.011719 23.328125 109.25 23.15625 109.515625 23.007813 109.550781 23.242188 109.605469 23.53125 109.664063 23.785156 109.699219 24.023438 109.777344 24.296875 109.828125 24.546875 109.871094 24.785156 109.925781 25.035156 109.964844 25.265625 109.980469 25.480469 110.019531 25.714844 110.019531 25.921875 110.011719 26.230469 109.863281 26.683594 109.554688 27.28125 109.171875 27.480469 108.679688 27.683594 108.03125 27.816406 107.375 27.921875 106.742188 28.019531 106.101563 28.019531zM108.679688 22.355469zM108.457031 28.410156zM108.457031 28.714844zM108.335938 29.699219C108.160156 29.929688 107.910156 30.265625 107.542969 30.617188 107.128906 30.261719 106.84375 30.023438 106.652344 29.800781 106.871094 29.554688 107.175781 29.28125 107.515625 28.898438 107.589844 28.953125 107.867188 29.246094 108.335938 29.699219zM110.355469 29.511719C110.175781 29.734375 109.925781 30.066406 109.550781 30.421875 109.144531 30.109375 108.867188 29.839844 108.667969 29.601563 108.847656 29.394531 109.15625 29.121094 109.53125 28.699219 109.597656 28.761719 109.882813 29.058594 110.355469 29.511719zM108.511719 29.738281zM108.484375 28.699219zM108.523438 30.746094L108.523438 30.746094" />
  <path d="M106.167969 28.019531C105.042969 28.019531 104.148438 27.839844 103.414063 27.484375 102.96875 27.625 102.402344 27.773438 101.703125 27.871094 101.003906 27.953125 100.234375 28.019531 99.390625 28.019531 97.105469 28.019531 96.007813 27.257813 96.007813 25.738281 96.007813 25.175781 96.070313 24.691406 96.191406 24.265625L96.675781 24.265625C96.617188 24.472656 96.625 24.707031 96.625 24.925781 96.617188 25.46875 96.726563 25.882813 96.929688 26.15625 97.121094 26.417969 97.457031 26.640625 97.902344 26.785156 98.351563 26.90625 98.941406 27 99.679688 27 100.507813 26.972656 101.335938 26.921875 102.078125 26.769531 101.886719 26.585938 101.78125 26.410156 101.6875 26.195313 101.5625 25.957031 101.542969 25.773438 101.542969 25.574219 101.527344 25.359375 101.570313 25.117188 101.621094 24.796875 101.664063 24.449219 101.730469 24.269531 101.785156 24.171875 101.992188 23.726563 102.324219 23.40625 102.695313 23.15625 103.035156 22.894531 103.46875 22.78125 103.90625 22.78125 104.132813 22.761719 104.359375 22.898438 104.578125 23.132813 104.769531 23.359375 104.972656 23.667969 105.105469 24.046875 105.238281 24.414063 105.304688 24.804688 105.304688 25.1875 105.304688 25.820313 105.046875 26.398438 104.53125 26.855469 105.039063 26.941406 105.597656 27 106.167969 27 106.21875 26.972656 106.28125 27.035156 106.28125 27.109375L106.28125 27.910156C106.253906 27.953125 106.242188 28.019531 106.167969 28.019531zM104.78125 25.59375C104.734375 25.347656 104.691406 25.132813 104.578125 24.878906 104.4375 24.605469 104.328125 24.402344 104.167969 24.210938 103.984375 23.988281 103.878906 23.925781 103.78125 23.925781 103.5 23.921875 103.226563 24.074219 102.882813 24.378906 102.507813 24.664063 102.257813 25.039063 102.046875 25.449219 102.394531 25.855469 102.824219 26.195313 103.289063 26.429688 103.886719 26.1875 104.414063 25.910156 104.78125 25.59375zM103.402344 22.125zM103.390625 28.410156zM103.390625 28.714844zM104.253906 21.015625C104.023438 21.285156 103.753906 21.644531 103.386719 21.996094 102.960938 21.65625 102.671875 21.394531 102.425781 21.125 102.875 20.664063 103.195313 20.339844 103.359375 20.144531 103.625 20.445313 103.941406 20.746094 104.253906 21.015625zM103.386719 22.128906zM103.359375 19.816406L103.359375 19.816406M90.507813 23.558594L90.507813 24.394531C90.503906 25.234375 90.476563 26.429688 90.414063 27.910156L89.800781 28.019531C89.742188 24.886719 89.621094 22.289063 89.433594 20.222656L89.425781 20.054688C89.417969 19.757813 89.496094 19.542969 89.640625 19.375 89.769531 19.1875 90.003906 19.09375 90.3125 19.03125 90.320313 19.085938 90.335938 19.140625 90.347656 19.1875 90.34375 19.214844 90.507813 19.714844 90.789063 20.621094L90.429688 20.929688 90.433594 20.996094C90.46875 21.929688 90.507813 22.808594 90.507813 23.558594zM90.035156 18.378906zM90.160156 28.714844L90.160156 28.714844M85.585938 28.019531C85.480469 28.019531 85.46875 27.984375 85.46875 27.910156L85.46875 27.109375C85.445313 27.007813 85.507813 27 85.585938 27 86.097656 26.972656 86.621094 26.882813 87.070313 26.648438 86.863281 24.265625 86.664063 21.984375 86.398438 19.777344 86.621094 19.496094 86.953125 19.265625 87.296875 19.03125 87.304688 19.988281 87.410156 21.253906 87.511719 22.820313 87.589844 24.128906 87.640625 25.257813 87.65625 26.214844 87.636719 26.335938 87.609375 26.570313 87.519531 26.820313 87.421875 27.070313 87.316406 27.316406 87.183594 27.554688 86.992188 27.855469 86.488281 28.019531 85.585938 28.019531zM86.660156 18.378906zM87.210938 28.410156zM87.210938 28.714844L87.210938 28.714844" />
  <path d="M 80 28.019531 C 79.925781 28.019531 79.890625 27.984375 79.890625 27.910156 L 79.890625 27.109375 C 79.859375 27.007813 79.925781 27 80 27 C 80.296875 26.972656 80.589844 26.953125 80.875 26.863281 C 80.78125 26.722656 80.773438 26.597656 80.773438 26.449219 C 80.746094 26.070313 80.90625 25.644531 81.179688 25.148438 C 81.425781 24.640625 81.78125 24.246094 82.167969 23.933594 C 82.53125 23.617188 82.925781 23.464844 83.277344 23.464844 C 83.398438 23.449219 83.5625 23.554688 83.683594 23.726563 C 83.777344 23.898438 83.921875 24.121094 84.039063 24.382813 C 84.136719 24.621094 84.261719 24.925781 84.371094 25.230469 C 84.457031 25.535156 84.597656 25.820313 84.71875 26.085938 C 84.839844 26.324219 84.980469 26.5625 85.121094 26.738281 C 85.257813 26.90625 85.429688 27 85.613281 27 C 85.707031 26.972656 85.761719 27.046875 85.761719 27.136719 L 85.761719 27.875 C 85.742188 27.953125 85.710938 28.019531 85.613281 28.019531 C 85.15625 28.019531 84.753906 27.824219 84.390625 27.429688 L 84.226563 28.019531 C 83.363281 28.019531 82.601563 27.890625 81.921875 27.628906 L 81.890625 27.621094 C 81.433594 27.777344 81.113281 27.882813 80.835938 27.9375 C 80.550781 27.988281 80.28125 28.019531 80 28.019531 Z M 83.304688 24.492188 C 82.964844 24.617188 82.613281 24.886719 82.242188 25.230469 C 81.855469 25.570313 81.613281 25.890625 81.476563 26.179688 C 82.03125 26.648438 82.945313 26.972656 84.136719 27.089844 C 83.929688 26.785156 83.769531 26.433594 83.617188 25.96875 C 83.460938 25.488281 83.359375 25.011719 83.304688 24.492188 Z M 82.609375 22.8125 Z M 83.5 28.410156 Z M 83.238281 28.84375 L 83.238281 28.84375" />
  <path d="M 80.09375 28.019531 C 79.714844 28.019531 79.402344 27.953125 79.058594 27.820313 C 78.695313 27.6875 78.425781 27.511719 78.191406 27.292969 L 78 27.660156 C 77.929688 27.75 77.777344 27.851563 77.539063 27.917969 C 77.289063 27.953125 77.0625 28.019531 76.816406 28.019531 C 76.414063 28.019531 76.0625 27.90625 75.746094 27.679688 C 75.65625 27.75 75.496094 27.847656 75.214844 27.910156 C 74.929688 27.945313 74.574219 28.011719 74.128906 28.019531 C 73.863281 28.019531 73.578125 27.980469 73.25 27.898438 C 72.902344 27.789063 72.664063 27.71875 72.488281 27.605469 C 72.332031 27.707031 72.171875 27.835938 71.921875 27.910156 C 71.667969 27.953125 71.402344 28.019531 71.101563 28.019531 C 71.027344 28.019531 70.988281 27.984375 70.988281 27.910156 L 70.988281 27.109375 C 70.960938 27.007813 71.027344 27 71.101563 27 C 71.347656 26.972656 71.554688 26.976563 71.71875 26.929688 C 71.875 26.882813 72.039063 26.804688 72.1875 26.691406 C 72.269531 26.574219 72.382813 26.519531 72.4375 26.453125 C 72.480469 26.375 72.648438 26.140625 72.898438 25.722656 C 72.976563 25.578125 73.113281 25.507813 73.3125 25.507813 C 73.425781 25.480469 73.539063 25.539063 73.640625 25.605469 C 73.347656 26.257813 73.175781 26.695313 73.082031 26.828125 C 73.121094 26.855469 73.292969 26.894531 73.515625 26.9375 C 73.730469 26.972656 73.988281 27 74.273438 27 C 74.667969 26.972656 75.042969 26.953125 75.328125 26.863281 C 75.371094 26.765625 75.429688 26.652344 75.484375 26.480469 C 75.683594 25.703125 75.867188 25.253906 75.957031 25.070313 C 76.027344 24.871094 76.132813 24.769531 76.21875 24.71875 C 76.296875 24.667969 76.398438 24.644531 76.503906 24.644531 C 76.621094 24.636719 76.726563 24.675781 76.816406 24.742188 C 76.691406 24.992188 76.515625 25.519531 76.273438 26.304688 L 76.125 26.796875 C 76.25 26.835938 76.375 26.90625 76.476563 26.929688 C 76.550781 26.949219 76.695313 26.96875 76.835938 26.96875 C 77.042969 26.949219 77.300781 26.917969 77.578125 26.824219 C 77.621094 26.714844 77.773438 26.394531 77.960938 25.859375 C 78.015625 25.625 78.113281 25.429688 78.191406 25.234375 C 78.238281 25.03125 78.347656 24.871094 78.421875 24.734375 C 78.492188 24.59375 78.636719 24.53125 78.839844 24.53125 C 78.953125 24.527344 79.070313 24.566406 79.160156 24.632813 C 79.019531 24.925781 78.816406 25.558594 78.492188 26.527344 L 78.703125 26.652344 C 79.105469 26.871094 79.570313 27 80.09375 27 C 80.136719 26.972656 80.207031 27.035156 80.207031 27.109375 L 80.207031 27.910156 C 80.203125 27.953125 80.167969 28.019531 80.09375 28.019531 Z M 75.789063 23.597656 Z M 75.554688 28.410156 Z M 75.554688 28.714844 L 75.554688 28.714844" />
  <path d="M 65.601563 28.019531 C 65.527344 28.019531 65.488281 27.984375 65.488281 27.910156 L 65.488281 27.109375 C 65.460938 27.007813 65.527344 27 65.601563 27 C 65.898438 26.972656 66.1875 26.953125 66.476563 26.863281 C 66.382813 26.722656 66.371094 26.597656 66.371094 26.449219 C 66.347656 26.070313 66.507813 25.644531 66.78125 25.148438 C 67.027344 24.640625 67.382813 24.246094 67.769531 23.933594 C 68.132813 23.617188 68.523438 23.464844 68.878906 23.464844 C 69 23.449219 69.160156 23.554688 69.28125 23.726563 C 69.378906 23.898438 69.523438 24.121094 69.636719 24.382813 C 69.738281 24.621094 69.863281 24.925781 69.96875 25.230469 C 70.054688 25.535156 70.195313 25.820313 70.320313 26.085938 C 70.4375 26.324219 70.578125 26.5625 70.722656 26.738281 C 70.859375 26.90625 71.027344 27 71.210938 27 C 71.308594 26.972656 71.363281 27.046875 71.363281 27.136719 L 71.363281 27.875 C 71.339844 27.953125 71.3125 28.019531 71.210938 28.019531 C 70.753906 28.019531 70.351563 27.824219 69.992188 27.429688 L 69.828125 28.019531 C 68.960938 28.019531 68.203125 27.890625 67.523438 27.628906 L 67.492188 27.621094 C 67.03125 27.777344 66.710938 27.882813 66.4375 27.9375 C 66.148438 27.988281 65.882813 28.019531 65.601563 28.019531 Z M 68.90625 24.492188 C 68.566406 24.617188 68.214844 24.886719 67.839844 25.230469 C 67.453125 25.570313 67.214844 25.890625 67.078125 26.179688 C 67.632813 26.648438 68.542969 26.972656 69.734375 27.089844 C 69.53125 26.785156 69.371094 26.433594 69.21875 25.96875 C 69.058594 25.488281 68.960938 25.011719 68.90625 24.492188 Z M 68.210938 22.8125 Z M 69.101563 28.410156 Z M 68.839844 28.84375 L 68.839844 28.84375" />
  <path d="M61.882813 30.742188C61.570313 30.734375 61.230469 30.652344 60.785156 30.46875 60.3125 30.273438 59.996094 30.09375 59.757813 29.882813L59.949219 29.445313C60.410156 29.601563 60.96875 29.695313 61.578125 29.695313 62.105469 29.671875 62.621094 29.558594 63.050781 29.285156 63.464844 28.992188 63.84375 28.585938 64.136719 28 63.25 27.941406 62.609375 27.894531 62.175781 27.777344 61.714844 27.640625 61.421875 27.472656 61.21875 27.21875 61.007813 26.929688 60.910156 26.617188 60.910156 26.179688 60.90625 25.707031 61 25.277344 61.183594 24.835938 61.339844 24.386719 61.605469 24.03125 61.902344 23.761719 62.199219 23.476563 62.5 23.355469 62.800781 23.355469 63.167969 23.34375 63.507813 23.519531 63.828125 23.851563 64.136719 24.171875 64.402344 24.640625 64.597656 25.21875 64.761719 25.761719 64.890625 26.367188 64.890625 26.941406L64.890625 27 65.691406 27C65.734375 26.972656 65.800781 27.035156 65.800781 27.109375L65.800781 27.910156C65.800781 27.953125 65.765625 28.019531 65.691406 28.019531L64.75 28.019531C64.601563 28.53125 64.40625 28.996094 64.117188 29.421875 63.824219 29.847656 63.488281 30.175781 63.101563 30.402344 62.710938 30.601563 62.308594 30.742188 61.882813 30.742188zM62.589844 24.492188C62.378906 24.46875 62.222656 24.566406 62.039063 24.707031 61.839844 24.820313 61.703125 25.023438 61.589844 25.230469 61.445313 25.4375 61.421875 25.632813 61.421875 25.800781 61.414063 26.089844 61.542969 26.355469 61.792969 26.515625 62.011719 26.644531 62.402344 26.800781 62.878906 26.890625 62.914063 26.878906 63.007813 26.910156 63.085938 26.921875 63.132813 26.929688 63.582031 26.949219 64.351563 26.984375 64.226563 26.265625 64.015625 25.699219 63.675781 25.21875 63.3125 24.703125 62.976563 24.492188 62.589844 24.492188zM62.539063 22.703125zM62.210938 31.398438zM62.671875 20.890625L62.671875 20.890625M53.277344 24.035156C52.828125 24.03125 52.46875 24.144531 52.121094 24.363281L51.804688 24.554688C51.75 24.492188 51.707031 24.433594 51.667969 24.339844 51.605469 24.238281 51.609375 24.144531 51.609375 24.035156 51.605469 23.695313 51.761719 23.429688 52.0625 23.226563 52.339844 23.019531 52.753906 22.917969 53.234375 22.917969 53.605469 22.886719 53.992188 22.964844 54.363281 23.0625 54.714844 23.148438 55.105469 23.269531 55.480469 23.382813 55.828125 23.480469 56.234375 23.605469 56.617188 23.707031 56.996094 23.773438 57.402344 23.851563 57.816406 23.851563L58.027344 23.851563 58.695313 23.824219 58.3125 24.851563C58.042969 24.882813 57.796875 24.910156 57.5625 24.910156 56.984375 24.921875 56.402344 25.085938 55.757813 25.316406 55.097656 25.511719 54.550781 25.828125 54.0625 26.167969 53.554688 26.492188 53.195313 26.886719 52.925781 27.300781 52.648438 27.6875 52.523438 28.140625 52.523438 28.582031 52.515625 29.269531 52.777344 29.828125 53.277344 30.203125 53.753906 30.546875 54.539063 30.761719 55.5625 30.761719 56.644531 30.746094 57.757813 30.636719 58.835938 30.390625L58.988281 30.839844C58.304688 31.195313 57.722656 31.464844 57.160156 31.625 56.574219 31.785156 56.050781 31.867188 55.527344 31.867188 54.410156 31.851563 53.5625 31.585938 52.957031 31.023438 52.332031 30.460938 52.046875 29.648438 52.046875 28.582031 52.03125 28.003906 52.183594 27.472656 52.460938 26.925781 52.714844 26.375 53.113281 25.894531 53.597656 25.476563 54.050781 25.039063 54.601563 24.738281 55.15625 24.527344 55.082031 24.503906 54.863281 24.429688 54.453125 24.296875 54.027344 24.140625 53.769531 24.089844 53.632813 24.066406 53.480469 24.03125 53.375 24.035156 53.277344 24.035156zM55.28125 22.265625zM51.539063 31.535156zM55.679688 28.058594zM55.332031 32.523438L55.332031 32.523438M43.5 28.019531C43.425781 28.019531 43.390625 27.984375 43.390625 27.910156L43.390625 27.109375C43.359375 27.007813 43.425781 27 43.5 27 43.90625 26.972656 44.320313 26.953125 44.75 26.863281 45.160156 26.761719 45.550781 26.65625 45.867188 26.507813 45.730469 26.066406 45.59375 25.605469 45.382813 25.035156 45.1875 24.570313 45.128906 24.277344 45.128906 24.140625 45.121094 23.9375 45.207031 23.742188 45.367188 23.539063 45.503906 23.328125 45.738281 23.15625 46.007813 23.007813 46.042969 23.230469 46.152344 23.773438 46.320313 24.546875 46.441406 25.125 46.507813 25.59375 46.507813 25.921875 46.507813 26.050781 46.46875 26.238281 46.382813 26.484375 46.273438 26.710938 46.1875 26.996094 46.039063 27.28125 45.199219 27.753906 44.367188 28.019531 43.5 28.019531zM45.359375 22.355469zM45.203125 28.410156zM45.203125 28.714844zM46.125 29.734375C45.90625 30.03125 45.625 30.363281 45.261719 30.71875 44.855469 30.382813 44.554688 30.125 44.296875 29.839844 44.667969 29.441406 45.011719 29.121094 45.234375 28.859375 45.53125 29.183594 45.839844 29.488281 46.125 29.734375zM45.226563 29.839844zM45.234375 28.726563zM45.261719 30.847656zM45.234375 28.53125L45.234375 28.53125" />
  <path d="M 42.652344 28.113281 C 42.84375 28.171875 43.039063 28.339844 43.1875 28.523438 C 43.304688 28.703125 43.40625 28.886719 43.40625 29.0625 C 43.402344 29.171875 43.34375 29.410156 43.222656 29.734375 C 43.09375 30.050781 43.007813 30.257813 42.945313 30.335938 C 42.816406 30.453125 42.671875 30.558594 42.460938 30.636719 C 42.230469 30.710938 42.039063 30.753906 41.820313 30.753906 C 41.121094 30.742188 40.5625 30.546875 40.125 30.136719 C 39.679688 29.71875 39.40625 29.140625 39.289063 28.378906 L 38.78125 28.597656 L 38.636719 28.007813 L 38.398438 28.019531 C 38.328125 28.019531 38.289063 27.984375 38.289063 27.910156 L 38.289063 27.109375 C 38.257813 27.007813 38.328125 27 38.398438 27 L 39.015625 26.980469 L 39.277344 26.960938 C 39.433594 25.285156 40.296875 23.761719 41.789063 22.355469 L 42.265625 22.484375 C 42.273438 22.867188 42.375 23.414063 42.503906 24.0625 C 42.613281 24.648438 42.671875 25.089844 42.671875 25.34375 C 42.648438 25.730469 42.5625 26.085938 42.34375 26.390625 C 42.109375 26.671875 41.867188 26.933594 41.578125 27.097656 L 41.875 27.070313 C 42.320313 27.007813 42.914063 27 43.582031 27 C 43.652344 26.972656 43.730469 27.046875 43.730469 27.136719 L 43.730469 27.875 C 43.71875 27.953125 43.679688 28.019531 43.582031 28.019531 C 43.214844 28.019531 42.933594 28.050781 42.652344 28.113281 Z M 41.898438 26.21875 L 41.789063 25.546875 C 41.589844 24.6875 41.519531 24.078125 41.488281 23.695313 C 40.964844 24.367188 40.648438 24.996094 40.445313 25.5 C 40.226563 25.980469 40.121094 26.511719 40.085938 27.011719 C 40.378906 26.945313 40.722656 26.890625 41.039063 26.75 C 41.34375 26.601563 41.644531 26.433594 41.898438 26.21875 Z M 41.933594 29.8125 C 42.074219 29.78125 42.246094 29.78125 42.417969 29.71875 C 42.582031 29.621094 42.722656 29.566406 42.824219 29.460938 C 42.703125 29.058594 42.445313 28.734375 42.03125 28.449219 C 41.605469 28.152344 41.167969 28.019531 40.691406 28.019531 C 40.585938 28.019531 40.441406 28.046875 40.167969 28.097656 C 40.285156 28.648438 40.527344 29.105469 40.835938 29.386719 C 41.128906 29.648438 41.503906 29.8125 41.933594 29.8125 Z M 41.476563 21.699219 Z M 41.796875 31.410156 L 41.796875 31.410156" />
  <path d="M 38.617188 27.109375 L 38.617188 27.910156 C 38.613281 27.953125 38.582031 28.019531 38.507813 28.019531 C 37.976563 28.019531 37.542969 27.914063 37.195313 27.710938 C 36.816406 27.472656 36.652344 27.21875 36.609375 26.855469 C 36.460938 25.699219 36.3125 23.949219 36.152344 21.5625 L 36.019531 19.777344 C 36.261719 19.507813 36.570313 19.277344 36.921875 19.03125 C 36.976563 20.390625 37.03125 22.316406 37.066406 24.808594 L 37.113281 26.652344 C 37.527344 26.871094 37.996094 27 38.507813 27 C 38.578125 26.972656 38.617188 27.035156 38.617188 27.109375 Z M 36.519531 18.378906 Z M 37.324219 28.714844 L 37.324219 28.714844" />
</svg>