<svg width="499.453" height="332.2" viewBox="0 0 374.59 249.15" class="displayed_equation" xmlns="http://www.w3.org/2000/svg">
  <defs>
    <clipPath id="svg185171248319tikz_00004a">
      <path d="M 76 15.738281 L 357 15.738281 L 357 229 L 76 229 Z M 76 15.738281" />
    </clipPath>
    <clipPath id="svg185171248319tikz_00004b">
      <path d="M 280 15.738281 L 287 15.738281 L 287 23 L 280 23 Z M 280 15.738281" />
    </clipPath>
  </defs>
  <path d="M 356.355469 228.03125 L 356.355469 54.511719 L 122.832031 228.03125 Z M 356.355469 228.03125" fill="#f9f98c" />
  <path d="M 292.371094 58.640625 L 236.199219 58.640625 L 236.199219 99.992188 L 183.867188 99.992188 L 183.867188 144.886719 L 130.128906 144.886719 L 130.128906 187.34375 L 76.613281 187.34375 L 76.613281 228.03125 L 122.832031 228.03125 L 356.355469 54.511719 L 356.355469 16.179688 L 292.371094 16.179688 Z M 292.371094 58.640625" fill="#f9d358" />
  <g clip-path="url(#svg185171248319tikz_00004a)">
    <path d="M 3563.554688 2329.703125 L 2923.710938 2329.703125 L 2923.710938 1905.09375 L 2361.992188 1905.09375 L 2361.992188 1491.578125 L 1838.671875 1491.578125 L 1838.671875 1042.632813 L 1301.289063 1042.632813 L 1301.289063 618.0625 L 766.132813 618.0625 L 766.132813 211.1875" transform="matrix(.1 0 0 -.1 0 249.15)" fill="none" stroke-width="7.371" stroke="#000" stroke-miterlimit="10" />
  </g>
  <path d="M 18.304688 231.203125 L 356.277344 231.203125 L 356.277344 228.03125 L 18.304688 228.03125 Z M 18.304688 231.203125" />
  <path d="M 2838.203125 1955.953125 L 2838.203125 2285.445313" transform="matrix(.1 0 0 -.1 0 249.15)" fill="none" stroke-width="8.108" stroke="#000" stroke-miterlimit="10" />
  <path d="M 286.84375 51.269531 L 283.820313 52.519531 L 280.800781 51.269531 L 283.820313 58.347656 Z M 286.84375 51.269531" />
  <g clip-path="url(#svg185171248319tikz_00004b)">
    <path d="M 286.84375 22.890625 L 283.820313 21.5625 L 280.800781 22.890625 L 283.820313 15.738281 Z M 286.84375 22.890625" />
  </g>
  <path d="M 680.625 252.4375 L 680.625 581.96875" transform="matrix(.1 0 0 -.1 0 249.15)" fill="none" stroke-width="8.108" stroke="#000" stroke-miterlimit="10" />
  <path d="M71.011719 221.621094L68.0625 222.945313 65.039063 221.621094 68.0625 228.769531zM71.011719 193.238281L68.0625 191.984375 65.039063 193.238281 68.0625 186.164063zM71.011719 193.238281" />
  <path d="M 1296.875 1227.671875 C 1161.210938 1273.375 1012.304688 1193.023438 963.671875 1049.3125 C 954.84375 1023.492188 950.390625 996.96875 948.945313 970.40625" transform="matrix(.1 0 0 -.1 0 249.15)" fill="none" stroke-width="8.108" stroke="#000" stroke-dasharray="22.0328,22.0314" stroke-miterlimit="10" />
  <path d="M 91.945313 149.898438 L 95.039063 151.148438 L 97.988281 149.75 L 95.117188 156.972656 Z M 91.945313 149.898438" />
  <path d="M 1571.054688 1522.515625 C 1616.796875 1658.179688 1770.078125 1728.921875 1913.828125 1680.992188 C 1939.648438 1672.164063 1963.945313 1660.367188 1985.351563 1645.640625" transform="matrix(.1 0 0 -.1 0 249.15)" fill="none" stroke-width="8.108" stroke="#000" stroke-dasharray="22.0328,22.0314" stroke-miterlimit="10" />
  <path d="M 194.847656 85.617188 L 197.726563 84.070313 L 198.609375 80.902344 L 202.292969 87.683594 Z M 194.847656 85.617188" />
  <path d="M 1372.03125 1045.601563 L 1764.921875 1045.601563 L 1764.921875 1438.492188 L 1372.03125 1438.492188 Z M 1372.03125 1045.601563" transform="matrix(.1 0 0 -.1 0 249.15)" fill="#dc82e0" stroke-width="7.371" stroke="#000" stroke-miterlimit="10" />
  <path d="M156.796875 127.25L157.152344 125.710938C157.566406 124.707031 158.847656 122.710938 159.539063 122.710938 159.796875 122.710938 159.875 122.898438 159.875 123.15625 159.875 123.390625 159.773438 123.8125 159.695313 124.105469L159.128906 126.269531C159.117188 126.324219 159.070313 126.523438 159.070313 126.703125 159.070313 127.035156 159.238281 127.359375 159.808594 127.359375 160.601563 127.359375 161.046875 126.582031 161.335938 126.167969L161.113281 126C160.933594 126.210938 160.667969 126.582031 160.277344 126.582031 160.132813 126.582031 160.0625 126.492188 160.0625 126.367188 160.0625 126.234375 160.097656 126.101563 160.097656 126.101563L160.714844 123.523438C160.746094 123.367188 160.824219 122.988281 160.824219 122.699219 160.824219 122.296875 160.667969 121.90625 160.109375 121.90625 158.949219 121.90625 158.035156 123.390625 157.554688 124.238281L157.464844 124.238281 157.65625 123.523438C157.664063 123.46875 157.753906 123.023438 157.753906 122.699219 157.753906 122.296875 157.609375 121.90625 157.054688 121.90625 155.78125 121.90625 154.832031 123.480469 154.363281 124.359375L154.273438 124.359375 154.832031 121.9375 154.578125 121.9375 153.035156 122.0625 153.035156 122.363281C153.035156 122.363281 153.246094 122.339844 153.394531 122.339844 153.660156 122.339844 153.75 122.453125 153.75 122.640625 153.75 122.808594 153.71875 123.011719 153.71875 123.011719L152.824219 127.25 153.738281 127.25 154.085938 125.722656C154.640625 124.460938 155.746094 122.710938 156.484375 122.710938 156.742188 122.710938 156.820313 122.898438 156.820313 123.15625 156.820313 123.335938 156.761719 123.589844 156.753906 123.621094 156.484375 124.851563 156.195313 126.054688 155.871094 127.25L156.796875 127.25M64.492188 210.898438C64.324219 211.113281 64.054688 211.480469 63.652344 211.480469 63.507813 211.480469 63.441406 211.390625 63.441406 211.269531 63.441406 211.132813 63.484375 211 63.484375 211L64.109375 208.421875C64.144531 208.265625 64.210938 207.890625 64.210938 207.597656 64.210938 207.195313 64.042969 206.804688 63.476563 206.804688 62.160156 206.804688 61.132813 208.421875 60.664063 209.261719L60.574219 209.261719 61.703125 204.273438 61.445313 204.273438 59.90625 204.398438 59.90625 204.695313C59.90625 204.695313 60.128906 204.675781 60.273438 204.675781 60.53125 204.675781 60.628906 204.789063 60.628906 204.964844 60.628906 205.132813 60.597656 205.34375 60.597656 205.34375L59.125 212.148438 60.039063 212.148438 60.441406 210.386719C60.796875 209.617188 62.09375 207.609375 62.917969 207.609375 63.171875 207.609375 63.25 207.796875 63.25 208.054688 63.25 208.277344 63.171875 208.589844 63.171875 208.589844L62.515625 211.167969C62.492188 211.222656 62.460938 211.425781 62.460938 211.601563 62.460938 211.9375 62.628906 212.261719 63.1875 212.261719 63.988281 212.261719 64.433594 211.480469 64.726563 211.066406L64.492188 210.898438M280.992188 39.398438C280.824219 39.613281 280.554688 39.980469 280.152344 39.980469 280.007813 39.980469 279.941406 39.890625 279.941406 39.769531 279.941406 39.632813 279.984375 39.503906 279.984375 39.503906L280.609375 36.921875C280.644531 36.765625 280.710938 36.390625 280.710938 36.097656 280.710938 35.695313 280.542969 35.304688 279.976563 35.304688 278.660156 35.304688 277.632813 36.921875 277.164063 37.761719L277.074219 37.761719 278.203125 32.773438 277.945313 32.773438 276.40625 32.898438 276.40625 33.195313C276.40625 33.195313 276.628906 33.175781 276.773438 33.175781 277.03125 33.175781 277.128906 33.285156 277.128906 33.464844 277.128906 33.632813 277.097656 33.84375 277.097656 33.84375L275.625 40.648438 276.539063 40.648438 276.941406 38.886719C277.296875 38.117188 278.59375 36.109375 279.417969 36.109375 279.671875 36.109375 279.753906 36.296875 279.753906 36.554688 279.753906 36.777344 279.671875 37.089844 279.671875 37.089844L279.015625 39.667969C278.992188 39.722656 278.960938 39.925781 278.960938 40.101563 278.960938 40.4375 279.128906 40.761719 279.6875 40.761719 280.488281 40.761719 280.933594 39.980469 281.226563 39.566406L280.992188 39.398438" />
</svg>