<svg width="472.32" height="428.853" viewBox="0 0 354.24 321.64" class="displayed_equation" xmlns="http://www.w3.org/2000/svg">
  <path d="M 211.5625 23.25 C 211.542969 23.886719 211.265625 24.433594 210.664063 24.882813 C 210.042969 25.316406 209.167969 25.667969 207.976563 25.894531 C 206.761719 26.105469 205.261719 26.238281 203.398438 26.238281 C 203.324219 26.238281 203.289063 26.203125 203.289063 26.128906 L 203.289063 25.332031 C 203.257813 25.226563 203.324219 25.21875 203.398438 25.21875 L 204.507813 25.207031 L 204.550781 25.207031 C 204.816406 24.789063 205.121094 24.4375 205.410156 24.082031 L 205.015625 21.769531 C 204.894531 21.175781 204.789063 20.542969 204.695313 19.839844 C 204.566406 19.136719 204.550781 18.625 204.546875 18.304688 C 204.53125 17.992188 204.613281 17.78125 204.746094 17.613281 C 204.867188 17.417969 205.109375 17.320313 205.429688 17.25 C 205.503906 17.574219 205.59375 17.855469 205.671875 18.089844 L 205.90625 18.84375 L 205.554688 19.144531 L 205.558594 19.207031 C 205.550781 19.355469 205.613281 19.800781 205.679688 20.46875 C 205.722656 21.132813 205.796875 21.578125 205.828125 21.777344 C 205.898438 22.675781 205.949219 23.246094 205.957031 23.453125 C 206.570313 22.753906 207.1875 22.226563 207.742188 21.855469 C 208.289063 21.480469 208.785156 21.300781 209.195313 21.300781 C 209.414063 21.28125 209.761719 21.402344 210.132813 21.605469 C 210.492188 21.789063 210.832031 22.078125 211.125 22.398438 C 211.410156 22.703125 211.5625 23.007813 211.5625 23.25 Z M 210.949219 23.839844 C 210.671875 23.355469 210.375 23.039063 210.007813 22.789063 C 209.644531 22.519531 209.265625 22.410156 208.867188 22.410156 C 208.441406 22.386719 207.949219 22.65625 207.320313 23.144531 C 206.6875 23.632813 206.023438 24.316406 205.296875 25.191406 C 206.148438 25.140625 206.945313 25.097656 207.585938 25.011719 C 208.199219 24.902344 208.753906 24.808594 209.167969 24.660156 C 209.558594 24.503906 210.175781 24.234375 210.949219 23.839844 Z M 209.046875 20.253906 Z M 208.1875 26.632813 Z M 208.1875 26.933594 L 208.1875 26.933594" />
  <path d="M 202.179688 23.191406 C 202.273438 23.175781 202.410156 23.226563 202.507813 23.296875 C 202.34375 23.664063 202.203125 24.007813 202.082031 24.269531 C 201.933594 24.523438 201.886719 24.679688 201.859375 24.710938 C 202.140625 24.878906 202.4375 25.035156 202.699219 25.109375 C 202.925781 25.160156 203.242188 25.21875 203.546875 25.21875 C 203.605469 25.191406 203.65625 25.257813 203.65625 25.332031 L 203.65625 26.128906 C 203.636719 26.175781 203.621094 26.238281 203.546875 26.238281 C 202.707031 26.238281 202.015625 25.980469 201.425781 25.460938 L 201.210938 25.75 C 201.117188 25.847656 200.796875 25.957031 200.238281 26.070313 C 199.671875 26.175781 199.136719 26.238281 198.601563 26.238281 C 198.527344 26.238281 198.488281 26.203125 198.488281 26.128906 L 198.488281 25.332031 C 198.460938 25.226563 198.527344 25.21875 198.601563 25.21875 C 199.152344 25.191406 199.625 25.195313 200.007813 25.148438 C 200.394531 25.097656 200.667969 25.019531 200.828125 24.90625 C 200.976563 24.769531 201.222656 24.4375 201.53125 23.839844 L 201.765625 23.40625 C 201.824219 23.242188 201.984375 23.191406 202.179688 23.191406 Z M 201.496094 22.535156 Z M 201.132813 26.632813 Z M 201.132813 26.933594 Z M 200.933594 27.921875 C 200.761719 28.152344 200.507813 28.484375 200.140625 28.835938 C 199.726563 28.484375 199.445313 28.242188 199.253906 28.019531 C 199.472656 27.773438 199.777344 27.5 200.117188 27.117188 C 200.1875 27.175781 200.46875 27.46875 200.933594 27.921875 Z M 202.957031 27.730469 C 202.777344 27.953125 202.527344 28.289063 202.152344 28.640625 C 201.746094 28.332031 201.46875 28.058594 201.265625 27.824219 C 201.445313 27.613281 201.757813 27.339844 202.132813 26.921875 C 202.199219 26.980469 202.484375 27.277344 202.957031 27.730469 Z M 201.109375 27.960938 Z M 201.085938 26.921875 Z M 201.121094 28.96875 L 201.121094 28.96875" />
  <path d="M198.667969 26.238281C197.542969 26.238281 196.648438 26.0625 195.914063 25.703125 195.46875 25.84375 194.902344 25.996094 194.203125 26.09375 193.503906 26.175781 192.734375 26.238281 191.890625 26.238281 189.605469 26.238281 188.507813 25.480469 188.507813 23.957031 188.507813 23.398438 188.570313 22.910156 188.691406 22.484375L189.175781 22.484375C189.117188 22.691406 189.125 22.925781 189.125 23.144531 189.117188 23.6875 189.226563 24.101563 189.429688 24.375 189.621094 24.636719 189.957031 24.859375 190.402344 25.003906 190.851563 25.128906 191.441406 25.21875 192.179688 25.21875 193.007813 25.191406 193.835938 25.144531 194.578125 24.988281 194.386719 24.804688 194.28125 24.628906 194.1875 24.414063 194.0625 24.175781 194.042969 23.992188 194.042969 23.792969 194.027344 23.578125 194.070313 23.339844 194.121094 23.019531 194.164063 22.671875 194.230469 22.488281 194.285156 22.394531 194.492188 21.945313 194.824219 21.625 195.195313 21.375 195.535156 21.113281 195.96875 21 196.40625 21 196.632813 20.980469 196.859375 21.117188 197.078125 21.351563 197.269531 21.578125 197.472656 21.886719 197.605469 22.265625 197.738281 22.632813 197.804688 23.023438 197.804688 23.40625 197.804688 24.039063 197.546875 24.617188 197.03125 25.074219 197.539063 25.160156 198.097656 25.21875 198.667969 25.21875 198.71875 25.191406 198.78125 25.257813 198.78125 25.332031L198.78125 26.128906C198.753906 26.175781 198.742188 26.238281 198.667969 26.238281zM197.28125 23.8125C197.234375 23.566406 197.191406 23.351563 197.078125 23.097656 196.9375 22.828125 196.828125 22.625 196.667969 22.433594 196.484375 22.210938 196.378906 22.144531 196.28125 22.144531 196 22.144531 195.726563 22.296875 195.382813 22.597656 195.007813 22.882813 194.757813 23.257813 194.546875 23.667969 194.894531 24.078125 195.324219 24.414063 195.789063 24.648438 196.386719 24.40625 196.914063 24.132813 197.28125 23.8125zM195.902344 20.347656zM195.890625 26.632813zM195.890625 26.933594zM196.753906 19.234375C196.523438 19.503906 196.253906 19.863281 195.886719 20.21875 195.460938 19.878906 195.171875 19.613281 194.925781 19.347656 195.375 18.886719 195.695313 18.5625 195.859375 18.363281 196.125 18.664063 196.441406 18.964844 196.753906 19.234375zM195.886719 20.347656zM195.859375 18.039063L195.859375 18.039063M182.707031 21.777344L182.707031 22.613281C182.703125 23.453125 182.675781 24.648438 182.617188 26.128906L182 26.238281C181.945313 23.109375 181.820313 20.507813 181.632813 18.441406L181.628906 18.273438C181.617188 17.976563 181.695313 17.761719 181.839844 17.59375 181.96875 17.410156 182.203125 17.3125 182.511719 17.25 182.519531 17.304688 182.535156 17.359375 182.546875 17.410156 182.546875 17.433594 182.707031 17.933594 182.988281 18.84375L182.628906 19.148438 182.632813 19.214844C182.671875 20.148438 182.707031 21.027344 182.707031 21.777344zM182.234375 16.597656zM182.359375 26.933594zM182.71875 27.921875L182.730469 27.859375C182.722656 27.816406 182.714844 27.785156 182.679688 27.75 182.621094 27.710938 182.609375 27.699219 182.5625 27.699219 182.402344 27.679688 182.292969 27.746094 182.179688 27.84375 182.035156 27.941406 181.980469 28.058594 181.933594 28.195313 182.058594 28.355469 182.269531 28.460938 182.539063 28.460938 182.722656 28.453125 182.964844 28.433594 183.226563 28.378906L183.195313 28.894531C182.777344 28.976563 182.507813 29.085938 182.300781 29.171875 182.089844 29.246094 181.839844 29.378906 181.539063 29.542969L181.515625 29.019531 182.039063 28.722656C181.703125 28.625 181.554688 28.476563 181.554688 28.1875 181.535156 27.910156 181.660156 27.683594 181.871094 27.464844 182.0625 27.234375 182.308594 27.132813 182.539063 27.132813 182.871094 27.101563 183.058594 27.296875 183.058594 27.625 183.039063 27.714844 183.03125 27.863281 182.972656 27.992188zM182.332031 26.9375zM182.5625 29.347656L182.5625 29.347656M174.828125 26.238281C174.5625 26.238281 174.277344 26.199219 173.949219 26.117188 173.601563 26.007813 173.367188 25.9375 173.1875 25.828125 173.03125 25.925781 172.871094 26.054688 172.621094 26.128906 172.367188 26.175781 172.101563 26.238281 171.800781 26.238281 171.726563 26.238281 171.6875 26.203125 171.6875 26.128906L171.6875 25.332031C171.660156 25.226563 171.726563 25.21875 171.800781 25.21875 172.050781 25.191406 172.253906 25.195313 172.417969 25.152344 172.574219 25.101563 172.738281 25.027344 172.886719 24.910156 172.972656 24.796875 173.082031 24.742188 173.136719 24.671875 173.179688 24.59375 173.347656 24.363281 173.601563 23.941406 173.679688 23.800781 173.816406 23.726563 174.011719 23.726563 174.125 23.699219 174.238281 23.761719 174.339844 23.824219 174.046875 24.476563 173.875 24.914063 173.78125 25.050781 173.820313 25.078125 173.992188 25.117188 174.214844 25.15625 174.433594 25.191406 174.691406 25.21875 174.972656 25.21875 175.367188 25.191406 175.742188 25.175781 176.027344 25.082031 176.070313 24.984375 176.132813 24.871094 176.183594 24.703125 176.382813 23.921875 176.566406 23.472656 176.65625 23.289063 176.726563 23.089844 176.835938 22.988281 176.917969 22.941406 176.996094 22.890625 177.097656 22.863281 177.203125 22.863281 177.320313 22.855469 177.425781 22.894531 177.515625 22.960938 177.378906 23.234375 177.191406 23.808594 176.933594 24.664063L177.273438 24.808594C177.855469 25.039063 178.554688 25.1875 179.296875 25.1875 179.15625 24.765625 179.019531 24.289063 178.792969 23.714844 178.582031 23.230469 178.523438 22.957031 178.523438 22.8125 178.515625 22.589844 178.601563 22.417969 178.757813 22.21875 178.898438 21.992188 179.132813 21.84375 179.40625 21.683594 179.445313 21.941406 179.554688 22.46875 179.726563 23.21875 179.855469 23.78125 179.929688 24.265625 179.929688 24.59375 179.921875 24.730469 179.878906 25 179.765625 25.347656 179.636719 25.695313 179.539063 25.996094 179.414063 26.238281 178.835938 26.238281 178.34375 26.199219 177.921875 26.121094 177.496094 26.011719 177.054688 25.886719 176.578125 25.664063L176.460938 25.882813C176.382813 25.964844 176.234375 26.058594 175.953125 26.125 175.652344 26.164063 175.296875 26.230469 174.828125 26.238281zM176.347656 21.816406zM176.308594 26.632813zM176.308594 26.933594zM177.070313 19.996094C176.789063 20.277344 176.582031 20.519531 176.378906 20.660156 176.101563 20.503906 175.875 20.289063 175.617188 19.996094 175.882813 19.71875 176.128906 19.492188 176.339844 19.257813 176.492188 19.472656 176.746094 19.726563 177.070313 19.996094zM176.132813 21.105469C175.964844 21.328125 175.742188 21.625 175.421875 21.929688 175.066406 21.625 174.804688 21.410156 174.617188 21.199219 174.824219 20.980469 175.089844 20.726563 175.394531 20.382813 175.460938 20.46875 175.738281 20.722656 176.132813 21.105469zM178.050781 20.9375C177.863281 21.164063 177.640625 21.472656 177.332031 21.761719 177.011719 21.507813 176.757813 21.269531 176.539063 21.023438 176.6875 20.847656 176.960938 20.601563 177.3125 20.203125zM176.34375 21.761719zM176.339844 18.929688L176.339844 18.929688" />
  <path d="M 171.839844 26.238281 C 170.699219 26.238281 169.847656 26.023438 169.234375 25.585938 L 169.136719 25.511719 L 169.007813 25.585938 C 168.148438 26.007813 167.222656 26.238281 166.214844 26.238281 C 166.125 26.238281 166.089844 26.199219 166.089844 26.113281 L 166.089844 25.34375 C 166.058594 25.261719 166.128906 25.21875 166.214844 25.21875 C 167.136719 25.191406 167.90625 25.113281 168.507813 24.898438 L 168.265625 24.59375 C 167.890625 24.070313 167.65625 23.742188 167.496094 23.554688 C 167.300781 23.359375 167.1875 23.21875 167.058594 23.113281 L 166.847656 23.257813 C 166.671875 23.078125 166.605469 22.882813 166.605469 22.660156 C 166.605469 22.339844 166.761719 22.089844 167.070313 21.882813 C 167.355469 21.664063 167.71875 21.515625 168.089844 21.402344 C 168.429688 21.265625 168.839844 21.226563 169.222656 21.226563 C 169.789063 21.199219 170.277344 21.386719 170.65625 21.710938 C 171.019531 22.007813 171.230469 22.425781 171.230469 22.902344 C 171.222656 23.140625 171.183594 23.40625 171.089844 23.644531 C 170.964844 23.878906 170.871094 24.097656 170.71875 24.300781 C 170.558594 24.484375 170.332031 24.730469 170.027344 24.976563 C 170.394531 25.128906 171.007813 25.21875 171.839844 25.21875 C 171.914063 25.191406 171.96875 25.261719 171.96875 25.34375 L 171.96875 26.113281 C 171.945313 26.175781 171.925781 26.238281 171.839844 26.238281 Z M 170.277344 23.191406 C 170.25 22.921875 170.183594 22.730469 169.996094 22.574219 C 169.777344 22.402344 169.5625 22.335938 169.261719 22.335938 C 168.695313 22.300781 168.191406 22.464844 167.6875 22.726563 C 167.980469 22.953125 168.433594 23.445313 168.96875 24.105469 C 169.046875 24.210938 169.179688 24.355469 169.300781 24.472656 C 169.597656 24.261719 169.835938 24.058594 170.011719 23.835938 C 170.183594 23.578125 170.277344 23.394531 170.277344 23.191406 Z M 169.03125 20.574219 Z M 169.15625 26.632813 Z M 169.15625 26.933594 L 169.15625 26.933594" />
  <path d="M166.417969 25.332031L166.417969 26.128906C166.414063 26.175781 166.382813 26.238281 166.308594 26.238281 165.777344 26.238281 165.34375 26.136719 164.996094 25.929688 164.617188 25.691406 164.453125 25.4375 164.410156 25.074219 164.261719 23.921875 164.113281 22.167969 163.953125 19.785156L163.820313 17.996094C164.0625 17.726563 164.371094 17.496094 164.722656 17.25 164.777344 18.609375 164.832031 20.539063 164.867188 23.027344L164.914063 24.871094C165.328125 25.09375 165.796875 25.21875 166.308594 25.21875 166.378906 25.191406 166.417969 25.257813 166.417969 25.332031zM164.320313 16.597656zM165.121094 26.933594L165.121094 26.933594M159.6875 30.066406C158.609375 30.058594 157.800781 29.804688 157.171875 29.28125 156.515625 28.746094 156.226563 28.058594 156.226563 27.183594 156.214844 26.160156 156.589844 25.285156 157.316406 24.511719 157.035156 24.40625 156.777344 24.292969 156.519531 24.101563 156.253906 23.886719 156.054688 23.683594 155.902344 23.425781 155.75 23.140625 155.675781 22.898438 155.675781 22.613281 155.648438 22.207031 155.777344 21.832031 155.984375 21.421875 156.160156 20.980469 156.453125 20.667969 156.785156 20.410156 157.085938 20.128906 157.460938 20.019531 157.820313 20.019531 158.128906 19.992188 158.421875 20.089844 158.679688 20.222656 158.910156 20.328125 159.261719 20.585938 159.652344 20.910156L159.421875 21.332031C158.894531 21.140625 158.476563 21.09375 158.15625 21.09375 157.585938 21.074219 157.03125 21.253906 156.441406 21.582031 156.425781 22.09375 156.621094 22.546875 156.988281 22.894531 157.324219 23.222656 157.867188 23.464844 158.523438 23.570313 159.167969 23.167969 159.957031 22.828125 160.863281 22.523438 160.941406 22.632813 161.011719 22.800781 161.011719 22.949219 161.007813 23.128906 160.9375 23.300781 160.789063 23.453125 160.609375 23.601563 160.371094 23.761719 159.976563 23.917969 159.132813 24.214844 158.519531 24.554688 158.0625 24.867188 157.585938 25.167969 157.265625 25.507813 157.046875 25.855469 156.808594 26.203125 156.714844 26.574219 156.714844 26.960938 156.710938 27.59375 156.96875 28.09375 157.476563 28.441406 157.960938 28.789063 158.734375 28.960938 159.726563 28.960938 160.328125 28.953125 160.902344 28.929688 161.414063 28.867188 161.921875 28.796875 162.449219 28.710938 162.980469 28.589844L163.132813 29.039063C161.886719 29.726563 160.75 30.066406 159.6875 30.066406zM157.703125 19.363281zM155.539063 29.753906zM159.746094 26.4375zM159.421875 30.722656L159.421875 30.722656M150.105469 21.777344L150.105469 22.613281C150.105469 23.453125 150.074219 24.648438 150.015625 26.128906L149.398438 26.238281C149.34375 23.109375 149.222656 20.507813 149.035156 18.441406L149.027344 18.273438C149.019531 17.976563 149.097656 17.761719 149.238281 17.59375 149.367188 17.410156 149.605469 17.3125 149.910156 17.25 149.921875 17.304688 149.9375 17.359375 149.949219 17.410156 149.945313 17.433594 150.109375 17.933594 150.386719 18.84375L150.027344 19.148438 150.035156 19.214844C150.070313 20.148438 150.105469 21.027344 150.105469 21.777344zM149.636719 16.597656zM149.757813 26.933594L149.757813 26.933594M145.1875 26.238281C145.078125 26.238281 145.070313 26.203125 145.070313 26.128906L145.070313 25.332031C145.046875 25.226563 145.109375 25.21875 145.1875 25.21875 145.699219 25.191406 146.222656 25.101563 146.671875 24.867188 146.464844 22.484375 146.265625 20.203125 145.996094 17.996094 146.222656 17.714844 146.554688 17.484375 146.894531 17.25 146.90625 18.207031 147.011719 19.472656 147.109375 21.039063 147.1875 22.347656 147.242188 23.480469 147.253906 24.433594 147.234375 24.554688 147.210938 24.789063 147.121094 25.039063 147.023438 25.289063 146.917969 25.535156 146.78125 25.777344 146.59375 26.074219 146.089844 26.238281 145.1875 26.238281zM146.257813 16.597656zM146.808594 26.632813zM146.808594 26.933594L146.808594 26.933594" />
  <path d="M 136.199219 26.238281 C 136.125 26.238281 136.089844 26.203125 136.089844 26.128906 L 136.089844 25.332031 C 136.058594 25.226563 136.125 25.21875 136.199219 25.21875 C 137.039063 25.191406 137.761719 25.171875 138.378906 25.078125 C 138.96875 24.972656 139.546875 24.828125 140.039063 24.605469 C 140.601563 24.328125 141.0625 24.191406 141.382813 24.125 C 141.007813 23.9375 140.691406 23.761719 140.355469 23.511719 C 139.988281 23.230469 139.714844 23.074219 139.480469 22.96875 C 139.222656 22.851563 139.015625 22.804688 138.785156 22.804688 C 138.328125 22.785156 137.972656 22.914063 137.632813 23.132813 L 137.320313 23.328125 C 137.179688 23.167969 137.121094 23.023438 137.121094 22.804688 C 137.113281 22.445313 137.269531 22.199219 137.566406 21.992188 C 137.839844 21.769531 138.253906 21.683594 138.738281 21.683594 C 139.011719 21.671875 139.3125 21.742188 139.597656 21.851563 C 139.851563 21.960938 140.222656 22.152344 140.609375 22.417969 C 141.070313 22.710938 141.464844 22.976563 141.792969 23.140625 C 142.089844 23.304688 142.449219 23.425781 142.78125 23.5 C 143.085938 23.554688 143.605469 23.609375 144.257813 23.609375 L 143.746094 24.605469 C 143.304688 24.5625 142.941406 24.542969 142.605469 24.488281 L 142.519531 24.492188 L 142.570313 24.578125 C 142.703125 24.828125 142.964844 25.011719 143.277344 25.097656 C 143.566406 25.160156 144.242188 25.21875 145.226563 25.21875 C 145.296875 25.191406 145.34375 25.257813 145.34375 25.332031 L 145.34375 26.128906 C 145.328125 26.175781 145.304688 26.238281 145.226563 26.238281 C 144.554688 26.234375 144.03125 26.1875 143.621094 26.089844 C 143.210938 25.976563 142.886719 25.84375 142.628906 25.636719 C 142.363281 25.394531 142.136719 25.097656 141.921875 24.644531 L 141.578125 24.800781 L 140.480469 25.375 C 139.785156 25.710938 139.210938 25.949219 138.671875 26.066406 C 138.109375 26.175781 137.308594 26.238281 136.199219 26.238281 Z M 140.53125 21.035156 Z M 140.464844 26.632813 Z M 140.464844 26.933594 Z M 141.320313 27.957031 C 141.105469 28.25 140.828125 28.585938 140.460938 28.9375 C 140.054688 28.605469 139.753906 28.34375 139.496094 28.058594 C 139.867188 27.660156 140.210938 27.339844 140.433594 27.078125 C 140.730469 27.402344 141.039063 27.707031 141.320313 27.957031 Z M 140.429688 28.058594 Z M 140.433594 26.949219 Z M 140.460938 29.066406 Z M 140.433594 26.753906 L 140.433594 26.753906" />
  <path d="M 136.296875 26.238281 C 135.914063 26.238281 135.601563 26.175781 135.257813 26.042969 C 134.894531 25.90625 134.625 25.730469 134.390625 25.511719 L 134.203125 25.882813 C 134.132813 25.972656 133.976563 26.070313 133.738281 26.136719 C 133.488281 26.175781 133.261719 26.238281 133.015625 26.238281 C 132.613281 26.238281 132.261719 26.128906 131.945313 25.898438 C 131.855469 25.972656 131.695313 26.070313 131.414063 26.132813 C 131.132813 26.164063 130.773438 26.230469 130.328125 26.238281 C 130.0625 26.238281 129.777344 26.199219 129.449219 26.117188 C 129.101563 26.007813 128.867188 25.9375 128.6875 25.828125 C 128.53125 25.925781 128.371094 26.054688 128.121094 26.128906 C 127.867188 26.175781 127.601563 26.238281 127.300781 26.238281 C 127.226563 26.238281 127.1875 26.203125 127.1875 26.128906 L 127.1875 25.332031 C 127.160156 25.226563 127.226563 25.21875 127.300781 25.21875 C 127.550781 25.191406 127.753906 25.195313 127.917969 25.152344 C 128.074219 25.101563 128.238281 25.027344 128.386719 24.910156 C 128.472656 24.796875 128.582031 24.742188 128.636719 24.671875 C 128.679688 24.59375 128.847656 24.363281 129.101563 23.941406 C 129.179688 23.800781 129.316406 23.726563 129.511719 23.726563 C 129.625 23.699219 129.738281 23.761719 129.839844 23.824219 C 129.546875 24.476563 129.375 24.914063 129.28125 25.050781 C 129.320313 25.078125 129.492188 25.117188 129.714844 25.15625 C 129.933594 25.191406 130.191406 25.21875 130.472656 25.21875 C 130.867188 25.191406 131.242188 25.175781 131.527344 25.082031 C 131.570313 24.984375 131.632813 24.871094 131.683594 24.703125 C 131.882813 23.921875 132.066406 23.472656 132.15625 23.289063 C 132.226563 23.089844 132.335938 22.988281 132.417969 22.941406 C 132.496094 22.890625 132.597656 22.863281 132.703125 22.863281 C 132.820313 22.855469 132.925781 22.894531 133.015625 22.960938 C 132.890625 23.210938 132.714844 23.742188 132.472656 24.527344 L 132.324219 25.015625 C 132.449219 25.058594 132.578125 25.128906 132.675781 25.152344 C 132.75 25.171875 132.894531 25.1875 133.035156 25.1875 C 133.242188 25.171875 133.503906 25.140625 133.777344 25.042969 C 133.820313 24.933594 133.976563 24.613281 134.164063 24.082031 C 134.214844 23.84375 134.3125 23.648438 134.390625 23.453125 C 134.4375 23.253906 134.546875 23.089844 134.621094 22.957031 C 134.691406 22.816406 134.839844 22.753906 135.039063 22.753906 C 135.152344 22.75 135.273438 22.785156 135.359375 22.851563 C 135.21875 23.144531 135.015625 23.78125 134.691406 24.746094 L 134.902344 24.871094 C 135.304688 25.09375 135.769531 25.21875 136.296875 25.21875 C 136.339844 25.191406 136.40625 25.257813 136.40625 25.332031 L 136.40625 26.128906 C 136.402344 26.175781 136.367188 26.238281 136.296875 26.238281 Z M 131.992188 21.816406 Z M 131.757813 26.632813 Z M 131.757813 26.933594 L 131.757813 26.933594" />
  <path d="M121.679688 24.550781C121.71875 25.292969 121.886719 26.363281 122.109375 27.746094L122.417969 29.824219C122.148438 29.992188 121.855469 30.1875 121.523438 30.328125 121.457031 29.277344 121.378906 28.257813 121.257813 27.183594 121.140625 26.300781 121.109375 25.585938 121.109375 24.996094 121.105469 24.875 121.132813 24.757813 121.183594 24.59375 121.207031 24.414063 121.367188 24.121094 121.582031 23.660156 121.578125 23.59375 121.800781 23.433594 122.164063 23.164063 122.507813 22.886719 122.902344 22.644531 123.289063 22.410156 123.644531 22.15625 124.015625 22.003906 124.320313 21.875 124.617188 21.738281 124.863281 21.683594 125.046875 21.683594 125.203125 21.671875 125.386719 21.824219 125.550781 22.101563 125.699219 22.359375 125.914063 22.828125 126.144531 23.453125 126.351563 24.058594 126.578125 24.511719 126.769531 24.796875 126.941406 25.058594 127.167969 25.21875 127.382813 25.21875 127.453125 25.191406 127.53125 25.265625 127.53125 25.355469L127.53125 26.097656C127.523438 26.175781 127.484375 26.238281 127.382813 26.238281 126.910156 26.238281 126.53125 26.046875 126.164063 25.65625L125.996094 26.238281C125.046875 26.238281 124.273438 26.09375 123.582031 25.800781 122.867188 25.488281 122.546875 25.132813 122.546875 24.671875 122.53125 24.378906 122.632813 24.078125 122.796875 23.746094 122.351563 24.023438 122.011719 24.296875 121.679688 24.550781zM125.074219 22.707031C124.675781 22.871094 124.335938 23.152344 123.984375 23.480469 123.605469 23.792969 123.386719 24.109375 123.246094 24.394531 123.816406 24.867188 124.71875 25.191406 125.90625 25.308594 125.703125 24.976563 125.527344 24.609375 125.375 24.136719 125.199219 23.632813 125.121094 23.1875 125.074219 22.707031zM123.898438 21.035156zM124.917969 26.632813zM124.722656 27.550781L124.722656 27.550781M115.605469 21.777344L115.605469 22.613281C115.605469 23.453125 115.574219 24.648438 115.515625 26.128906L114.898438 26.238281C114.84375 23.109375 114.722656 20.507813 114.535156 18.441406L114.527344 18.273438C114.519531 17.976563 114.597656 17.761719 114.738281 17.59375 114.867188 17.410156 115.105469 17.3125 115.410156 17.25 115.421875 17.304688 115.4375 17.359375 115.449219 17.410156 115.445313 17.433594 115.609375 17.933594 115.886719 18.84375L115.527344 19.148438 115.535156 19.214844C115.570313 20.148438 115.605469 21.027344 115.605469 21.777344zM115.136719 16.597656zM115.257813 26.933594L115.257813 26.933594M108.332031 26.238281C108.300781 26.238281 108.300781 26.191406 108.300781 26.097656 108.300781 25.957031 108.324219 25.796875 108.375 25.566406 108.398438 25.328125 108.46875 25.21875 108.503906 25.21875L108.78125 25.21875C109.347656 24.730469 109.816406 24.390625 110.105469 24.117188 110.390625 23.816406 110.671875 23.535156 110.9375 23.191406 110.519531 22.710938 110.078125 22.289063 109.582031 21.871094 109.058594 21.441406 108.59375 21.101563 108.109375 20.824219L107.617188 20.855469C107.382813 20.636719 107.21875 20.445313 107.117188 20.269531 107.007813 20.085938 106.964844 19.90625 106.964844 19.707031 106.941406 19.550781 106.992188 19.4375 107.046875 19.308594 107.089844 19.15625 107.230469 19.066406 107.421875 18.964844 107.785156 19.214844 108.21875 19.554688 108.703125 19.957031 109.183594 20.355469 109.628906 20.761719 110.042969 21.15625 110.441406 21.546875 110.882813 22.011719 111.320313 22.535156L111.34375 22.484375C111.484375 22.128906 111.578125 21.78125 111.578125 21.390625 111.550781 21 111.480469 20.191406 111.28125 18.914063 111.160156 18.277344 111.140625 17.953125 111.140625 17.859375 111.125 17.402344 111.4375 17.132813 112.035156 17.023438L112.269531 17.867188 112.511719 18.613281 112.152344 18.921875 112.171875 19.199219 112.25 21.117188C112.234375 21.777344 112.078125 22.46875 111.734375 23.121094 112 23.539063 112.25 23.980469 112.449219 24.367188 112.632813 24.742188 112.746094 25 112.746094 25.109375 112.730469 25.230469 112.691406 25.4375 112.585938 25.660156 112.449219 25.878906 112.394531 26.003906 112.335938 26.019531 111.492188 26.140625 110.167969 26.238281 108.332031 26.238281zM112.21875 24.957031C112.019531 24.59375 111.742188 24.179688 111.367188 23.699219 110.960938 24.214844 110.472656 24.730469 109.828125 25.191406 110.605469 25.148438 111.410156 25.089844 112.21875 24.957031zM111.523438 16.367188zM107.359375 18.3125zM111.714844 26.933594zM109.210938 26.933594zM107.617188 16.894531L107.625 16.839844C107.617188 16.800781 107.609375 16.761719 107.574219 16.726563 107.519531 16.660156 107.503906 16.671875 107.453125 16.671875 107.296875 16.660156 107.1875 16.71875 107.074219 16.820313 106.9375 16.894531 106.878906 17.039063 106.828125 17.175781 106.957031 17.339844 107.179688 17.441406 107.464844 17.441406 107.601563 17.441406 107.84375 17.414063 108.121094 17.355469L108.097656 17.867188C107.695313 17.953125 107.421875 18.0625 107.183594 18.160156 106.917969 18.25 106.699219 18.375 106.441406 18.515625L106.40625 17.996094 106.9375 17.699219C106.597656 17.621094 106.445313 17.460938 106.445313 17.160156 106.429688 16.902344 106.550781 16.671875 106.765625 16.445313 106.953125 16.21875 107.199219 16.105469 107.4375 16.105469 107.773438 16.085938 107.960938 16.273438 107.960938 16.605469 107.9375 16.703125 107.929688 16.84375 107.867188 16.964844zM107.390625 18.324219zM107.257813 15.78125L107.257813 15.78125M100.730469 26.238281C100.464844 26.238281 100.179688 26.199219 99.847656 26.117188 99.503906 26.007813 99.265625 25.9375 99.085938 25.828125 98.929688 25.925781 98.773438 26.054688 98.523438 26.128906 98.269531 26.175781 98 26.238281 97.699219 26.238281 97.625 26.238281 97.589844 26.203125 97.589844 26.128906L97.589844 25.332031C97.558594 25.226563 97.625 25.21875 97.699219 25.21875 97.949219 25.191406 98.15625 25.195313 98.320313 25.152344 98.476563 25.101563 98.636719 25.027344 98.785156 24.910156 98.871094 24.796875 98.984375 24.742188 99.039063 24.671875 99.082031 24.59375 99.246094 24.363281 99.5 23.941406 99.578125 23.800781 99.714844 23.726563 99.910156 23.726563 100.023438 23.699219 100.136719 23.761719 100.238281 23.824219 99.945313 24.476563 99.773438 24.914063 99.683594 25.050781 99.71875 25.078125 99.890625 25.117188 100.113281 25.15625 100.332031 25.191406 100.589844 25.21875 100.871094 25.21875 101.269531 25.191406 101.644531 25.175781 101.925781 25.082031 101.96875 24.984375 102.03125 24.871094 102.085938 24.703125 102.28125 23.921875 102.46875 23.472656 102.558594 23.289063 102.628906 23.089844 102.734375 22.988281 102.820313 22.941406 102.898438 22.890625 102.996094 22.863281 103.101563 22.863281 103.21875 22.855469 103.324219 22.894531 103.417969 22.960938 103.28125 23.234375 103.089844 23.808594 102.835938 24.664063L103.175781 24.808594C103.757813 25.039063 104.453125 25.1875 105.195313 25.1875 105.054688 24.765625 104.917969 24.289063 104.691406 23.714844 104.484375 23.230469 104.425781 22.957031 104.425781 22.8125 104.414063 22.589844 104.503906 22.417969 104.660156 22.21875 104.796875 21.992188 105.03125 21.84375 105.308594 21.683594 105.34375 21.941406 105.453125 22.46875 105.628906 23.21875 105.753906 23.78125 105.832031 24.265625 105.832031 24.59375 105.820313 24.730469 105.777344 25 105.667969 25.347656 105.535156 25.695313 105.441406 25.996094 105.3125 26.238281 104.734375 26.238281 104.242188 26.199219 103.824219 26.121094 103.398438 26.011719 102.953125 25.886719 102.476563 25.664063L102.359375 25.882813C102.28125 25.964844 102.132813 26.058594 101.851563 26.125 101.554688 26.164063 101.195313 26.230469 100.730469 26.238281zM102.246094 21.816406zM102.207031 26.632813zM102.207031 26.933594L102.207031 26.933594" />
  <path d="M93.984375 28.960938C93.667969 28.953125 93.332031 28.871094 92.882813 28.691406 92.410156 28.492188 92.097656 28.3125 91.859375 28.105469L92.046875 27.667969C92.511719 27.824219 93.070313 27.914063 93.675781 27.914063 94.207031 27.890625 94.722656 27.777344 95.152344 27.507813 95.566406 27.210938 95.941406 26.804688 96.234375 26.21875 95.351563 26.164063 94.710938 26.117188 94.273438 25.996094 93.816406 25.859375 93.523438 25.695313 93.316406 25.4375 93.105469 25.152344 93.007813 24.839844 93.007813 24.402344 93.007813 23.925781 93.101563 23.5 93.285156 23.054688 93.441406 22.605469 93.707031 22.253906 94.003906 21.980469 94.296875 21.695313 94.597656 21.574219 94.898438 21.574219 95.265625 21.5625 95.609375 21.742188 95.925781 22.074219 96.234375 22.394531 96.503906 22.859375 96.699219 23.4375 96.859375 23.980469 96.992188 24.589844 96.992188 25.160156L96.992188 25.21875 97.789063 25.21875C97.835938 25.191406 97.902344 25.257813 97.902344 25.332031L97.902344 26.128906C97.902344 26.175781 97.863281 26.238281 97.789063 26.238281L96.847656 26.238281C96.703125 26.75 96.507813 27.21875 96.21875 27.644531 95.921875 28.066406 95.589844 28.394531 95.203125 28.621094 94.8125 28.820313 94.40625 28.960938 93.984375 28.960938zM94.691406 22.714844C94.476563 22.6875 94.324219 22.785156 94.136719 22.925781 93.941406 23.039063 93.804688 23.242188 93.691406 23.453125 93.546875 23.65625 93.519531 23.851563 93.519531 24.019531 93.511719 24.308594 93.644531 24.574219 93.890625 24.734375 94.109375 24.863281 94.503906 25.019531 94.980469 25.109375 95.011719 25.097656 95.109375 25.132813 95.183594 25.140625 95.234375 25.148438 95.683594 25.171875 96.453125 25.207031 96.324219 24.484375 96.117188 23.917969 95.777344 23.4375 95.410156 22.921875 95.074219 22.714844 94.691406 22.714844zM94.640625 20.921875zM94.3125 29.617188zM94.769531 19.109375L94.769531 19.109375M87.894531 26.238281C87.316406 26.238281 86.941406 26.164063 86.667969 26.019531 86.371094 25.84375 86.257813 25.660156 86.257813 25.390625 86.238281 25.085938 86.335938 24.867188 86.492188 24.683594 86.683594 24.851563 86.96875 25 87.253906 25.089844 87.523438 25.160156 87.894531 25.21875 88.320313 25.21875 88.90625 25.191406 89.519531 25.128906 90.136719 24.945313 89.984375 24.546875 89.8125 24.136719 89.582031 23.714844L89.125 22.878906C88.980469 22.628906 88.894531 22.441406 88.839844 22.28125 88.773438 22.105469 88.757813 21.957031 88.757813 21.789063 88.738281 21.339844 88.992188 21.058594 89.464844 20.902344 89.578125 21.246094 89.742188 21.617188 89.894531 21.945313 90.015625 22.273438 90.191406 22.582031 90.320313 22.871094 90.445313 23.148438 90.5625 23.425781 90.648438 23.675781 90.71875 23.910156 90.78125 24.152344 90.78125 24.355469 90.753906 24.480469 90.738281 24.675781 90.65625 24.921875 90.554688 25.140625 90.457031 25.433594 90.308594 25.71875 89.65625 26.039063 88.851563 26.238281 87.894531 26.238281zM88.730469 20.246094zM88.671875 26.632813zM88.671875 26.933594L88.671875 26.933594M337.5625 245.511719L337.5625 246.210938C337.539063 246.910156 337.535156 247.910156 337.484375 249.144531L336.96875 249.238281C336.898438 246.621094 336.820313 244.449219 336.664063 242.722656L336.660156 242.578125C336.640625 242.328125 336.71875 242.152344 336.835938 242.011719 336.941406 241.847656 337.140625 241.777344 337.398438 241.726563 337.375 241.746094 337.417969 241.816406 337.429688 241.855469 337.429688 241.890625 337.5625 242.296875 337.796875 243.054688L337.496094 243.3125 337.503906 243.367188C337.539063 244.160156 337.5625 244.882813 337.5625 245.511719zM337.167969 241.179688zM337.273438 249.820313L337.273438 249.820313M333.488281 249.238281C333.394531 249.238281 333.390625 249.207031 333.390625 249.144531L333.390625 248.480469C333.359375 248.40625 333.421875 248.386719 333.488281 248.386719 333.910156 248.371094 334.355469 248.289063 334.730469 248.089844 334.566406 246.089844 334.390625 244.195313 334.167969 242.347656 334.359375 242.128906 334.632813 241.921875 334.917969 241.726563 334.949219 242.5 335.011719 243.582031 335.097656 244.890625 335.132813 245.96875 335.207031 246.933594 335.21875 247.730469 335.210938 247.828125 335.179688 248.027344 335.105469 248.238281 335.027344 248.414063 334.9375 248.652344 334.824219 248.851563 334.679688 249.105469 334.242188 249.238281 333.488281 249.238281zM334.386719 241.179688zM334.84375 249.566406zM334.84375 249.820313L334.84375 249.820313" />
  <path d="M 333.226563 246.738281 C 333.214844 247.292969 332.964844 247.757813 332.4375 248.136719 C 332.746094 248.269531 333.128906 248.386719 333.542969 248.386719 C 333.589844 248.371094 333.636719 248.417969 333.636719 248.480469 L 333.636719 249.144531 C 333.625 249.207031 333.605469 249.238281 333.542969 249.238281 C 333.191406 249.238281 332.875 249.167969 332.542969 249.023438 C 332.199219 248.851563 331.964844 248.703125 331.789063 248.496094 C 331.246094 248.714844 330.570313 248.917969 329.667969 249.046875 C 328.742188 249.171875 327.675781 249.238281 326.398438 249.238281 C 326.339844 249.238281 326.304688 249.207031 326.304688 249.144531 L 326.304688 248.480469 C 326.304688 248.40625 326.339844 248.386719 326.398438 248.386719 L 327.324219 248.375 L 327.363281 248.375 C 327.578125 248.035156 327.839844 247.734375 328.078125 247.433594 L 327.753906 245.503906 C 327.636719 244.996094 327.5625 244.476563 327.484375 243.886719 C 327.375 243.285156 327.359375 242.871094 327.359375 242.605469 C 327.339844 242.339844 327.414063 242.167969 327.527344 242.027344 C 327.632813 241.855469 327.828125 241.785156 328.09375 241.726563 C 328.132813 241.96875 328.234375 242.230469 328.296875 242.425781 L 328.496094 243.054688 L 328.199219 243.304688 L 328.203125 243.359375 C 328.214844 243.496094 328.25 243.855469 328.304688 244.417969 C 328.359375 244.953125 328.402344 245.34375 328.429688 245.511719 C 328.484375 246.25 328.53125 246.738281 328.539063 246.910156 C 329.054688 246.308594 329.5625 245.886719 330.03125 245.574219 C 330.488281 245.253906 330.902344 245.109375 331.246094 245.109375 C 331.441406 245.085938 331.71875 245.195313 332.027344 245.367188 C 332.328125 245.53125 332.613281 245.757813 332.859375 246.027344 C 333.082031 246.269531 333.226563 246.535156 333.226563 246.738281 Z M 332.710938 247.230469 C 332.488281 246.828125 332.230469 246.566406 331.925781 246.355469 C 331.613281 246.140625 331.304688 246.039063 330.972656 246.039063 C 330.609375 246.039063 330.203125 246.246094 329.679688 246.652344 C 329.128906 247.058594 328.589844 247.632813 327.984375 248.363281 C 328.699219 248.328125 329.363281 248.285156 329.898438 248.214844 C 330.4375 248.117188 330.878906 248.042969 331.222656 247.917969 C 331.5625 247.765625 332.066406 247.566406 332.710938 247.230469 Z M 331.136719 244.234375 Z M 330.402344 249.566406 Z M 330.402344 249.820313 L 330.402344 249.820313" />
  <path d="M323.359375 251.515625C323.101563 251.488281 322.8125 251.4375 322.441406 251.289063 322.054688 251.121094 321.785156 250.972656 321.582031 250.800781L321.742188 250.433594C322.128906 250.539063 322.597656 250.640625 323.101563 250.640625 323.566406 250.640625 323.976563 250.527344 324.335938 250.296875 324.683594 250.050781 324.996094 249.710938 325.242188 249.222656 324.5 249.171875 323.964844 249.136719 323.601563 249.039063 323.238281 248.90625 322.972656 248.785156 322.800781 248.570313 322.628906 248.347656 322.546875 248.066406 322.546875 247.703125 322.53125 247.300781 322.621094 246.949219 322.773438 246.574219 322.902344 246.191406 323.128906 245.90625 323.378906 245.679688 323.597656 245.441406 323.875 245.339844 324.128906 245.339844 324.425781 245.339844 324.71875 245.480469 324.984375 245.753906 325.222656 246.027344 325.464844 246.414063 325.628906 246.894531 325.785156 247.359375 325.878906 247.859375 325.878906 248.335938L325.878906 248.386719 326.542969 248.386719C326.589844 248.371094 326.636719 248.417969 326.636719 248.480469L326.636719 249.144531C326.625 249.207031 326.605469 249.238281 326.542969 249.238281L325.757813 249.238281C325.628906 249.667969 325.472656 250.058594 325.226563 250.414063 324.976563 250.742188 324.703125 251.039063 324.378906 251.230469 324.027344 251.390625 323.714844 251.515625 323.359375 251.515625zM323.953125 246.292969C323.78125 246.273438 323.644531 246.351563 323.488281 246.46875 323.304688 246.578125 323.210938 246.734375 323.113281 246.910156 323.015625 247.0625 322.972656 247.242188 322.972656 247.386719 322.949219 247.632813 323.074219 247.847656 323.28125 247.980469 323.464844 248.101563 323.792969 248.21875 324.191406 248.292969 324.214844 248.285156 324.300781 248.3125 324.363281 248.320313 324.40625 248.300781 324.78125 248.347656 325.421875 248.375 325.324219 247.78125 325.144531 247.300781 324.859375 246.894531 324.554688 246.472656 324.273438 246.292969 323.953125 246.292969zM323.90625 244.792969zM323.632813 252.0625zM324.015625 243.277344L324.015625 243.277344M320.050781 249.847656L319.765625 248.035156C319.425781 246.109375 319.242188 244.820313 319.140625 244.074219 319.027344 243.316406 318.992188 242.835938 318.992188 242.601563 318.960938 242.328125 319.050781 242.152344 319.164063 242.015625 319.261719 241.851563 319.46875 241.78125 319.722656 241.726563 319.726563 241.746094 319.742188 241.816406 319.753906 241.855469 319.746094 241.890625 319.886719 242.296875 320.121094 243.054688L319.859375 243.285156 319.882813 243.457031 320.246094 246.777344C320.378906 247.878906 320.46875 248.773438 320.46875 249.425781 320.445313 249.859375 320.324219 250.332031 320.035156 250.75 319.734375 251.164063 319.351563 251.511719 318.847656 251.773438 318.328125 252.027344 317.824219 252.171875 317.289063 252.171875 316.621094 252.160156 316.152344 251.988281 315.796875 251.621094 315.40625 251.226563 315.261719 250.738281 315.261719 250.066406 315.242188 249.84375 315.273438 249.648438 315.300781 249.457031 315.328125 249.257813 315.386719 248.984375 315.480469 248.617188L315.890625 248.714844C315.777344 249.019531 315.765625 249.308594 315.765625 249.511719 315.742188 250.035156 315.898438 250.484375 316.171875 250.789063 316.421875 251.078125 316.828125 251.246094 317.316406 251.246094 317.664063 251.246094 318.039063 251.1875 318.421875 251.0625 318.796875 250.929688 319.140625 250.769531 319.433594 250.550781 319.714844 250.332031 319.929688 250.101563 320.050781 249.847656zM318.972656 241.179688zM314.871094 252.175781zM317.078125 243.941406zM317.945313 252.71875L317.945313 252.71875M310.660156 245.511719L310.660156 246.210938C310.640625 246.910156 310.636719 247.910156 310.585938 249.144531L310.070313 249.238281C310 246.621094 309.921875 244.449219 309.765625 242.722656L309.757813 242.578125C309.738281 242.328125 309.816406 242.152344 309.9375 242.011719 310.042969 241.847656 310.242188 241.777344 310.496094 241.726563 310.476563 241.746094 310.519531 241.816406 310.53125 241.855469 310.53125 241.890625 310.664063 242.296875 310.898438 243.054688L310.59375 243.3125 310.601563 243.367188C310.640625 244.160156 310.660156 244.882813 310.660156 245.511719zM310.265625 241.179688zM310.371094 249.820313L310.371094 249.820313M306.488281 249.238281C306.394531 249.238281 306.390625 249.207031 306.390625 249.144531L306.390625 248.480469C306.359375 248.40625 306.421875 248.386719 306.488281 248.386719 306.910156 248.371094 307.355469 248.289063 307.730469 248.089844 307.566406 246.089844 307.390625 244.195313 307.167969 242.347656 307.359375 242.128906 307.632813 241.921875 307.917969 241.726563 307.949219 242.5 308.011719 243.582031 308.097656 244.890625 308.132813 245.96875 308.207031 246.933594 308.21875 247.730469 308.210938 247.828125 308.179688 248.027344 308.105469 248.238281 308.027344 248.414063 307.9375 248.652344 307.824219 248.851563 307.679688 249.105469 307.242188 249.238281 306.488281 249.238281zM307.386719 241.179688zM307.84375 249.566406zM307.84375 249.820313L307.84375 249.820313" />
  <path d="M 301.898438 249.238281 C 301.839844 249.238281 301.804688 249.207031 301.804688 249.144531 L 301.804688 248.480469 C 301.804688 248.40625 301.839844 248.386719 301.898438 248.386719 C 302.148438 248.371094 302.390625 248.347656 302.632813 248.269531 C 302.5625 248.15625 302.546875 248.050781 302.546875 247.925781 C 302.53125 247.589844 302.660156 247.253906 302.886719 246.839844 C 303.085938 246.390625 303.390625 246.085938 303.714844 245.824219 C 304.03125 245.535156 304.34375 245.433594 304.640625 245.433594 C 304.75 245.402344 304.878906 245.507813 304.980469 245.652344 C 305.054688 245.792969 305.179688 245.980469 305.273438 246.199219 C 305.34375 246.398438 305.464844 246.65625 305.554688 246.910156 C 305.628906 247.140625 305.742188 247.402344 305.84375 247.621094 C 305.933594 247.8125 306.0625 248.023438 306.179688 248.167969 C 306.273438 248.304688 306.4375 248.386719 306.59375 248.386719 C 306.644531 248.371094 306.71875 248.425781 306.71875 248.5 L 306.71875 249.121094 C 306.714844 249.171875 306.675781 249.238281 306.59375 249.238281 C 306.183594 249.238281 305.871094 249.074219 305.570313 248.746094 L 305.433594 249.238281 C 304.707031 249.238281 304.078125 249.128906 303.507813 248.910156 L 303.480469 248.90625 C 303.097656 249.015625 302.828125 249.125 302.601563 249.171875 C 302.371094 249.207031 302.136719 249.238281 301.898438 249.238281 Z M 304.664063 246.292969 C 304.359375 246.398438 304.085938 246.621094 303.773438 246.90625 C 303.4375 247.171875 303.25 247.457031 303.136719 247.703125 C 303.609375 248.089844 304.359375 248.363281 305.355469 248.464844 C 305.175781 248.21875 305.050781 247.914063 304.921875 247.527344 C 304.789063 247.109375 304.710938 246.726563 304.664063 246.292969 Z M 304.082031 244.886719 Z M 304.828125 249.566406 Z M 304.609375 249.929688 L 304.609375 249.929688" />
  <path d="M298.859375 251.515625C298.601563 251.488281 298.3125 251.4375 297.941406 251.289063 297.554688 251.121094 297.285156 250.972656 297.082031 250.800781L297.242188 250.433594C297.628906 250.539063 298.097656 250.640625 298.601563 250.640625 299.066406 250.640625 299.476563 250.527344 299.835938 250.296875 300.183594 250.050781 300.496094 249.710938 300.742188 249.222656 300 249.171875 299.464844 249.136719 299.101563 249.039063 298.738281 248.90625 298.472656 248.785156 298.300781 248.570313 298.128906 248.347656 298.046875 248.066406 298.046875 247.703125 298.03125 247.300781 298.121094 246.949219 298.273438 246.574219 298.402344 246.191406 298.628906 245.90625 298.878906 245.679688 299.097656 245.441406 299.375 245.339844 299.628906 245.339844 299.925781 245.339844 300.21875 245.480469 300.484375 245.753906 300.722656 246.027344 300.964844 246.414063 301.128906 246.894531 301.285156 247.359375 301.378906 247.859375 301.378906 248.335938L301.378906 248.386719 302.042969 248.386719C302.089844 248.371094 302.136719 248.417969 302.136719 248.480469L302.136719 249.144531C302.125 249.207031 302.105469 249.238281 302.042969 249.238281L301.257813 249.238281C301.128906 249.667969 300.972656 250.058594 300.726563 250.414063 300.476563 250.742188 300.203125 251.039063 299.878906 251.230469 299.527344 251.390625 299.214844 251.515625 298.859375 251.515625zM299.453125 246.292969C299.28125 246.273438 299.144531 246.351563 298.988281 246.46875 298.804688 246.578125 298.710938 246.734375 298.613281 246.910156 298.515625 247.0625 298.472656 247.242188 298.472656 247.386719 298.449219 247.632813 298.574219 247.847656 298.78125 247.980469 298.964844 248.101563 299.292969 248.21875 299.691406 248.292969 299.714844 248.285156 299.800781 248.3125 299.863281 248.320313 299.90625 248.300781 300.28125 248.347656 300.921875 248.375 300.824219 247.78125 300.644531 247.300781 300.359375 246.894531 300.054688 246.472656 299.773438 246.292969 299.453125 246.292969zM299.40625 244.792969zM299.132813 252.0625zM299.515625 243.277344L299.515625 243.277344M289.5 249.238281C289.4375 249.238281 289.40625 249.207031 289.40625 249.144531L289.40625 248.480469C289.402344 248.40625 289.4375 248.386719 289.5 248.386719 290.597656 248.371094 291.460938 248.292969 292.089844 248.101563L292.710938 247.886719C293.128906 247.710938 293.507813 247.617188 293.839844 247.558594 293.53125 247.40625 293.257813 247.230469 292.972656 247.003906 292.644531 246.746094 292.425781 246.601563 292.238281 246.507813 292.039063 246.390625 291.859375 246.367188 291.660156 246.367188 291.28125 246.359375 290.984375 246.460938 290.699219 246.640625L290.4375 246.804688C290.3125 246.675781 290.273438 246.550781 290.273438 246.367188 290.246094 246.078125 290.394531 245.863281 290.644531 245.691406 290.878906 245.503906 291.21875 245.433594 291.621094 245.433594 291.851563 245.402344 292.097656 245.484375 292.339844 245.585938 292.570313 245.671875 292.863281 245.855469 293.1875 246.089844 293.546875 246.359375 293.90625 246.59375 294.179688 246.738281 294.429688 246.847656 294.730469 246.984375 295.011719 247.046875 295.289063 247.105469 295.703125 247.140625 296.238281 247.140625L295.8125 247.964844C295.574219 247.925781 295.367188 247.917969 295.183594 247.90625L295.144531 247.898438 294.914063 247.90625C294.652344 247.882813 294.410156 247.945313 294.171875 248.019531 293.914063 248.070313 293.570313 248.261719 293.078125 248.519531 292.492188 248.78125 292.015625 248.996094 291.5625 249.09375 291.09375 249.171875 290.425781 249.238281 289.5 249.238281zM293.109375 244.886719zM293.078125 249.566406zM293.078125 249.820313zM293.777344 250.691406C293.578125 250.925781 293.363281 251.214844 293.054688 251.511719 292.714844 251.234375 292.46875 251.015625 292.253906 250.777344 292.570313 250.4375 292.847656 250.175781 293.035156 249.957031 293.28125 250.234375 293.539063 250.484375 293.777344 250.691406zM293.03125 250.777344zM293.035156 249.847656zM293.054688 251.621094zM293.035156 249.683594L293.035156 249.683594" />
  <path d="M289.09375 250.246094C289.0625 250.53125 288.890625 250.828125 288.476563 251.128906 288.039063 251.398438 287.53125 251.671875 286.875 251.867188 286.195313 252.054688 285.585938 252.160156 284.972656 252.160156 284.183594 252.152344 283.613281 251.976563 283.191406 251.609375 282.742188 251.222656 282.5625 250.726563 282.5625 250.054688 282.539063 249.835938 282.574219 249.636719 282.601563 249.445313 282.628906 249.25 282.6875 248.972656 282.78125 248.605469L283.1875 248.703125C283.074219 249.011719 283.0625 249.296875 283.0625 249.503906 283.042969 250.027344 283.238281 250.476563 283.582031 250.777344 283.902344 251.070313 284.402344 251.238281 285 251.238281 285.730469 251.203125 286.300781 251.203125 286.703125 251.140625 287.109375 251.078125 287.476563 250.972656 287.800781 250.832031 288.128906 250.660156 288.425781 250.496094 288.695313 250.253906L288.472656 250.125C287.269531 249.472656 286.707031 249.113281 286.707031 248.957031 286.703125 248.859375 286.730469 248.757813 286.78125 248.636719 286.804688 248.484375 286.890625 248.414063 286.957031 248.328125 287.003906 248.214844 287.070313 248.199219 287.105469 248.199219 287.371094 248.234375 287.726563 248.300781 288.171875 248.335938 288.59375 248.339844 289.078125 248.386719 289.5625 248.386719 289.625 248.371094 289.6875 248.429688 289.6875 248.511719L289.6875 249.128906C289.65625 249.171875 289.644531 249.238281 289.5625 249.238281 289.285156 249.238281 289.015625 249.222656 288.691406 249.1875 288.335938 249.136719 288.078125 249.105469 287.832031 249.042969L288.832031 249.585938C288.933594 249.640625 289.019531 249.746094 289.046875 249.855469 289.0625 249.964844 289.09375 250.101563 289.09375 250.246094zM285.558594 247.488281zM282.335938 252.066406zM284.972656 252.707031zM284.835938 253.546875C284.6875 253.757813 284.480469 254.015625 284.171875 254.3125 283.8125 254.019531 283.589844 253.8125 283.429688 253.628906 283.617188 253.414063 283.867188 253.195313 284.152344 252.871094 284.199219 252.929688 284.445313 253.167969 284.835938 253.546875zM286.523438 253.386719C286.382813 253.582031 286.164063 253.851563 285.851563 254.148438 285.511719 253.886719 285.28125 253.660156 285.113281 253.464844 285.277344 253.300781 285.523438 253.058594 285.835938 252.707031 285.890625 252.757813 286.132813 253.007813 286.523438 253.386719zM284.984375 253.578125zM284.960938 252.707031zM284.992188 254.421875L284.992188 254.421875M37.359375 47.710938L37.359375 48.410156C37.339844 49.109375 37.335938 50.109375 37.285156 51.347656L36.769531 51.441406C36.699219 48.820313 36.621094 46.648438 36.464844 44.921875L36.460938 44.777344C36.441406 44.527344 36.519531 44.351563 36.636719 44.214844 36.742188 44.050781 36.941406 43.976563 37.195313 43.925781 37.175781 43.945313 37.21875 44.015625 37.230469 44.058594 37.230469 44.089844 37.363281 44.496094 37.597656 45.253906L37.296875 45.511719 37.300781 45.566406C37.339844 46.359375 37.359375 47.082031 37.359375 47.710938zM36.96875 43.378906zM37.070313 52.019531L37.070313 52.019531M33.1875 51.441406C33.09375 51.441406 33.089844 51.410156 33.089844 51.347656L33.089844 50.679688C33.058594 50.605469 33.125 50.585938 33.1875 50.585938 33.609375 50.570313 34.054688 50.488281 34.429688 50.292969 34.269531 48.289063 34.089844 46.394531 33.867188 44.550781 34.058594 44.328125 34.332031 44.121094 34.617188 43.925781 34.648438 44.699219 34.714844 45.78125 34.796875 47.09375 34.835938 48.167969 34.90625 49.132813 34.917969 49.929688 34.910156 50.027344 34.878906 50.226563 34.804688 50.4375 34.730469 50.613281 34.636719 50.851563 34.523438 51.050781 34.382813 51.308594 33.945313 51.441406 33.1875 51.441406zM34.085938 43.378906zM34.546875 51.769531zM34.546875 52.019531L34.546875 52.019531" />
  <path d="M 33.320313 51.441406 C 33.023438 51.441406 32.738281 51.386719 32.453125 51.273438 C 32.148438 51.152344 31.925781 51.015625 31.726563 50.832031 L 31.570313 51.136719 C 31.488281 51.191406 31.382813 51.300781 31.183594 51.355469 C 30.957031 51.40625 30.785156 51.441406 30.578125 51.441406 C 30.222656 51.441406 29.949219 51.34375 29.683594 51.15625 C 29.59375 51.226563 29.472656 51.296875 29.242188 51.347656 C 28.992188 51.398438 28.703125 51.433594 28.332031 51.441406 C 28.105469 51.441406 27.871094 51.40625 27.597656 51.335938 C 27.289063 51.234375 27.109375 51.1875 26.960938 51.09375 C 26.835938 51.183594 26.699219 51.285156 26.488281 51.347656 C 26.253906 51.40625 26.050781 51.441406 25.800781 51.441406 C 25.738281 51.441406 25.707031 51.410156 25.707031 51.347656 L 25.707031 50.679688 C 25.703125 50.605469 25.738281 50.585938 25.800781 50.585938 C 26.007813 50.570313 26.179688 50.566406 26.316406 50.527344 C 26.449219 50.460938 26.582031 50.425781 26.707031 50.328125 C 26.800781 50.222656 26.871094 50.1875 26.917969 50.132813 C 26.957031 50.042969 27.09375 49.871094 27.304688 49.519531 C 27.367188 49.375 27.484375 49.339844 27.648438 49.339844 C 27.730469 49.339844 27.839844 49.367188 27.921875 49.421875 C 27.679688 49.964844 27.535156 50.332031 27.457031 50.445313 C 27.492188 50.46875 27.632813 50.5 27.816406 50.535156 C 27.996094 50.539063 28.214844 50.585938 28.453125 50.585938 C 28.785156 50.570313 29.097656 50.550781 29.332031 50.472656 C 29.367188 50.390625 29.421875 50.296875 29.464844 50.152344 C 29.632813 49.515625 29.785156 49.125 29.859375 48.972656 C 29.914063 48.808594 30.007813 48.722656 30.078125 48.679688 C 30.125 48.625 30.230469 48.617188 30.316406 48.617188 C 30.410156 48.59375 30.503906 48.644531 30.578125 48.699219 C 30.449219 48.894531 30.328125 49.351563 30.125 50.007813 L 30 50.417969 C 30.113281 50.445313 30.210938 50.511719 30.296875 50.527344 C 30.347656 50.519531 30.480469 50.558594 30.597656 50.558594 C 30.746094 50.550781 30.984375 50.519531 31.214844 50.4375 C 31.269531 50.316406 31.378906 50.078125 31.539063 49.636719 C 31.585938 49.417969 31.664063 49.273438 31.726563 49.109375 C 31.785156 48.921875 31.859375 48.808594 31.921875 48.695313 C 31.980469 48.5625 32.101563 48.523438 32.269531 48.523438 C 32.351563 48.496094 32.464844 48.550781 32.539063 48.605469 C 32.421875 48.832031 32.25 49.382813 31.980469 50.191406 L 32.15625 50.296875 C 32.476563 50.472656 32.882813 50.585938 33.320313 50.585938 C 33.375 50.570313 33.414063 50.617188 33.414063 50.679688 L 33.414063 51.347656 C 33.40625 51.40625 33.382813 51.441406 33.320313 51.441406 Z M 29.722656 47.742188 Z M 29.523438 51.769531 Z M 29.523438 52.019531 Z M 30.367188 46.320313 C 30.128906 46.546875 29.960938 46.757813 29.789063 46.878906 C 29.550781 46.738281 29.367188 46.566406 29.15625 46.320313 C 29.363281 46.078125 29.582031 45.898438 29.757813 45.703125 C 29.875 45.867188 30.097656 46.09375 30.367188 46.320313 Z M 29.585938 47.25 C 29.425781 47.449219 29.257813 47.683594 28.992188 47.9375 C 28.667969 47.675781 28.472656 47.503906 28.316406 47.324219 C 28.492188 47.128906 28.714844 46.929688 28.96875 46.644531 C 29.027344 46.726563 29.253906 46.929688 29.585938 47.25 Z M 31.1875 47.105469 C 31.015625 47.304688 30.84375 47.554688 30.585938 47.796875 C 30.296875 47.574219 30.105469 47.386719 29.925781 47.179688 C 30.050781 47.042969 30.277344 46.828125 30.570313 46.496094 Z M 29.761719 47.796875 Z M 29.757813 45.429688 L 29.757813 45.429688" />
  <path d="M25.898438 51.441406C25.5625 51.441406 25.332031 51.390625 25.109375 51.285156 24.882813 51.167969 24.6875 51.042969 24.515625 50.859375 23.820313 51.238281 23.070313 51.441406 22.25 51.441406 21.777344 51.441406 21.453125 51.378906 21.226563 51.253906 20.988281 51.125 20.882813 50.953125 20.882813 50.730469 20.855469 50.460938 20.949219 50.292969 21.078125 50.136719 21.238281 50.257813 21.476563 50.40625 21.71875 50.476563 21.949219 50.539063 22.253906 50.585938 22.605469 50.585938 23.070313 50.570313 23.589844 50.507813 24.152344 50.351563 23.851563 49.851563 23.628906 49.34375 23.433594 48.820313 23.226563 48.269531 23.140625 47.929688 23.140625 47.722656 23.128906 47.328125 23.339844 47.109375 23.734375 46.976563 23.875 47.527344 24.023438 48.011719 24.148438 48.394531 24.257813 48.757813 24.386719 49.089844 24.496094 49.324219 24.570313 49.535156 24.734375 49.792969 24.886719 50.011719 25.011719 50.203125 25.195313 50.378906 25.351563 50.460938 25.492188 50.539063 25.691406 50.585938 25.898438 50.585938 25.929688 50.570313 25.996094 50.617188 25.996094 50.679688L25.996094 51.347656C25.964844 51.40625 25.964844 51.441406 25.898438 51.441406zM23.027344 46.429688zM23.175781 51.769531zM23.175781 52.019531L23.175781 52.019531M17.484375 47.402344C17.457031 47.265625 17.515625 47.179688 17.570313 47.074219 17.605469 46.960938 17.699219 46.90625 17.789063 46.867188 18.09375 46.976563 18.449219 47.183594 18.769531 47.460938 19.066406 47.734375 19.355469 48.066406 19.570313 48.445313 19.765625 48.820313 19.898438 49.164063 19.898438 49.472656 19.867188 49.683594 19.8125 49.996094 19.636719 50.382813 19.449219 50.757813 19.292969 51.019531 19.136719 51.128906 18.8125 51.308594 18.457031 51.441406 18.03125 51.441406 17.601563 51.441406 17.28125 51.316406 17.03125 51.070313 16.773438 50.8125 16.660156 50.476563 16.660156 50.027344 16.640625 49.648438 16.75 49.328125 16.925781 48.976563 17.09375 48.613281 17.382813 48.265625 17.765625 47.902344 17.628906 47.8125 17.574219 47.753906 17.539063 47.667969 17.492188 47.570313 17.484375 47.492188 17.484375 47.402344zM17.175781 49.699219C17.148438 49.945313 17.261719 50.175781 17.429688 50.324219 17.59375 50.445313 17.84375 50.546875 18.152344 50.546875 18.335938 50.546875 18.574219 50.492188 18.808594 50.382813 19.042969 50.261719 19.226563 50.164063 19.34375 50.050781 19.175781 49.3125 18.769531 48.679688 18.082031 48.140625 17.777344 48.402344 17.585938 48.671875 17.421875 48.953125 17.25 49.230469 17.175781 49.484375 17.175781 49.699219zM17.792969 46.320313zM18.3125 51.769531zM18.3125 52.019531zM17.625 45.542969C17.480469 45.757813 17.269531 46.011719 16.964844 46.308594 16.605469 46.015625 16.378906 45.8125 16.21875 45.625 16.410156 45.414063 16.65625 45.191406 16.941406 44.871094 17.015625 44.953125 17.257813 45.1875 17.625 45.542969zM19.316406 45.382813C19.171875 45.59375 18.953125 45.863281 18.644531 46.148438 18.3125 45.894531 18.078125 45.667969 17.90625 45.460938 17.984375 45.382813 18.226563 45.136719 18.625 44.707031 18.707031 44.777344 18.945313 45.027344 19.316406 45.382813zM17.804688 46.417969zM17.75 44.433594zM17.804688 46.308594L17.804688 46.308594" />
  <path d="M 635.117188 752.80625 L 635.117188 2179.525" transform="matrix(.1 0 0 -.1 0 321.64)" fill="none" stroke-width="6.864" stroke-linejoin="round" stroke="#000" stroke-dasharray="25.7407,25.7389" stroke-miterlimit="10" />
  <path d="M 2236.796875 866.907813 C 2369.140625 821.595313 2513.320313 783.821875 2670.351563 755.423438" transform="matrix(.1 0 0 -.1 0 321.64)" fill="none" stroke-width="6.864" stroke-linejoin="round" stroke="#7c24e7" stroke-dasharray="25.7407,25.7389" stroke-miterlimit="10" />
  <path d="M 786.875 2481.751563 C 862.265625 2113.157813 1152.617188 1237.884375 2236.796875 866.907813" transform="matrix(.1 0 0 -.1 0 321.64)" fill="none" stroke-width="6.864" stroke-linejoin="round" stroke="#7c24e7" stroke-miterlimit="10" />
  <path d="M 761.40625 2649.99375 C 761.40625 2649.99375 765.507813 2586.24375 786.875 2481.751563" transform="matrix(.1 0 0 -.1 0 321.64)" fill="none" stroke-width="6.864" stroke-linejoin="round" stroke="#7c24e7" stroke-dasharray="25.7407,25.7389" stroke-miterlimit="10" />
  <path d="M 2214.21875 848.392188 C 2352.65625 802.415625 2499.570313 768.74375 2656.015625 752.80625" transform="matrix(.1 0 0 -.1 0 321.64)" fill="none" stroke-width="6.864" stroke-linejoin="round" stroke="#55a4e0" stroke-dasharray="25.7407,25.7389" stroke-miterlimit="10" />
  <path d="M 272.070313 746.673438 C 286.835938 968.43125 307.773438 1196.790625 348.320313 1415.345313 C 385.46875 1615.696875 491.367188 2228.782813 789.53125 1913.5875 C 997.304688 1693.978125 1165.15625 1431.0875 1400.585938 1238.548438 C 1632.695313 1048.74375 1925.3125 944.8375 2206.054688 851.0875 C 2208.789063 850.189063 2211.484375 849.290625 2214.21875 848.392188" transform="matrix(.1 0 0 -.1 0 321.64)" fill="none" stroke-width="6.864" stroke-linejoin="round" stroke="#55a4e0" stroke-miterlimit="10" />
  <path d="M 267.695313 2602.142188 L 267.695313 744.2125 L 2698.28125 744.2125" transform="matrix(.1 0 0 -.1 0 321.64)" fill="none" stroke-width="6.864" stroke-linejoin="round" stroke="#000" />
  <path d="M24.222656 63.355469L26.769531 62.273438 29.308594 63.355469 26.769531 57.328125zM267.902344 249.761719L268.980469 247.21875 267.902344 244.675781 273.925781 247.21875zM267.902344 249.761719" />
  <path d="M 267.695313 439.954688 L 655.195313 439.954688" transform="matrix(.1 0 0 -.1 0 321.64)" fill="none" stroke-width="6.864" stroke-linejoin="round" stroke="#55a4e0" stroke-miterlimit="10" />
  <path d="M 267.695313 208.626563 L 655.195313 208.626563" transform="matrix(.1 0 0 -.1 0 321.64)" fill="none" stroke-width="6.864" stroke-linejoin="round" stroke="#7c24e7" stroke-miterlimit="10" />
  <path d="M 142.425781 278.339844 C 142.414063 278.875 142.175781 279.332031 141.671875 279.707031 C 141.148438 280.058594 140.425781 280.359375 139.429688 280.550781 C 138.425781 280.738281 137.15625 280.839844 135.601563 280.839844 C 135.539063 280.839844 135.507813 280.808594 135.507813 280.746094 L 135.507813 280.078125 C 135.503906 280.003906 135.539063 279.988281 135.601563 279.988281 L 136.523438 279.976563 L 136.5625 279.976563 C 136.777344 279.636719 137.039063 279.335938 137.28125 279.035156 L 136.953125 277.105469 C 136.835938 276.59375 136.761719 276.078125 136.683594 275.488281 C 136.574219 274.882813 136.5625 274.472656 136.558594 274.207031 C 136.539063 273.941406 136.613281 273.769531 136.726563 273.628906 C 136.832031 273.457031 137.03125 273.382813 137.296875 273.324219 C 137.332031 273.570313 137.433594 273.832031 137.496094 274.027344 L 137.695313 274.652344 L 137.398438 274.90625 L 137.40625 274.960938 C 137.414063 275.097656 137.449219 275.457031 137.507813 276.015625 C 137.558594 276.550781 137.605469 276.941406 137.628906 277.109375 C 137.683594 277.847656 137.730469 278.339844 137.738281 278.511719 C 138.253906 277.90625 138.765625 277.484375 139.230469 277.175781 C 139.6875 276.855469 140.101563 276.710938 140.445313 276.710938 C 140.640625 276.6875 140.917969 276.796875 141.226563 276.96875 C 141.527344 277.128906 141.8125 277.359375 142.058594 277.628906 C 142.28125 277.871094 142.425781 278.136719 142.425781 278.339844 Z M 141.910156 278.832031 C 141.6875 278.425781 141.429688 278.164063 141.128906 277.957031 C 140.8125 277.738281 140.503906 277.640625 140.171875 277.640625 C 139.808594 277.640625 139.402344 277.84375 138.878906 278.253906 C 138.328125 278.65625 137.789063 279.230469 137.1875 279.964844 C 137.898438 279.925781 138.5625 279.886719 139.101563 279.816406 C 139.636719 279.71875 140.078125 279.644531 140.421875 279.519531 C 140.761719 279.367188 141.265625 279.164063 141.910156 278.832031 Z M 140.320313 275.835938 Z M 139.601563 281.167969 Z M 139.601563 281.417969 L 139.601563 281.417969" />
  <path d="M135.824219 280.078125L135.824219 280.746094C135.816406 280.808594 135.792969 280.839844 135.730469 280.839844 135.28125 280.839844 134.925781 280.753906 134.632813 280.582031 134.332031 280.394531 134.183594 280.167969 134.144531 279.867188 134.011719 278.902344 133.898438 277.4375 133.761719 275.441406L133.652344 273.949219C133.84375 273.734375 134.113281 273.53125 134.40625 273.324219 134.457031 274.433594 134.5 276.074219 134.527344 278.152344L134.566406 279.695313C134.894531 279.871094 135.304688 279.988281 135.730469 279.988281 135.78125 279.972656 135.824219 280.019531 135.824219 280.078125zM134.070313 272.777344zM134.742188 281.417969L134.742188 281.417969M131.699219 279.386719C131.628906 279.0625 131.609375 278.785156 131.546875 278.503906 131.304688 278.675781 131.066406 278.847656 130.789063 278.957031 130.480469 279.0625 130.230469 279.121094 129.953125 279.121094 129.609375 279.09375 129.359375 279 129.152344 278.75 128.929688 278.5 128.84375 278.191406 128.84375 277.816406 128.828125 277.21875 128.980469 276.738281 129.257813 276.300781 129.511719 275.84375 129.859375 275.644531 130.234375 275.644531 130.609375 275.644531 130.960938 275.785156 131.261719 276.058594 131.539063 276.332031 131.796875 276.730469 131.972656 277.242188 132.121094 277.75 132.234375 278.300781 132.234375 278.894531 132.222656 279.128906 132.101563 279.527344 131.839844 280.03125 131.375 280.28125 130.882813 280.515625 130.320313 280.644531 129.753906 280.773438 129.023438 280.839844 128.109375 280.839844 128.039063 280.839844 128.007813 280.804688 128.007813 280.734375L128.007813 280.089844C128.003906 280.003906 128.039063 279.988281 128.109375 279.988281 128.914063 279.972656 129.597656 279.9375 130.15625 279.839844 130.695313 279.746094 131.230469 279.59375 131.699219 279.386719zM130.0625 276.597656C129.816406 276.578125 129.648438 276.699219 129.496094 276.90625 129.3125 277.089844 129.269531 277.339844 129.269531 277.597656 129.246094 277.8125 129.347656 278 129.496094 278.109375 129.617188 278.195313 129.890625 278.273438 130.222656 278.273438 130.578125 278.261719 130.980469 278.179688 131.402344 277.988281 131.257813 277.519531 131.070313 277.191406 130.84375 276.953125 130.601563 276.710938 130.355469 276.597656 130.0625 276.597656zM130.296875 275.097656zM130.636719 281.167969zM130.636719 281.417969zM130.128906 274.34375C129.980469 274.558594 129.769531 274.8125 129.464844 275.109375 129.105469 274.816406 128.878906 274.609375 128.71875 274.425781 128.910156 274.214844 129.15625 273.992188 129.441406 273.667969 129.515625 273.75 129.757813 273.984375 130.128906 274.34375zM131.816406 274.183594C131.671875 274.390625 131.453125 274.660156 131.144531 274.949219 130.8125 274.695313 130.578125 274.46875 130.40625 274.261719 130.484375 274.179688 130.726563 273.9375 131.128906 273.503906 131.203125 273.578125 131.445313 273.828125 131.816406 274.183594zM130.304688 275.21875zM130.253906 273.230469zM130.304688 275.109375L130.304688 275.109375" />
  <path d="M126.121094 280.402344C125.707031 280.34375 125.433594 280.332031 125.28125 280.296875 125.101563 280.242188 124.96875 280.210938 124.800781 280.148438 124.636719 280.082031 124.464844 280.003906 124.289063 279.90625 124.085938 279.785156 123.984375 279.710938 123.894531 279.621094 123.773438 279.503906 123.761719 279.445313 123.761719 279.367188 123.742188 279.261719 123.8125 279.101563 123.910156 278.859375 124.007813 278.613281 124.09375 278.441406 124.160156 278.328125 124.253906 278.09375 124.519531 277.882813 124.898438 277.609375 125.28125 277.316406 125.683594 277.117188 126.113281 276.945313L126.074219 276.640625C126.308594 276.40625 126.605469 276.210938 126.890625 276.054688L126.992188 279.691406C127.300781 279.871094 127.71875 279.988281 128.15625 279.988281 128.199219 279.972656 128.25 280.019531 128.25 280.078125L128.25 280.746094C128.234375 280.808594 128.21875 280.839844 128.15625 280.839844 127.6875 280.839844 127.339844 280.753906 127.058594 280.585938 126.757813 280.402344 126.617188 280.175781 126.570313 279.867188L126.53125 279.628906zM124.308594 278.847656C124.605469 279.101563 124.9375 279.273438 125.304688 279.359375 125.664063 279.4375 126.070313 279.488281 126.511719 279.496094L126.222656 277.691406 126.214844 277.667969C125.316406 277.964844 124.6875 278.367188 124.308594 278.847656zM125.59375 275.507813zM126.417969 281.167969zM126.199219 281.527344zM125.425781 274.742188C125.28125 274.957031 125.070313 275.214844 124.765625 275.507813 124.40625 275.214844 124.179688 275.011719 124.019531 274.824219 124.210938 274.613281 124.457031 274.390625 124.742188 274.070313 124.816406 274.152344 125.058594 274.386719 125.425781 274.742188zM127.117188 274.582031C126.972656 274.792969 126.753906 275.0625 126.445313 275.347656 126.109375 275.09375 125.878906 274.867188 125.703125 274.660156 125.78125 274.582031 126.023438 274.335938 126.425781 273.90625 126.503906 273.980469 126.742188 274.226563 127.117188 274.582031zM125.605469 275.617188zM125.550781 273.632813zM125.605469 275.507813L125.605469 275.507813M114.800781 280.839844C114.738281 280.839844 114.707031 280.808594 114.707031 280.746094L114.707031 280.078125C114.703125 280.003906 114.738281 279.988281 114.800781 279.988281 115.085938 279.972656 115.324219 279.917969 115.519531 279.78125 115.707031 279.628906 115.882813 279.4375 116.023438 279.15625L116.25 278.707031C116.519531 278.074219 116.820313 277.664063 117.09375 277.410156 117.339844 277.136719 117.671875 277.035156 118 277.035156 118.21875 277.003906 118.4375 277.167969 118.652344 277.433594 118.851563 277.667969 119.046875 278.042969 119.179688 278.460938 119.285156 278.875 119.378906 279.285156 119.378906 279.675781 119.351563 279.894531 119.335938 280.113281 119.253906 280.300781 119.152344 280.46875 119.019531 280.667969 118.808594 280.839844 118.355469 280.839844 117.882813 280.777344 117.378906 280.652344 116.847656 280.527344 116.453125 280.371094 116.113281 280.171875 115.933594 280.398438 115.746094 280.578125 115.539063 280.683594 115.316406 280.773438 115.085938 280.839844 114.800781 280.839844zM118.5625 279.988281C118.527344 279.507813 118.460938 279.082031 118.300781 278.65625 118.140625 278.230469 117.980469 278.023438 117.824219 278.023438 117.675781 277.996094 117.550781 278.066406 117.425781 278.148438 117.292969 278.230469 117.175781 278.363281 117.054688 278.535156 116.910156 278.679688 116.761719 279.007813 116.550781 279.421875 117.058594 279.683594 117.746094 279.898438 118.5625 279.988281zM117.566406 276.488281zM117.609375 281.167969zM117.390625 281.527344L117.390625 281.527344" />
  <path d="M 113.792969 278.292969 C 113.863281 278.273438 113.984375 278.320313 114.066406 278.378906 C 113.90625 278.691406 113.8125 278.972656 113.710938 279.191406 C 113.605469 279.394531 113.546875 279.535156 113.523438 279.558594 C 113.769531 279.714844 114.011719 279.832031 114.226563 279.894531 C 114.433594 279.9375 114.679688 279.988281 114.933594 279.988281 C 114.984375 279.972656 115.027344 280.019531 115.027344 280.078125 L 115.027344 280.746094 C 115.019531 280.808594 114.996094 280.839844 114.933594 280.839844 C 114.234375 280.839844 113.65625 280.621094 113.164063 280.1875 L 112.984375 280.429688 C 112.878906 280.484375 112.636719 280.601563 112.171875 280.699219 C 111.683594 280.773438 111.25 280.839844 110.800781 280.839844 C 110.738281 280.839844 110.707031 280.808594 110.707031 280.746094 L 110.707031 280.078125 C 110.703125 280.003906 110.738281 279.988281 110.800781 279.988281 C 111.261719 279.972656 111.65625 279.96875 111.976563 279.925781 C 112.273438 279.859375 112.527344 279.820313 112.664063 279.722656 C 112.773438 279.601563 112.992188 279.332031 113.25 278.832031 L 113.445313 278.472656 C 113.496094 278.339844 113.628906 278.292969 113.792969 278.292969 Z M 113.222656 277.746094 Z M 112.917969 281.167969 Z M 112.917969 281.417969 Z M 113.027344 276.941406 C 112.882813 277.15625 112.671875 277.414063 112.363281 277.707031 C 112.007813 277.417969 111.78125 277.210938 111.621094 277.023438 C 111.808594 276.8125 112.058594 276.589844 112.34375 276.269531 C 112.414063 276.351563 112.65625 276.585938 113.027344 276.941406 Z M 114.714844 276.785156 C 114.570313 276.992188 114.351563 277.261719 114.042969 277.550781 C 113.710938 277.296875 113.480469 277.070313 113.304688 276.859375 C 113.382813 276.78125 113.625 276.535156 114.027344 276.105469 C 114.105469 276.179688 114.34375 276.425781 114.714844 276.785156 Z M 113.207031 277.816406 Z M 113.152344 275.832031 Z M 113.207031 277.707031 L 113.207031 277.707031" />
  <path d="M 110.90625 280.839844 C 110.585938 280.839844 110.273438 280.777344 109.960938 280.648438 C 109.625 280.519531 109.386719 280.351563 109.1875 280.144531 C 108.828125 280.359375 108.449219 280.53125 107.96875 280.652344 C 107.46875 280.773438 107.011719 280.839844 106.535156 280.839844 C 105.984375 280.839844 105.441406 280.78125 104.871094 280.664063 C 104.28125 280.539063 103.851563 280.398438 103.515625 280.210938 L 103.324219 280.429688 C 103.070313 280.671875 102.667969 280.839844 102.101563 280.839844 C 102.039063 280.839844 102.007813 280.808594 102.007813 280.746094 L 102.007813 280.078125 C 102.003906 280.003906 102.039063 279.988281 102.101563 279.988281 C 102.433594 279.972656 102.703125 279.925781 102.898438 279.804688 C 103.0625 279.660156 103.292969 279.445313 103.496094 279.09375 L 103.671875 278.785156 C 103.722656 278.636719 103.863281 278.585938 104.023438 278.585938 C 104.121094 278.570313 104.21875 278.621094 104.289063 278.691406 C 104.101563 279.050781 104.019531 279.328125 103.953125 279.464844 C 104.117188 279.546875 104.324219 279.628906 104.511719 279.683594 C 105.9375 277.773438 107.160156 276.839844 108.164063 276.839844 C 108.355469 276.839844 108.636719 276.925781 108.945313 277.097656 C 109.242188 277.25 109.535156 277.492188 109.777344 277.761719 C 109.996094 278.023438 110.144531 278.265625 110.144531 278.472656 C 110.128906 278.914063 110 279.328125 109.714844 279.679688 C 110.046875 279.871094 110.449219 279.988281 110.90625 279.988281 C 110.96875 279.972656 111.003906 280.019531 111.003906 280.078125 L 111.003906 280.746094 C 111.003906 280.808594 110.96875 280.839844 110.90625 280.839844 Z M 106.648438 279.988281 C 107.605469 279.972656 108.621094 279.667969 109.640625 279.027344 C 109.402344 278.605469 109.144531 278.328125 108.828125 278.109375 C 108.5 277.863281 108.195313 277.777344 107.886719 277.777344 C 107.503906 277.765625 107.113281 277.949219 106.621094 278.292969 C 106.128906 278.621094 105.605469 279.148438 105.03125 279.824219 C 105.605469 279.90625 106.152344 279.988281 106.648438 279.988281 Z M 106.644531 276.292969 Z M 107.546875 281.167969 Z M 107.546875 281.417969 L 107.546875 281.417969" />
  <path d="M 99.300781 280.839844 C 99.238281 280.839844 99.207031 280.808594 99.207031 280.746094 L 99.207031 280.078125 C 99.203125 280.003906 99.238281 279.988281 99.300781 279.988281 C 99.722656 279.972656 100.132813 279.890625 100.523438 279.695313 C 100.417969 278.890625 100.308594 277.492188 100.171875 275.441406 L 100.0625 273.949219 C 100.261719 273.714844 100.535156 273.511719 100.816406 273.324219 C 100.855469 274.320313 100.898438 275.960938 100.929688 278.152344 L 100.96875 279.691406 C 101.285156 279.871094 101.695313 279.988281 102.132813 279.988281 C 102.1875 279.972656 102.230469 280.019531 102.230469 280.078125 L 102.230469 280.746094 C 102.222656 280.808594 102.199219 280.839844 102.132813 280.839844 C 101.574219 280.839844 101.15625 280.707031 100.847656 280.441406 C 100.558594 280.59375 100.328125 280.699219 100.109375 280.753906 C 99.886719 280.808594 99.621094 280.839844 99.300781 280.839844 Z M 100.78125 281.417969 Z M 100.1875 272.777344 L 100.1875 272.777344" />
  <path d="M97.421875 280.402344C97.007813 280.34375 96.734375 280.332031 96.582031 280.296875 96.402344 280.242188 96.269531 280.210938 96.101563 280.148438 95.933594 280.082031 95.765625 280.003906 95.589844 279.90625 95.386719 279.785156 95.28125 279.710938 95.195313 279.621094 95.074219 279.503906 95.0625 279.445313 95.0625 279.367188 95.039063 279.261719 95.109375 279.101563 95.210938 278.859375 95.308594 278.613281 95.394531 278.441406 95.460938 278.328125 95.554688 278.09375 95.820313 277.882813 96.199219 277.609375 96.582031 277.316406 96.984375 277.117188 97.414063 276.945313L97.375 276.640625C97.609375 276.40625 97.90625 276.210938 98.1875 276.054688L98.292969 279.691406C98.601563 279.871094 99.019531 279.988281 99.457031 279.988281 99.5 279.972656 99.550781 280.019531 99.550781 280.078125L99.550781 280.746094C99.53125 280.808594 99.519531 280.839844 99.457031 280.839844 98.984375 280.839844 98.640625 280.753906 98.359375 280.585938 98.058594 280.402344 97.914063 280.175781 97.871094 279.867188L97.832031 279.628906zM95.609375 278.847656C95.902344 279.101563 96.238281 279.273438 96.601563 279.359375 96.964844 279.4375 97.371094 279.488281 97.8125 279.496094L97.523438 277.691406 97.515625 277.667969C96.617188 277.964844 95.988281 278.367188 95.609375 278.847656zM96.890625 275.507813zM97.71875 281.167969zM97.5 281.527344zM96.726563 274.742188C96.582031 274.957031 96.371094 275.214844 96.0625 275.507813 95.707031 275.214844 95.480469 275.011719 95.320313 274.824219 95.511719 274.613281 95.757813 274.390625 96.042969 274.070313 96.117188 274.152344 96.359375 274.386719 96.726563 274.742188zM98.414063 274.582031C98.273438 274.792969 98.054688 275.0625 97.742188 275.347656 97.410156 275.09375 97.179688 274.867188 97.003906 274.660156 97.082031 274.582031 97.324219 274.335938 97.726563 273.90625 97.804688 273.980469 98.042969 274.226563 98.414063 274.582031zM96.90625 275.617188zM96.851563 273.632813zM96.90625 275.507813L96.90625 275.507813M140.625 302.738281C140.617188 303.277344 140.375 303.730469 139.871094 304.105469 139.347656 304.457031 138.625 304.761719 137.628906 304.953125 136.625 305.140625 135.355469 305.238281 133.800781 305.238281 133.738281 305.238281 133.707031 305.207031 133.707031 305.144531L133.707031 304.480469C133.703125 304.40625 133.738281 304.386719 133.800781 304.386719L134.726563 304.375 134.761719 304.375C134.980469 304.035156 135.238281 303.734375 135.480469 303.433594L135.152344 301.503906C135.035156 300.996094 134.964844 300.476563 134.882813 299.886719 134.773438 299.285156 134.761719 298.871094 134.757813 298.605469 134.738281 298.339844 134.8125 298.167969 134.925781 298.027344 135.03125 297.855469 135.230469 297.785156 135.496094 297.726563 135.53125 297.96875 135.632813 298.230469 135.699219 298.425781L135.894531 299.054688 135.601563 299.304688 135.605469 299.359375C135.613281 299.496094 135.648438 299.855469 135.707031 300.417969 135.761719 300.953125 135.804688 301.34375 135.828125 301.511719 135.886719 302.25 135.933594 302.738281 135.9375 302.910156 136.453125 302.308594 136.964844 301.886719 137.429688 301.574219 137.886719 301.253906 138.300781 301.109375 138.644531 301.109375 138.839844 301.085938 139.117188 301.195313 139.425781 301.367188 139.726563 301.53125 140.015625 301.757813 140.257813 302.027344 140.484375 302.269531 140.625 302.535156 140.625 302.738281zM140.109375 303.230469C139.886719 302.828125 139.628906 302.566406 139.328125 302.355469 139.011719 302.140625 138.703125 302.039063 138.371094 302.039063 138.007813 302.039063 137.601563 302.246094 137.078125 302.652344 136.527344 303.058594 135.992188 303.632813 135.386719 304.363281 136.097656 304.328125 136.765625 304.285156 137.300781 304.214844 137.835938 304.117188 138.277344 304.042969 138.621094 303.917969 138.964844 303.765625 139.464844 303.566406 140.109375 303.230469zM138.519531 300.234375zM137.804688 305.566406zM137.804688 305.820313L137.804688 305.820313" />
  <path d="M134.023438 304.480469L134.023438 305.144531C134.015625 305.207031 133.992188 305.238281 133.929688 305.238281 133.480469 305.238281 133.125 305.152344 132.835938 304.980469 132.53125 304.792969 132.382813 304.570313 132.34375 304.265625 132.210938 303.300781 132.097656 301.835938 131.964844 299.839844L131.851563 298.347656C132.042969 298.136719 132.3125 297.929688 132.609375 297.726563 132.65625 298.835938 132.699219 300.472656 132.726563 302.554688L132.765625 304.097656C133.09375 304.269531 133.503906 304.386719 133.929688 304.386719 133.984375 304.371094 134.023438 304.417969 134.023438 304.480469zM132.269531 297.179688zM132.941406 305.820313L132.941406 305.820313M129.898438 303.785156C129.828125 303.464844 129.8125 303.183594 129.746094 302.902344 129.503906 303.078125 129.265625 303.25 128.988281 303.359375 128.679688 303.460938 128.433594 303.523438 128.15625 303.523438 127.808594 303.496094 127.558594 303.398438 127.351563 303.152344 127.128906 302.898438 127.042969 302.589844 127.042969 302.214844 127.027344 301.617188 127.179688 301.136719 127.457031 300.699219 127.714844 300.242188 128.058594 300.042969 128.433594 300.042969 128.808594 300.042969 129.160156 300.183594 129.460938 300.460938 129.738281 300.730469 129.996094 301.132813 130.171875 301.640625 130.324219 302.152344 130.433594 302.703125 130.433594 303.292969 130.421875 303.53125 130.304688 303.925781 130.039063 304.429688 129.574219 304.679688 129.082031 304.917969 128.519531 305.046875 127.953125 305.171875 127.222656 305.238281 126.3125 305.238281 126.238281 305.238281 126.207031 305.207031 126.207031 305.136719L126.207031 304.488281C126.203125 304.40625 126.242188 304.386719 126.3125 304.386719 127.113281 304.371094 127.800781 304.339844 128.355469 304.242188 128.894531 304.144531 129.429688 303.992188 129.898438 303.785156zM128.265625 300.996094C128.015625 300.976563 127.847656 301.097656 127.695313 301.304688 127.511719 301.488281 127.46875 301.742188 127.46875 301.996094 127.445313 302.210938 127.546875 302.402344 127.695313 302.511719 127.816406 302.597656 128.089844 302.675781 128.421875 302.675781 128.777344 302.664063 129.179688 302.578125 129.601563 302.390625 129.457031 301.921875 129.269531 301.59375 129.042969 301.355469 128.800781 301.109375 128.554688 300.996094 128.265625 300.996094zM128.496094 299.496094zM128.839844 305.566406zM128.839844 305.820313zM128.328125 298.742188C128.183594 298.957031 127.96875 299.214844 127.664063 299.507813 127.308594 299.214844 127.078125 299.011719 126.921875 298.824219 127.109375 298.613281 127.359375 298.390625 127.640625 298.070313 127.714844 298.152344 127.957031 298.386719 128.328125 298.742188zM130.015625 298.582031C129.871094 298.792969 129.652344 299.0625 129.34375 299.347656 129.011719 299.09375 128.78125 298.867188 128.605469 298.660156 128.683594 298.582031 128.925781 298.335938 129.328125 297.90625 129.40625 297.980469 129.644531 298.226563 130.015625 298.582031zM128.507813 299.617188zM128.453125 297.632813zM128.507813 299.507813L128.507813 299.507813" />
  <path d="M124.421875 304.800781C124.007813 304.746094 123.734375 304.730469 123.582031 304.695313 123.402344 304.640625 123.269531 304.613281 123.101563 304.546875 122.933594 304.480469 122.765625 304.402344 122.589844 304.304688 122.386719 304.183594 122.28125 304.113281 122.195313 304.019531 122.074219 303.902344 122.0625 303.84375 122.0625 303.769531 122.039063 303.660156 122.109375 303.5 122.210938 303.261719 122.308594 303.011719 122.394531 302.84375 122.460938 302.730469 122.554688 302.492188 122.820313 302.28125 123.199219 302.011719 123.582031 301.714844 123.984375 301.515625 124.414063 301.347656L124.371094 301.039063C124.609375 300.808594 124.90625 300.613281 125.1875 300.453125L125.292969 304.089844C125.601563 304.269531 126.019531 304.386719 126.457031 304.386719 126.5 304.371094 126.550781 304.417969 126.550781 304.480469L126.550781 305.144531C126.53125 305.207031 126.519531 305.238281 126.457031 305.238281 125.984375 305.238281 125.640625 305.15625 125.359375 304.984375 125.058594 304.800781 124.914063 304.574219 124.871094 304.265625L124.832031 304.03125zM122.609375 303.25C122.902344 303.5 123.238281 303.675781 123.601563 303.757813 123.964844 303.835938 124.371094 303.886719 124.8125 303.894531L124.523438 302.089844 124.515625 302.066406C123.617188 302.363281 122.988281 302.769531 122.609375 303.25zM123.890625 299.90625zM124.71875 305.566406zM124.5 305.929688zM123.726563 299.144531C123.582031 299.355469 123.371094 299.613281 123.0625 299.910156 122.707031 299.617188 122.480469 299.410156 122.320313 299.222656 122.511719 299.015625 122.757813 298.789063 123.042969 298.46875 123.117188 298.550781 123.359375 298.785156 123.726563 299.144531zM125.414063 298.984375C125.273438 299.191406 125.054688 299.460938 124.742188 299.75 124.410156 299.496094 124.179688 299.269531 124.003906 299.058594 124.082031 298.980469 124.324219 298.734375 124.726563 298.304688 124.804688 298.378906 125.042969 298.625 125.414063 298.984375zM123.90625 300.019531zM123.851563 298.03125zM123.90625 299.910156L123.90625 299.910156M113.101563 305.238281C113.039063 305.238281 113.007813 305.207031 113.007813 305.144531L113.007813 304.480469C113.003906 304.40625 113.039063 304.386719 113.101563 304.386719 113.382813 304.371094 113.625 304.320313 113.820313 304.183594 114.007813 304.03125 114.183594 303.835938 114.324219 303.554688L114.550781 303.105469C114.820313 302.472656 115.117188 302.0625 115.394531 301.8125 115.636719 301.535156 115.972656 301.433594 116.300781 301.433594 116.519531 301.402344 116.734375 301.566406 116.953125 301.832031 117.152344 302.066406 117.34375 302.441406 117.476563 302.863281 117.585938 303.273438 117.679688 303.683594 117.679688 304.074219 117.652344 304.292969 117.636719 304.511719 117.550781 304.699219 117.449219 304.867188 117.320313 305.066406 117.109375 305.238281 116.65625 305.238281 116.183594 305.179688 115.679688 305.054688 115.148438 304.925781 114.753906 304.769531 114.414063 304.574219 114.234375 304.796875 114.046875 304.980469 113.839844 305.082031 113.617188 305.171875 113.382813 305.238281 113.101563 305.238281zM116.863281 304.386719C116.828125 303.90625 116.761719 303.480469 116.601563 303.058594 116.4375 302.628906 116.28125 302.421875 116.125 302.421875 115.972656 302.394531 115.847656 302.464844 115.726563 302.550781 115.59375 302.628906 115.476563 302.761719 115.351563 302.9375 115.210938 303.078125 115.0625 303.40625 114.851563 303.824219 115.359375 304.082031 116.046875 304.300781 116.863281 304.386719zM115.867188 300.886719zM115.910156 305.566406zM115.691406 305.929688L115.691406 305.929688" />
  <path d="M 113.132813 304.386719 C 113.1875 304.371094 113.234375 304.417969 113.234375 304.480469 L 113.234375 305.144531 C 113.222656 305.207031 113.199219 305.238281 113.132813 305.238281 C 112.765625 305.238281 112.433594 305.175781 112.105469 305.042969 C 111.777344 304.910156 111.484375 304.703125 111.226563 304.417969 C 110.660156 304.941406 109.558594 305.238281 107.898438 305.238281 C 107.839844 305.238281 107.804688 305.207031 107.804688 305.144531 L 107.804688 304.480469 C 107.804688 304.40625 107.839844 304.386719 107.898438 304.386719 C 108.828125 304.371094 109.625 304.292969 110.285156 304.101563 C 110.546875 304 110.878906 303.898438 111.203125 303.730469 C 111.066406 303.28125 110.808594 302.917969 110.421875 302.554688 C 110.03125 302.183594 109.519531 301.847656 108.863281 301.53125 C 108.519531 301.34375 108.300781 301.226563 108.144531 301.089844 C 107.972656 300.9375 107.910156 300.789063 107.910156 300.597656 C 107.90625 300.4375 107.929688 300.332031 107.964844 300.234375 C 107.976563 300.101563 108.054688 300.042969 108.136719 299.960938 C 108.242188 299.84375 108.703125 299.597656 109.492188 299.207031 C 109.832031 299.011719 110.144531 298.90625 110.328125 298.824219 C 110.4375 298.746094 110.96875 298.558594 111.886719 298.179688 L 112.542969 297.910156 C 112.582031 297.9375 112.640625 298.027344 112.671875 298.109375 C 112.679688 298.167969 112.71875 298.265625 112.71875 298.34375 L 112.714844 298.4375 C 112.667969 298.664063 112.515625 298.882813 112.242188 298.996094 L 109.203125 300.242188 L 108.441406 300.574219 C 108.96875 300.699219 109.5 300.933594 109.996094 301.242188 C 110.464844 301.550781 110.890625 301.902344 111.1875 302.285156 C 111.46875 302.667969 111.652344 303.054688 111.652344 303.402344 C 111.632813 303.542969 111.628906 303.710938 111.585938 303.851563 C 112.007813 304.203125 112.554688 304.386719 113.132813 304.386719 Z M 108.457031 298.886719 Z M 110.121094 305.566406 Z M 110.121094 305.097656 Z M 110.121094 305.820313 L 110.121094 305.820313" />
  <path d="M103.300781 305.238281C103.238281 305.238281 103.207031 305.207031 103.207031 305.144531L103.207031 304.480469C103.203125 304.40625 103.238281 304.386719 103.300781 304.386719 103.546875 304.371094 103.792969 304.347656 104.03125 304.269531 103.964844 304.15625 103.945313 304.050781 103.945313 303.925781 103.929688 303.589844 104.058594 303.253906 104.289063 302.839844 104.484375 302.390625 104.789063 302.085938 105.113281 301.824219 105.429688 301.535156 105.746094 301.433594 106.039063 301.433594 106.152344 301.402344 106.277344 301.507813 106.378906 301.652344 106.453125 301.792969 106.578125 301.980469 106.675781 302.199219 106.746094 302.398438 106.863281 302.65625 106.953125 302.910156 107.027344 303.140625 107.140625 303.402344 107.246094 303.621094 107.335938 303.8125 107.460938 304.023438 107.582031 304.167969 107.675781 304.304688 107.839844 304.386719 107.992188 304.386719 108.046875 304.371094 108.117188 304.425781 108.117188 304.5L108.117188 305.121094C108.113281 305.171875 108.078125 305.238281 107.992188 305.238281 107.582031 305.238281 107.273438 305.074219 106.96875 304.746094L106.832031 305.238281C106.105469 305.238281 105.476563 305.128906 104.90625 304.910156L104.882813 304.90625C104.496094 305.015625 104.230469 305.125 104 305.171875 103.769531 305.207031 103.539063 305.238281 103.300781 305.238281zM106.0625 302.292969C105.761719 302.398438 105.484375 302.621094 105.171875 302.90625 104.839844 303.171875 104.648438 303.457031 104.535156 303.703125 105.007813 304.089844 105.761719 304.363281 106.757813 304.464844 106.578125 304.21875 106.453125 303.914063 106.324219 303.527344 106.1875 303.109375 106.109375 302.726563 106.0625 302.292969zM105.484375 300.886719zM106.226563 305.566406zM106.007813 305.929688L106.007813 305.929688M106.160156 299.253906C106.261719 299.484375 106.339844 299.714844 106.339844 299.925781 106.328125 300.0625 106.289063 300.238281 106.183594 300.367188 106.054688 300.484375 105.953125 300.558594 105.800781 300.558594 105.644531 300.550781 105.527344 300.5 105.449219 300.386719 105.382813 300.5 105.328125 300.613281 105.234375 300.675781 105.132813 300.730469 105.050781 300.777344 104.953125 300.777344 104.804688 300.765625 104.710938 300.734375 104.621094 300.652344 104.527344 300.566406 104.492188 300.449219 104.492188 300.285156 104.460938 300.128906 104.535156 299.992188 104.617188 299.824219L104.773438 299.855469C104.722656 299.9375 104.734375 300.03125 104.734375 300.121094 104.722656 300.277344 104.8125 300.398438 104.972656 300.398438 105.023438 300.378906 105.109375 300.371094 105.160156 300.316406 105.191406 300.234375 105.234375 300.1875 105.234375 300.089844L105.226563 299.746094 105.453125 299.59375C105.464844 299.808594 105.53125 299.984375 105.59375 300.0625 105.628906 300.132813 105.75 300.179688 105.871094 300.179688 105.890625 300.167969 105.953125 300.164063 105.992188 300.136719 106 300.078125 106.058594 300.082031 106.066406 300.054688 106.023438 299.953125 105.992188 299.824219 105.910156 299.648438L105.890625 299.5625C105.859375 299.492188 105.917969 299.4375 105.972656 299.375 106.003906 299.300781 106.089844 299.273438 106.160156 299.253906zM106.296875 298.441406L106.308594 298.554688C106.304688 298.742188 106.222656 298.878906 106.050781 298.949219 105.664063 299.121094 105.085938 299.34375 104.273438 299.605469L104.320313 299.125C105.109375 298.847656 105.777344 298.648438 106.296875 298.441406zM105.445313 300.890625zM105.203125 298.222656L105.203125 298.222656" />
  <path d="M 98.601563 305.238281 C 98.539063 305.238281 98.507813 305.207031 98.507813 305.144531 L 98.507813 304.480469 C 98.503906 304.40625 98.539063 304.386719 98.601563 304.386719 C 98.847656 304.371094 99.09375 304.347656 99.332031 304.269531 C 99.261719 304.15625 99.246094 304.050781 99.246094 303.925781 C 99.230469 303.589844 99.359375 303.253906 99.585938 302.839844 C 99.785156 302.390625 100.089844 302.085938 100.414063 301.824219 C 100.730469 301.535156 101.046875 301.433594 101.339844 301.433594 C 101.449219 301.402344 101.578125 301.507813 101.679688 301.652344 C 101.753906 301.792969 101.878906 301.980469 101.976563 302.199219 C 102.046875 302.398438 102.164063 302.65625 102.253906 302.910156 C 102.328125 303.140625 102.441406 303.402344 102.546875 303.621094 C 102.632813 303.8125 102.761719 304.023438 102.882813 304.167969 C 102.976563 304.304688 103.140625 304.386719 103.292969 304.386719 C 103.347656 304.371094 103.417969 304.425781 103.417969 304.5 L 103.417969 305.121094 C 103.414063 305.171875 103.378906 305.238281 103.292969 305.238281 C 102.882813 305.238281 102.570313 305.074219 102.269531 304.746094 L 102.132813 305.238281 C 101.40625 305.238281 100.777344 305.128906 100.207031 304.910156 L 100.179688 304.90625 C 99.796875 305.015625 99.53125 305.125 99.300781 305.171875 C 99.070313 305.207031 98.835938 305.238281 98.601563 305.238281 Z M 101.363281 302.292969 C 101.058594 302.398438 100.785156 302.621094 100.472656 302.90625 C 100.136719 303.171875 99.949219 303.457031 99.835938 303.703125 C 100.308594 304.089844 101.0625 304.363281 102.054688 304.464844 C 101.878906 304.21875 101.753906 303.914063 101.621094 303.527344 C 101.488281 303.109375 101.410156 302.726563 101.363281 302.292969 Z M 100.78125 300.886719 Z M 101.527344 305.566406 Z M 101.308594 305.929688 L 101.308594 305.929688" />
  <path d="M96.722656 304.800781C96.308594 304.746094 96.035156 304.730469 95.882813 304.695313 95.699219 304.640625 95.566406 304.613281 95.402344 304.546875 95.234375 304.480469 95.066406 304.402344 94.890625 304.304688 94.683594 304.183594 94.582031 304.113281 94.492188 304.019531 94.375 303.902344 94.359375 303.84375 94.359375 303.769531 94.339844 303.660156 94.410156 303.5 94.511719 303.261719 94.605469 303.011719 94.695313 302.84375 94.757813 302.730469 94.851563 302.492188 95.121094 302.28125 95.5 302.011719 95.882813 301.714844 96.285156 301.515625 96.710938 301.347656L96.671875 301.039063C96.90625 300.808594 97.203125 300.613281 97.488281 300.453125L97.59375 304.089844C97.902344 304.269531 98.320313 304.386719 98.757813 304.386719 98.800781 304.371094 98.851563 304.417969 98.851563 304.480469L98.851563 305.144531C98.832031 305.207031 98.820313 305.238281 98.757813 305.238281 98.285156 305.238281 97.9375 305.15625 97.65625 304.984375 97.359375 304.800781 97.214844 304.574219 97.171875 304.265625L97.132813 304.03125zM94.90625 303.25C95.203125 303.5 95.539063 303.675781 95.902344 303.757813 96.265625 303.835938 96.671875 303.886719 97.109375 303.894531L96.820313 302.089844 96.816406 302.066406C95.917969 302.363281 95.285156 302.769531 94.90625 303.25zM96.191406 299.90625zM97.019531 305.566406zM96.800781 305.929688zM96.027344 299.144531C95.882813 299.355469 95.671875 299.613281 95.363281 299.910156 95.007813 299.617188 94.78125 299.410156 94.621094 299.222656 94.808594 299.015625 95.058594 298.789063 95.34375 298.46875 95.414063 298.550781 95.65625 298.785156 96.027344 299.144531zM97.714844 298.984375C97.570313 299.191406 97.351563 299.460938 97.042969 299.75 96.710938 299.496094 96.480469 299.269531 96.304688 299.058594 96.382813 298.980469 96.625 298.734375 97.027344 298.304688 97.105469 298.378906 97.34375 298.625 97.714844 298.984375zM96.207031 300.019531zM96.152344 298.03125zM96.207031 299.910156L96.207031 299.910156M64.894531 95.316406C64.894531 94.433594 64.859375 93.675781 64.058594 93.675781 63.355469 93.675781 62.875 94.121094 62.519531 94.746094L62.753906 94.914063C63.042969 94.644531 63.300781 94.535156 63.667969 94.535156 64.136719 94.535156 64.359375 94.96875 64.359375 95.71875 64.359375 96.0625 64.359375 96.074219 64.347656 96.308594 63.199219 97.859375 61.75 99.800781 60.601563 101.363281L60.601563 101.539063 61.714844 101.539063C62.351563 100.425781 63.921875 97.859375 64.269531 97.367188L64.335938 97.367188C64.257813 98.425781 64.09375 99.296875 64.09375 100.300781 64.09375 101.148438 64.328125 101.675781 64.9375 101.675781 65.496094 101.675781 66.066406 101.207031 66.414063 100.570313L66.222656 100.390625C65.933594 100.691406 65.699219 100.78125 65.40625 100.78125 64.929688 100.78125 64.75 100.089844 64.75 99.152344 64.75 97.925781 64.894531 96.675781 64.894531 95.316406" />
</svg>